<?xml version="1.0" standalone="no"?>
<!DOCTYPE svg PUBLIC "-//W3C//DTD SVG 1.1//EN" "http://www.w3.org/Graphics/SVG/1.1/DTD/svg11.dtd" >
<!--
2013-9-30: Created.
-->
<svg>
<metadata>
Created by iconfont
</metadata>
<defs>

<font id="iconfont" horiz-adv-x="1024" >
  <font-face
    font-family="iconfont"
    font-weight="500"
    font-stretch="normal"
    units-per-em="1024"
    ascent="896"
    descent="-128"
  />
    <missing-glyph />
    
    <glyph glyph-name="x" unicode="x" horiz-adv-x="1001"
d="M281 543q-27 -1 -53 -1h-83q-18 0 -36.5 -6t-32.5 -18.5t-23 -32t-9 -45.5v-76h912v41q0 16 -0.5 30t-0.5 18q0 13 -5 29t-17 29.5t-31.5 22.5t-49.5 9h-133v-97h-438v97zM955 310v-52q0 -23 0.5 -52t0.5 -58t-10.5 -47.5t-26 -30t-33 -16t-31.5 -4.5q-14 -1 -29.5 -0.5
t-29.5 0.5h-32l-45 128h-439l-44 -128h-29h-34q-20 0 -45 1q-25 0 -41 9.5t-25.5 23t-13.5 29.5t-4 30v167h911zM163 247q-12 0 -21 -8.5t-9 -21.5t9 -21.5t21 -8.5q13 0 22 8.5t9 21.5t-9 21.5t-22 8.5zM316 123q-8 -26 -14 -48q-5 -19 -10.5 -37t-7.5 -25t-3 -15t1 -14.5
t9.5 -10.5t21.5 -4h37h67h81h80h64h36q23 0 34 12t2 38q-5 13 -9.5 30.5t-9.5 34.5q-5 19 -11 39h-368zM336 498v228q0 11 2.5 23t10 21.5t20.5 15.5t34 6h188q31 0 51.5 -14.5t20.5 -52.5v-227h-327z" />
    

    
    <glyph glyph-name="shangyouquan" unicode="&#58880;" d="M876.522736-153.263109c0 0-145.222419-130.005312-145.222419 47.62203 0 111.35804-90.986639 214.676207-211.967914 214.676207s-216.388242-104.805317-216.388242-214.676207c0-178.851698-140.802091-47.62203-140.802091-47.62203-99.67143 95.562231-162.141031 230.303869-162.141031 380.029777 0 289.644883 232.516099 524.444436 519.331364 524.444436 286.821499 0 519.337599-234.799553 519.337599-524.444436C1038.668963 77.04076 976.193126-57.700878 876.522736-153.263109zM519.331364 180.996276c1.523319 0 2.931299-0.4249 4.443188-0.447051 76.11713 2.421527 137.196417 65.117439 137.196417 142.575103 0 78.989116-63.416221 143.022154-141.639605 143.022154-78.217149 0-141.633371-64.033038-141.633371-143.022154 0-77.457664 61.073053-140.153576 137.196417-142.575103C516.4063 180.571376 517.808045 180.996276 519.331364 180.996276zM519.331364 657.013185c-234.334523 0-424.305747-192.170602-424.305747-429.223534 0-127.232386 53.623751-252.937347 140.594271-331.474377 5.383573 116.412538 80.796193 226.059903 183.791701 265.439678-53.248636 33.727195-88.927144 93.091367-88.927144 161.238484 0 105.330904 84.552537 190.710637 188.845879 190.710637s188.852114-85.38074 188.852114-190.710637c0-68.148124-35.678508-127.511289-88.92091-161.238484 102.983039-39.379775 176.924295-149.027139 182.308907-265.439678 86.970521 78.537031 142.065636 204.241991 142.065636 331.474377C943.637111 464.842583 753.665887 657.013185 519.331364 657.013185z"  horiz-adv-x="1039" />

    
    <glyph glyph-name="shengyijing" unicode="&#58881;" d="M909.727149 812 194.524556 812c-68.414288 0-130.032868-57.729012-130.032868-125.999974l0-756.01797c0-66.292459 55.519068-125.999974 130.032868-125.999974l715.202593 0c70.448844 0 130.032868 55.756549 130.032868 125.999974L1039.760017 686.000026C1039.760017 748.360649 965.948648 812 909.727149 812zM974.740466-70.016938c0-34.793472-29.112441-62.996967-65.013317-62.996967L260.583207-133.013904c-35.90711 0-65.019551 28.202487-65.019551 62.996967L195.563655 622.997018c0 34.799513 29.112441 63.003008 65.019551 63.003008l63.980452 0 0-441.008972 130.032868 126.012057 130.039102-126.012057L584.635628 686.000026l325.091521 0c35.900876 0 65.013317-28.202487 65.013317-63.003008L974.740466-70.016938z"  horiz-adv-x="1040" />

    
    <glyph glyph-name="wodeali" unicode="&#58882;" d="M923.757066-148.554975 115.464698-148.554975c-63.77471 0-115.464698 50.097928-115.464698 111.889669L0 299.006721l0 55.938793L0 522.773976c0 58.293867 57.105772 111.900744 115.464698 111.900744 0 0 59.865619 0 115.476128 0 20.998116 0-16.322169 0 0 0 59.536225 0 55.928473 111.877586 173.200164 111.877586 57.735466 0 175.012352 0 230.940825 0 117.277926 0 113.773044-111.877586 169.706712-111.877586 16.37932 0-19.335557 0 3.504881 0 55.149148 0 115.464698 0 115.464698 0 58.364121 0 115.476128-55.345746 115.476128-111.900744l0-167.828462 0-55.938793 0-335.673034C1039.233194-94.96018 983.922985-148.554975 923.757066-148.554975zM577.351543 690.607472c-57.735466 0-59.542459 0-115.476128 0-58.63013 0-86.71802 0-114.800713-55.933759L692.147061 634.673713C663.048128 690.607472 634.180915 690.607472 577.351543 690.607472zM923.757066 427.006343c0 109.595007-4.162631 95.767633-115.464698 95.767633 0 0 55.928473 0 0 0L232.262559 522.773976c-55.928473 0-1.321734 0-1.321734 0-114.916053 0-115.476128 13.827375-115.476128-95.767633l0-55.949869 144.570904 0 0 62.997973 128.972986 0 0-62.997973 260.166528 0 0 62.997973 131.062615 0 0-62.997973 143.520375 0L923.758105 427.006343zM923.757066 309.075442l-143.520375 0 0-63.999811L649.174077 245.07563l0 63.999811L389.008588 309.075442l0-63.999811-128.972986 0 0 63.999811L115.464698 309.075442l0-289.796921c0-111.35804-3.048717-111.888662 115.476128-111.888662l577.352582 0c116.711616 0 115.464698 2.28862 115.464698 111.888662L923.758105 309.075442z"  horiz-adv-x="1040" />

    
    <glyph glyph-name="xiangce" unicode="&#58883;" d="M924.476123 636.974416c0 0-5.304601 0-61.281911 0-55.971076 0-113.861368 111.987335-169.838678 111.987335-55.971076 0-288.900737 0-346.680884 0-57.773913 0-113.751223-111.987335-173.334207-111.987335-54.575566 0-57.654416 0-57.786382 0-58.404646 0-115.55406-53.625001-115.55406-111.965184l0-545.174925c0-61.844098 51.730512-111.965184 115.55406-111.965184l808.921023 0c60.212678 0 115.566529 53.619967 115.566529 111.965184L1040.041613 525.009232C1040.041613 581.607526 982.885964 636.974416 924.476123 636.974416zM808.921023-69.110753l-577.801473 0c-118.616285 0-115.56549 0.542704-115.56549 111.970219l0 356.06018c0 109.691667 0.560074 111.993377 115.56549 111.993377 0.440578 0 0.868687 0 1.322773 0 55.971076 0 116.039319 111.965184 172.011434 111.965184 55.97731 0 173.345637 0 231.120589 0 57.780147 0 117.368327-111.965184 173.345637-111.965184 111.388312 0 115.55406-2.300703 115.55406-111.993377l0-356.06018C924.476123-66.821126 925.724081-69.110753 808.921023-69.110753zM713.49847 433.780579l132.420717 0 0-62.046479-132.420717 0 0 62.046479ZM519.186929 370.816839c-107.315043 0-194.311541-84.298353-194.311541-188.285082s86.996498-188.285082 194.311541-188.285082 194.311541 84.298353 194.311541 188.285082S626.501972 370.816839 519.186929 370.816839zM519.186929 56.699929c-71.719662 0-129.859338 56.336508-129.859338 125.831827s58.139676 125.831827 129.859338 125.831827 129.859338-56.336508 129.859338-125.831827S590.906592 56.699929 519.186929 56.699929z"  horiz-adv-x="1041" />

    
    <glyph glyph-name="renmai" unicode="&#58884;" d="M871.67326 221.823933c61.878354 39.300232 102.758593 107.083868 102.758593 184.130728 0 121.510332-101.656109 220.013636-227.055633 220.013636-43.13924 0-83.466678-11.657565-117.814101-31.898715C590.233255 684.708209 497.744079 748.356622 389.909487 748.356622c-143.519335 0-259.86415-112.736448-259.86415-251.804616 0-67.529905 27.437413-128.846402 72.094777-174.066035C82.511746 258.075356 1.559688 134.385146 1.559688-7.628122c0-20.443531 1.68438-40.504451 4.9139-60.065962l133.511772 0c-4.887922 19.245353-7.498139 39.35863-7.498139 60.065962 0 138.367384 115.758763 250.535957 258.554885 250.535957s258.553846-112.168572 258.553846-250.535957c0-20.707332-2.611256-40.820609-7.498139-60.065962L775.607505-67.694084c3.228481 19.561511 4.9139 39.623438 4.9139 60.065962 0 70.248459-19.818738 136.005262-54.317869 192.328681 7.203035 0.667556 14.501668 1.021975 21.885506 1.021975 125.363156 0 226.991209-98.475112 226.991209-219.95121 0-11.377655-0.891547-22.553935-2.611256-33.465408l65.247114 0c1.336282 10.97692 2.044947 22.140111 2.044947 33.465408C1039.760017 79.049469 970.971653 176.745262 871.67326 221.823933zM389.909487 370.392946c-71.905661 0-130.197045 56.483511-130.197045 126.15906s58.291384 126.15906 130.197045 126.15906 130.197045-56.483511 130.197045-126.15906S461.815148 370.392946 389.909487 370.392946zM593.668517 340.281429c-0.282635-0.346364-0.572544-0.68568-0.857257-1.03003C593.095974 339.594742 593.385882 339.935065 593.668517 340.281429zM589.238838 335.021529c-0.445774-0.516525-0.895703-1.03003-1.345633-1.543535C588.344173 333.991499 588.793064 334.505003 589.238838 335.021529zM584.51821 329.713299c-0.444734-0.487326-0.886352-0.977673-1.335242-1.461978C583.631859 328.734619 584.073476 329.225973 584.51821 329.713299zM584.11504 320.203392c0.577739-0.320185 1.148205-0.650439 1.723865-0.973645C585.263244 319.552953 584.692779 319.883207 584.11504 320.203392zM589.724097 317.033759c0.632811-0.364488 1.25731-0.739044 1.887004-1.106552C590.981407 316.294715 590.356908 316.669271 589.724097 317.033759zM595.270808 313.778541c0.652554-0.38966 1.296796-0.790395 1.947272-1.184082C596.567604 312.988147 595.923362 313.388882 595.270808 313.778541zM600.762447 310.433712c0.63489-0.393687 1.261466-0.797443 1.894278-1.195157C602.023913 309.635263 601.396298 310.040025 600.762447 310.433712zM606.195897 306.999271c0.604756-0.38966 1.203277-0.788381 1.805954-1.181061C607.399173 306.211897 606.800652 306.610619 606.195897 306.999271zM611.569078 303.479247c0.573583-0.382611 1.139892-0.773278 1.710357-1.15891C612.707931 302.705969 612.141622 303.097642 611.569078 303.479247zM616.881992 299.872631c0.537214-0.371536 1.068194-0.75012 1.60333-1.124676C617.950186 299.122511 617.419206 299.501095 616.881992 299.872631zM622.131521 296.181438c0.501885-0.359453 0.997535-0.725955 1.498381-1.087422C623.130095 295.455483 622.633406 295.821984 622.131521 296.181438zM627.318704 292.405667c0.466556-0.345357 0.926876-0.697762 1.391354-1.045133C628.245581 291.707905 627.78526 292.06031 627.318704 292.405667zM632.441463 288.54532c0.429148-0.329247 0.85414-0.664536 1.282248-0.995797C633.295602 287.880784 632.870611 288.216072 632.441463 288.54532zM637.49668 284.604422c0.394858-0.313137 0.785559-0.632316 1.179378-0.947467C638.282239 283.972106 637.891538 284.291285 637.49668 284.604422zM642.488513 280.578948c0.355372-0.291993 0.707627-0.588013 1.061959-0.881013C643.196139 279.990934 642.843884 280.286955 642.488513 280.578948zM647.412803 276.471916c0.317964-0.269842 0.631772-0.542704 0.948698-0.813553C648.044576 275.929212 647.730768 276.202075 647.412803 276.471916zM712.154915 205.979794c0.003117-0.005034 0.006235-0.009062 0.009352-0.014096C712.16115 205.970732 712.158032 205.975766 712.154915 205.979794zM652.264357 272.288363c0.285752-0.250711 0.568387-0.504443 0.8531-0.756161C652.832745 271.782913 652.55011 272.037652 652.264357 272.288363zM657.045253 268.025266c0.254579-0.230574 0.506041-0.464168 0.759581-0.695749C657.551294 267.561098 657.299832 267.794692 657.045253 268.025266zM661.75445 263.684641c0.223406-0.209429 0.443695-0.421879 0.667102-0.631309C662.199184 263.262761 661.978895 263.475211 661.75445 263.684641zM666.39091 259.267493c0.194312-0.188285 0.387584-0.379591 0.581896-0.568883C666.777455 258.887902 666.585222 259.078201 666.39091 259.267493zM670.950477 254.775836c0.168334-0.169155 0.33459-0.339316 0.502924-0.50847C671.285067 254.43652 671.118811 254.606682 670.950477 254.775836zM675.437308 250.206651c0.140278-0.145996 0.280557-0.293 0.420835-0.438996C675.717864 249.913651 675.578625 250.060654 675.437308 250.206651zM679.842049 245.570005c0.120536-0.12888 0.238993-0.258766 0.359528-0.387646C680.081042 245.311239 679.962584 245.441125 679.842049 245.570005zM684.173014 240.856836c0.096636-0.106728 0.192233-0.215471 0.28887-0.322199C684.365247 240.641366 684.26965 240.749101 684.173014 240.856836zM688.42293 236.073187c0.075854-0.086591 0.150669-0.173182 0.225485-0.259773C688.57256 235.898998 688.497745 235.986596 688.42293 236.073187zM692.589717 231.222077c0.05819-0.069474 0.116379-0.138948 0.174569-0.208423C692.706096 231.083129 692.647907 231.152603 692.589717 231.222077zM696.671299 226.306528c0.044681-0.055378 0.089363-0.110756 0.134044-0.166134C696.760661 226.195772 696.71598 226.25115 696.671299 226.306528zM700.674948 221.31647c0.028056-0.036247 0.056111-0.071488 0.084167-0.107735C700.731059 221.243975 700.703003 221.280222 700.674948 221.31647zM704.588195 216.268013c0.018704-0.025172 0.037408-0.049337 0.056111-0.074509C704.625603 216.218676 704.606899 216.243848 704.588195 216.268013zM708.416236 211.154109c0.009352-0.013089 0.018704-0.026179 0.028056-0.039268C708.43494 211.128938 708.425588 211.14102 708.416236 211.154109zM747.375181 249.36994c-67.275435 0-124.941282 39.839915-149.261397 96.497615 32.440675 42.016773 51.658814 94.173754 51.658814 150.684451 0 11.04438-0.739839 21.921619-2.163404 32.590436 27.471703 20.918775 62.115269 33.395934 99.764948 33.395934 89.247187 0 161.596543-70.105484 161.596543-156.584721S836.622368 249.36994 747.375181 249.36994zM629.575627 594.036356c0.616186-1.41969 1.215746-2.847434 1.804915-4.280213C630.790334 591.187914 630.190774 592.616666 629.575627 594.036356zM632.271051 587.550085c0.387584-0.968611 0.767894-1.940243 1.143009-2.913888C633.038945 585.609843 632.658635 586.581475 632.271051 587.550085zM634.219362 582.540897c0.549683-1.464999 1.082741-2.938053 1.605408-4.415134C635.302103 579.602844 634.769045 581.075898 634.219362 582.540897zM636.593703 575.897555c0.336668-0.983714 0.667102-1.970449 0.991301-2.959197C637.260805 573.927106 636.93141 574.913841 636.593703 575.897555zM638.299904 570.750425c0.475907-1.499233 0.938307-3.004506 1.386158-4.515821C639.237171 567.745918 638.775811 569.251192 638.299904 570.750425zM640.331343 563.99834c0.28783-1.006872 0.569426-2.015758 0.844788-3.026658C640.900769 561.982582 640.619173 562.991468 640.331343 563.99834zM641.787121 558.708234c0.401092-1.530446 0.788676-3.064919 1.159635-4.60644C642.575797 555.642309 642.188213 557.177789 641.787121 558.708234zM643.468383 551.863518c0.238993-1.034058 0.47279-2.070129 0.698275-3.109221C643.941173 549.793389 643.707376 550.82946 643.468383 551.863518zM644.664386 546.437484c0.324199-1.564679 0.635929-3.132379 0.931033-4.707127C645.300315 543.305105 644.988585 544.873812 644.664386 546.437484zM645.988199 539.5243c0.189116-1.067284 0.373037-2.136583 0.548644-3.208901C646.361235 537.387718 646.178354 538.457016 645.988199 539.5243zM646.917153 533.947236c0.245227-1.595892 0.479025-3.195812 0.693079-4.801773C647.396178 530.751424 647.162381 532.351343 646.917153 533.947236z"  horiz-adv-x="1040" />

    
    <glyph glyph-name="fuzhuangfushixiangao" unicode="&#58885;" d="M715.021088 402.592111c0 62.015205 65.00494 63.829587 65.00494 188.957487 0 126.466032 0 130.437132 0 157.467593-97.883044 31.501976-100.323885 62.982808-162.504556 62.982808-62.183789 0-29.27659-94.478744-130.006762-94.478744-100.727055 0-68.06924 94.478744-130.003645 94.478744-61.933366 0-33.371675-31.518086-162.504556-62.982808 0-28.324291 0-32.960933 0-157.467593 0-124.50062 97.505851-126.503286 97.505851-188.957487 0-62.450174-227.509496-503.882606-227.509496-503.882606s96.195548-94.478744 422.510808-94.478744c326.318376 0 552.514452 188.957487 552.514452 188.957487S715.021088 190.015442 715.021088 402.592111zM130.009879-69.8006c0 0 227.502222 412.849374 227.502222 472.392712 0 59.546358-97.499616 96.635462-97.499616 188.957487 0 92.328067 0 104.084294 0 125.971658 63.90973 15.992134 66.493968 31.495935 97.499616 31.495935 27.220214 0 29.476097-48.522125 97.505851-60.389109l0-191.557229 64.998705 0L520.016658 688.65829c67.044689 11.922361 66.291343 60.357896 97.505851 60.357896 35.588072 0 33.25114-16.581154 97.499616-31.495935 0-29.247592 0-33.646612 0-125.971658 0-92.317998-65.001822-124.623458-65.001822-188.957487 0-187.310246 292.511319-409.403862 292.511319-409.403862S780.581944-132.786429 487.515747-132.786429C194.452667-132.786429 130.009879-69.8006 130.009879-69.8006z"  horiz-adv-x="1041" />

    
    <glyph glyph-name="gongyepinxiangao" unicode="&#58886;" d="M1030.968199 265.433577l0.013508-0.590027-220.690112-356.724716-1.196003-2.225187c-14.481925-23.768223-42.794259-38.429287-73.342735-38.429287-2.71101 0-8.076918-0.057392-8.076918-0.057392L307.665828-132.593032c-1.431879-0.070481-2.816998-0.027186-4.265502-0.027186-28.297787 0-53.183173 13.359179-68.225172 34.268892l-1.481755 1.852645L11.455029 261.919594l0 0.616206c-6.700111 11.622325-10.846117 24.819397-10.846117 39.075699 0 14.161656 4.096129 27.269117 10.708956 38.836064l-0.003117 0.577945L228.605969 710.865739l1.018317 1.951318c14.34892 24.283741 41.975449 36.306801 72.73694 39.6033 1.652168 0.177209 4.184452 0.651446 5.727515 0.475244l423.582534 0c1.572157 0.087598 7.73921 0.087598 9.313446 0l0.166256 0 0.027017-0.019131c32.786695-1.861707 61.163454-22.103863 74.325723-49.624698l1.89116-3.102173 211.935702-359.014343 0.010391-0.435976c6.703229-11.625345 10.849234-24.826445 10.849234-39.087782C1040.189165 288.533237 1036.672853 276.359147 1030.968199 265.433577zM752.9593 685.406978 286.726941 685.406978 64.061502 301.595389 286.726941-68.119991l466.232358 0 222.723629 369.71538L752.9593 685.406978zM519.881048 75.745922c-128.740228 0-233.101112 101.124192-233.101112 225.865577 0 124.747426 104.360884 225.868597 233.101112 225.868597 128.737111 0 233.097995-101.121172 233.097995-225.868597C752.979042 176.871121 648.618158 75.745922 519.881048 75.745922zM519.881048 463.129893c-92.056911 0-166.685012-72.313554-166.685012-161.518395 0-89.198799 74.628101-161.515374 166.685012-161.515374 92.053794 0 166.685012 72.316575 166.685012 161.515374C686.566059 390.816339 611.934841 463.129893 519.881048 463.129893z"  horiz-adv-x="1041" />

    
    <glyph glyph-name="gongkaikexiangao" unicode="&#58887;" d="M1006.60548 528.955164l33.540042-188.695886-21.998768-0.38966-11.541274 157.636903-8.010415-157.627841-16.714949 0.380598-7.730898 157.247243-11.054976-156.768979-21.404403-0.478264 32.459379 188.695886 0 70.760957-129.824009-47.173972c0-22.83888 0-93.10949 0-117.934929 0-17.23463-12.401648-34.342394-33.237665-50.193581 0.210937-4.249 0.782442-8.403355 0.782442-12.705719 0-104.993602-59.13825-196.42665-146.759247-245.286126 141.559594-50.485574 247.373139-173.604887 271.079147-321.976553L870.601949-195.554758C840.037887-34.571013 694.736496 88.664091 519.765707 88.664091c-174.977023 0-320.275296-123.235104-350.836241-284.218849l-65.590017 0C127.044418-47.182086 232.86108 75.936221 374.421714 126.421795c-87.620997 48.859475-146.762364 140.292524-146.762364 245.286126 0 4.512801 0.587091 8.878598 0.820888 13.335014-20.859915 15.802858-33.274033 32.738446-33.274033 49.564286 0 24.823425 0 95.097056 0 117.934929L0.466556 623.304114 519.765707 812l519.292917-188.695886-32.453145-11.793493L1006.60548 528.955164zM519.765707 151.562384c117.685252 0 214.465908 86.711825 226.023808 197.794989-61.406603-24.291796-144.007712-40.547746-226.023808-40.547746-82.035839 0-164.649417 16.658699-226.059137 41.144821C304.984952 238.58936 401.869518 151.562384 519.765707 151.562384zM260.114573 466.059891c0-8.339922 10.76195-19.617896 28.791359-31.452671 0 0 5.316031-3.629774 11.573486-7.070256 48.24953-27.621522 133.287326-55.826024 219.28525-55.826024 86.109107 0 171.257048 27.363763 219.471249 54.998375 7.422285 4.021447 12.761177 7.896898 12.761177 7.896898 17.185661 11.566947 27.412475 22.738193 27.412475 31.452671 0 31.361045 0 62.892252 0 62.895273l-259.6449-94.347943L260.114573 528.955164C260.114573 528.949122 260.114573 495.301471 260.114573 466.059891zM519.765707 749.101707 97.83742 623.304114l421.928288-125.797593 421.925171 125.797593L519.765707 749.101707z"  horiz-adv-x="1041" />

    
    <glyph glyph-name="jiadianxiangao" unicode="&#58888;" d="M974.628228 811.999984 65.186845 811.999984c0 0-64.960321 0.251718-64.960321-62.942595s0-629.460179 0-629.460179 0.825045-62.942595 64.960321-62.942595l909.441383 0c65.226331 0 64.963439 62.942595 64.963439 62.942595L1039.591667 749.057389C1039.591667 811.052517 974.628228 811.999984 974.628228 811.999984zM974.628228 151.073038c0-17.38264-14.541154-31.475829-32.480161-31.475829L97.670124 119.597211c-17.939008 0-32.483279 14.093189-32.483279 31.475829L65.186845 717.581562c0 17.38264 14.544271 31.475829 32.483279 31.475829l844.477944 0c17.939008 0 32.480161-14.093189 32.480161-31.475829L974.628228 151.073038zM813.849459-7.038098 227.827681-7.038098c-17.93589 0-32.480161-14.090168-32.480161-31.469787l0-62.688863c0-17.38264 14.544271-31.472808 32.480161-31.472808l586.022817 0c17.942125 0 32.480161 14.090168 32.480161 31.472808l0 62.688863C846.329619-21.128266 831.791583-7.038098 813.849459-7.038098z"  horiz-adv-x="1040" />

    
    <glyph glyph-name="jiajubaihuoxiangao" unicode="&#58889;" d="M942.254452-101.029977c0 0-32.488741-0.503947-32.488741-31.487157 0 0-0.867834-62.964255-64.986824-62.964255-32.650681 0-31.373845 0-64.982672 0-64.015183 0-64.979557 62.964255-64.979557 62.964255s0.460907 31.487157-32.49497 31.487157c-32.952761 0-294.949225 0-324.912321 0s-32.49497-31.487157-32.49497-31.487157 1.05884-62.964255-64.979557-62.964255c-32.121261 0-32.682862 0-64.986824 0-65.379218 0-64.98371 62.964255-64.98371 62.964255 0 27.967572-32.491855 31.487157-32.491855 31.487157s-97.474527-1.359954-97.474527 94.451411c0 95.808348 0 288.949962 0 377.806653 0 88.853673 97.474527 94.451411 97.474527 94.451411l32.491855 0L129.964306 717.548589c0 0-3.496248 94.451411 97.477641 94.451411 26.364078 0 127.178103 0 127.178103 0l25.021843 0 264.289579 0c0 0 136.334993 0 168.35556 0 97.959309 0 97.477641-94.451411 97.477641-94.451411l0-251.868084 32.488741 0c0 0 97.474527 1.359954 97.474527-94.451411 0-95.815389 0-282.246757 0-377.806653S942.254452-101.029977 942.254452-101.029977zM844.779925 686.064449c0 0-0.526305 62.971296-64.982672 62.971296-9.396686 0-97.465184 0-97.465184 0l-32.501197 0L389.901222 749.035745l-41.261542 0c0 0-73.369308 0-88.70484 0-67.06921 0-64.986824-62.971296-64.986824-62.971296l0-503.739186c0 0-0.539801-62.971296 64.986824-62.971296 65.522472 0 456.864547 0 519.862413 0 63.00098 0 64.982672 62.971296 64.982672 62.971296L844.779925 686.064449zM974.746308 339.741936c0 58.770728-64.979557 62.967273-64.979557 62.967273l0-251.871102c0 0-1.543622-94.451411-97.477641-94.451411-100.483916 0-485.908945 0-584.849238 0-98.93718 0-97.474527 94.451411-97.474527 94.451411L129.965344 402.709209c0 0-64.982672 5.106869-64.982672-62.967273 0-56.255015 0-314.838374 0-314.838374s-1.118011-62.967273 64.982672-62.967273c66.103797 0 64.98371-62.964255 64.98371-62.964255s-0.546029-31.487157 32.491855-31.487157c33.040999 0 32.49497 31.487157 32.49497 31.487157s-1.592412 62.964255 64.979557 62.964255c33.388755 0 356.270595 0 389.90226 0 65.35638 0 64.979557-62.964255 64.979557-62.964255s-4.643324-31.487157 32.491855-31.487157 32.491855 31.487157 32.491855 31.487157 0.86472 62.964255 64.986824 62.964255 64.979557 62.967273 64.979557 62.967273S974.746308 280.971208 974.746308 339.741936zM714.816658 242.976993c-64.811389 0-323.885662 0-389.90226 0s-69.288621 62.971296 0 62.971296 326.37186 0 389.90226 0C778.34083 305.947283 779.621819 242.976993 714.816658 242.976993z"  horiz-adv-x="1040" />

    
    <glyph glyph-name="pinglunxiangao" unicode="&#58890;" d="M259.412141 181.253029l519.753238 0 0 63.704798L259.412141 244.957826 259.412141 181.253029zM519.447742 434.496465 259.412141 434.496465l0-62.672754 260.035601 0L519.447742 434.496465zM973.962179 812c0 0-811.63515 0-909.030953 0-63.908754 0-64.931228-62.917424-64.931228-62.917424l0-944.637334c0 0 67.680684 125.837868 194.792644 125.837868l779.169537-0.006041c0 0 64.934345 0.950487 64.934345 62.917424L1038.896524 749.082576C1038.896524 749.082576 1039.390097 812 973.962179 812zM941.499683-6.805508c-47.925331 0-682.795169 0.006041-746.710157 0.006041S64.923953-38.258178 64.923953-38.258178l0.006235 755.876001c0 0-0.191194 31.458712 32.465614 31.458712 44.838167 0 748.265689 0 844.103882 0 31.206226 0 32.471848-31.458712 32.471848-31.458712l0-692.965626C973.971531 24.652197 975.21845-6.805508 941.499683-6.805508zM649.30708 623.986773 259.412141 623.986773l0-63.655461 389.894939 0L649.30708 623.986773z"  horiz-adv-x="1039" />

    
    <glyph glyph-name="shangwufuwuxiangao" unicode="&#58891;" d="M941.264844 590.718712 746.522076 590.718712l0 62.902321c0 0-2.752574 94.352977-97.372942 94.352977l-259.660487 0c-99.615318 0-97.37606-94.352977-97.37606-94.352977l0-62.902321L97.37086 590.718712c-97.593231 0-97.372942-94.352977-97.372942-94.352977l0-597.567515c0-95.145386 97.372942-94.352977 97.372942-94.352977l843.892944 0c0 0 97.37606 0.55378 97.37606 94.352977L1038.639864 496.365734C1038.640903 496.365734 1036.761173 590.718712 941.264844 590.718712zM519.31993 685.070683c126.243273 0 162.287544-14.543261 162.287544-94.352977L357.031347 590.717705C357.031347 674.264931 392.186149 685.070683 519.31993 685.070683zM908.81066-132.649417l-778.98146 0c-69.004496 0-64.914602 62.898293-64.914602 62.898293L64.914598 276.209123l162.664737 0 0-33.045542c0-40.345365 96.619595-39.738221 96.619595 0l0 33.045542 422.701378 0 0-31.539262c0-41.524412 96.619595-41.568715 96.619595 0l0 31.539262 130.20328 0L973.723184-69.751124C973.722145-69.751124 974.510821-132.649417 908.81066-132.649417zM973.722145 464.915078l0-125.800614L843.518865 339.114464l0 33.073735c0 39.958726-96.619595 39.681836-96.619595 0l0-33.073735L324.197892 339.114464l0 33.642617c0 38.744438-96.619595 41.128711-96.619595 0l0-33.642617L64.913559 339.114464 64.913559 464.915078c0 0-1.62619 62.905341 64.914602 62.905341l778.98146 0C976.318853 527.819412 973.722145 464.915078 973.722145 464.915078z"  horiz-adv-x="1039" />

    
    <glyph glyph-name="shezhixiangao" unicode="&#58892;" d="M980.680031 308.877583c0-38.632638 23.725728-71.715401 57.714627-86.876867-3.780239-21.338619-8.484237-42.360074-14.904823-62.708939-9.9078-31.392227-23.184357-61.300327-38.82798-89.801828 0.089363-0.041282 0.171451-0.105722 0.260814-0.147003-10.379551-18.905012-22.08707-36.966266-34.750559-54.366006-35.436363 13.360173-77.191483 6.294958-105.805128-21.427224-28.59702-27.7101-35.891489-68.141009-22.13279-102.469272-20.927436-14.276425-43.000998-26.966022-66.01806-38.220827-26.460634-12.77216-54.204554-23.334238-82.916913-31.852368 0.095597-0.245677 0.131966-0.520552 0.227563-0.769249-20.989782-6.215415-42.671604-10.769493-64.682819-14.42947-15.64674 32.925693-49.781113 55.905511-89.644035 55.905511s-73.997295-22.979819-89.647152-55.905511c-22.01745 3.662997-43.706545 8.218082-64.699445 14.436518-32.694184 9.684086-63.825563 22.692861-93.480385 38.032543-0.049877-0.098673-0.121575-0.191306-0.171451-0.290986-19.417627 10.047567-37.941629 21.418162-55.816195 33.659701 13.593482 34.260803 6.285505 74.522559-22.22527 102.150095-28.465054 27.582227-69.927147 34.672614-105.248171 21.590337-14.881963 20.494862-28.076431 42.133529-39.770442 64.691468-12.976257 25.375166-23.748588 51.951529-32.440643 79.454213-0.256657-0.092632-0.537213-0.127873-0.798027-0.217484-6.41747 20.338796-11.117311 41.35421-14.898589 62.685781 33.9889 15.161465 57.714627 48.243223 57.714627 86.876867 0 38.636665-23.728845 71.724463-57.720862 86.882908 3.777121 21.328551 8.473846 42.337923 14.891315 62.676719 10.036649 31.817127 23.530377 62.110858 39.454556 90.958723-0.109105 0.05135-0.20782 0.124852-0.320043 0.175196 10.290189 18.633157 21.929126 36.403425 34.43779 53.564536 35.258677-12.935273 76.564907-5.831797 104.950989 21.673908 28.375692 27.495636 35.709646 67.495605 22.384252 101.651693 21.052128 14.391209 43.260772 27.183506 66.429544 38.511813 26.437774 12.75605 54.161951 23.312087 82.847294 31.824175-0.095597 0.248697-0.131966 0.520552-0.224445 0.769249 20.986665 6.218436 42.668486 10.772514 64.675545 14.433498 15.636349-32.950864 49.790465-55.949814 89.67313-55.949814 39.879547 0 74.033663 22.998949 89.670012 55.949814 22.011215-3.659976 43.68992-8.215061 64.675545-14.433498-0.105988-0.283938-0.148591-0.600095-0.256657-0.88806 32.176712-9.581386 63.42655-21.235918 92.67924-36.279579 19.611938-10.085828 38.356229-21.450382 56.39913-33.768443-13.546723-34.241672-6.236667-74.462146 22.255404-102.069545 28.507657-27.623509 70.051839-34.704833 105.406114-21.543014 12.666607-17.390678 24.398024-35.435822 34.786927-54.333786 15.69246-28.556878 27.842635-59.077156 37.803429-90.514692 0.289909 0.102701 0.606833 0.143983 0.896742 0.245677 6.411236-20.331748 11.111076-41.335079 14.88508-62.654568C1004.408875 380.603053 980.680031 347.514248 980.680031 308.877583zM918.054625 533.0524c-43.386503-0.926321-87.059797 14.352948-120.16962 46.435888-33.059946 32.031591-48.844886 74.266813-47.945027 116.244277-34.908502 19.594719-72.722321 34.787397-112.585243 45.113867-29.955121-29.930251-71.729982-48.67819-118.154809-48.67819s-88.203844 18.74794-118.154809 48.67819c-40.047881-10.370773-78.018604-25.644-113.023743-45.403845 0.432265-41.411602-15.501266-82.945035-48.110244-114.541657-32.654698-31.641932-75.596467-47.068204-118.39588-46.602022-20.768455-34.416868-37.205947-71.593571-47.971004-111.069966 30.805103-29.016011 50.077256-69.450949 50.077256-114.363442 0-44.978946-19.338655-85.458185-50.219613-114.481245 10.613349-38.486641 26.226837-74.985719 46.382223-108.671599 43.231677 0.80449 86.710661-14.51002 119.697869-46.47717 33.040204-32.012461 48.831377-74.222511 47.951261-116.173796 35.281538-19.894766 73.361367-35.640217 113.77501-45.988838 29.941613 29.824529 71.657246 48.482857 117.990632 48.482857 46.406122 0 88.167476-18.725789 118.115323-48.632881 39.764207 10.287202 77.472039 25.429537 112.265201 44.981967-1.087936 42.196962 14.640893 84.711087 47.875407 116.914852 33.195028 32.165504 77.006523 47.419601 120.502131 46.406689 20.258257 33.915447 36.293619 70.495074 46.876834 109.284784-30.792634 29.016011-50.060631 69.443901-50.060631 114.353373 0 44.959816 19.32203 85.422945 50.180127 114.442983C954.236022 462.177736 938.454199 499.047343 918.054625 533.0524zM519.199926 85.33508c-127.430838 0-230.7307 100.096078-230.7307 223.567675 0 123.478646 103.299862 223.570695 230.7307 223.570695 127.427721 0 230.726544-100.093057 230.726544-223.570695C749.927509 185.431157 646.627647 85.33508 519.199926 85.33508zM519.199926 468.600567c-91.021878 0-164.80512-71.497918-164.80512-159.696806 0-88.195868 73.78324-159.693785 164.80512-159.693785s164.80512 71.497918 164.80512 159.693785C684.005045 397.10265 610.221805 468.600567 519.199926 468.600567z"  horiz-adv-x="1039" />

    
    <glyph glyph-name="tuijianxiangao" unicode="&#58893;" d="M877.852783 812c-88.153015 0-159.610825-69.245615-159.610825-154.660589 0-6.35739 0.405249-12.622149 1.174182-18.779172L315.18475 442.714555c-32.923857 36.734722-81.477843 59.965275-135.627377 59.965275-99.173701 0-179.557372-77.898674-179.557372-173.988506 0-96.097887 80.383671-173.992533 179.557372-173.992533 39.89829 0 76.754098 12.618121 106.563774 33.95072L530.427904 19.558432c-7.533469-17.963605-11.694022-37.603652-11.694022-58.189152 0-85.410946 71.453653-154.660589 159.610825-154.660589 88.153015 0 159.606668 69.248635 159.606668 154.660589 0 85.419001-71.453653 154.656561-159.606668 154.656561-46.869606 0-89.017546-19.57158-118.216232-50.740313L325.68069 227.553035c21.049031 28.501528 33.442367 63.415825 33.442367 101.137282 0 24.896926-5.408511 48.565469-15.131362 69.981638l391.086786 189.478226c26.206081-50.67688 80.29223-85.471359 142.77534-85.471359 88.157172 0 159.613942 69.245615 159.613942 154.660589S966.009955 812 877.852783 812zM678.347824 38.695043c44.076508 0 79.800737-34.62029 79.800737-77.329791 0-42.709501-35.725268-77.325763-79.800737-77.325763-44.072351 0-79.804893 34.61727-79.804893 77.325763C598.542931 4.074752 634.275473 38.695043 678.347824 38.695043zM179.561529 232.024554c-55.097193 0-99.752479 43.274356-99.752479 96.662742 0 53.381338 44.655286 96.662742 99.752479 96.662742 55.094076 0 99.756636-43.281404 99.756636-96.662742C279.318164 275.297903 234.654565 232.024554 179.561529 232.024554zM877.861096 580.00962c-44.076508 0-79.804893 34.61727-79.804893 77.329791 0 42.705473 35.728385 77.32677 79.804893 77.32677s79.800737-34.62029 79.800737-77.32677C957.661832 614.62689 921.937603 580.00962 877.861096 580.00962z"  horiz-adv-x="1038" />

    
    <glyph glyph-name="wangshangshalongxiangao" unicode="&#58894;" d="M974.614735-198.039718 130.633467-198.039718c-35.977769 0-65.145282 28.261893-65.145282 63.12786L65.488185 748.87214c0 34.86496 29.166474 63.12786 65.145282 63.12786L619.243865 812l0 0 162.867362 0 0 0 192.504548 0c35.977769 0 65.145282-28.261893 65.145282-63.12786l0-883.785005C1039.760017-169.777825 1010.593543-198.039718 974.614735-198.039718zM163.210264 748.876168c-34.146876 0-32.576797-31.566447-32.576797-31.566447l0-820.654125c0 0-0.208859-31.566447 32.576797-31.566447 5.602823 0 61.775484 0 97.346965 0L260.557229 748.876168C224.631415 748.876168 168.308085 748.876168 163.210264 748.876168zM974.614735 717.308713c0 0-2.287057 31.566447-32.57368 31.566447-6.667899 0-105.929924 0-159.930867 0l0-189.410765-100.220074 79.916445-95.591926-79.916445L586.298187 748.876168c-124.663842 0-169.713986 0-261.839477 0l0-883.788026c190.945899 0 592.340549 0 617.582345 0 32.326375 0 32.57368 31.566447 32.57368 31.566447L974.614735 717.308713zM732.887021 52.513355c-109.054495-61.015442-248.51407-24.806308-311.479322 80.869953-62.965252 105.678275-25.597168 240.806552 83.458366 301.818973 103.917189 58.136795 234.659761 27.220787 301.300307-67.170451 9.388261-28.890181-4.084699-58.127733-29.952033-72.599506-0.996496-0.558814-1.794524-1.344174-2.749456-1.957359-0.042603 0.119818-0.048838 0.246684-0.091441 0.366501-20.225026-11.312208-154.466245-86.411777-222.838969-124.663855-17.446475-9.762632-28.612634-29.988679-30.776039-50.46443 50.701804-37.674133 121.778264-44.416149 180.55179-11.530699 46.170293 25.828283 73.786431 70.323975 79.718648 117.94097l62.926805-16.340527C832.365178 145.5282 794.628215 87.050075 732.887021 52.513355zM759.946202 322.733662c-0.006235 0.009062-0.009352 0.022151-0.016626 0.034234-0.006235 0.009062-0.016626 0.019131-0.02286 0.028192C759.920225 322.774943 759.933733 322.755813 759.946202 322.733662zM687.218614 318.535005c19.980838 11.180308 29.587309 30.48708 31.059713 50.214725-50.720508 37.870473-121.940363 44.729286-180.834425 11.779397-59.574672-33.328473-88.872072-97.595106-79.389253-159.763417 18.209174-8.323812 40.042725-8.032826 59.907183 3.081029C550.577075 242.094282 654.60233 300.291489 687.218614 318.535005z"  horiz-adv-x="1040" />

    
    <glyph glyph-name="xiaoxixiangao" unicode="&#58895;" d="M844.95906-118.774719l-1.226137 0-30.93606-59.946144c-77.590573 65.728611-165.799699 119.643591-261.124577 160.890106l0-51.661601c0 0-0.175608-62.889231-64.902133-62.889231-64.730682 0-190.406606 0-259.612688 0-64.389857 0-64.902133 62.889231-64.902133 62.889231L162.255332 68.444086c-10.861703 0.324213-21.505196 1.449896-32.451066 1.449896-20.034871 0-48.411629-1.060236-68.166982-2.144638l-29.186217 65.033869 0 0c-19.233725 59.103392-32.451066 122.379262-32.451066 188.667694 0 66.285411 4.876492 109.287911 24.103983 168.385262l30.259606 84.033545c15.469069-0.650439 43.583975-1.273693 59.2193-1.273693 258.304462 0 494.808624 90.076792 678.215859 239.403979l51.935215-50.320447 0.798028 0c118.014647-103.736019 193.908371-262.097869 193.908371-440.228646C1038.439322 143.45505 962.814725-15.01957 844.95906-118.774719zM259.611649-69.492358c34.424316 0 162.463152 0 194.706399 0 32.240129 0 32.451066 31.444616 32.451066 31.444616l0 46.203347c-82.234307 29.246614-169.112348 49.17664-259.612688 57.348414l0-103.551761C227.157465-38.047742 225.187333-69.492358 259.611649-69.492358zM261.07574 516.265555c-37.409648-3.65998-109.090863-6.146954-147.497007-6.146954-5.104055 0-10.131217 0.308103-15.219685 0.374556-21.414794-58.398582-33.456914-122.127544-33.456914-189.04225 0-67.058689 12.081606-130.92962 33.586802-189.43493 10.432555 0.282931 20.814195 0.767237 31.315331 0.767237 32.82722 0 99.173701-1.581796 131.271474-4.301358L261.07574 516.265555zM786.299835 727.822472c-142.214227-103.755149-277.937201-175.215883-461.360022-203.723452l0-403.428478c185.406461-26.520004 323.098529-97.138993 466.445374-201.37442 110.405324 91.78344 182.150964 237.508039 182.150964 402.155792C973.537189 488.628929 899.603206 636.334046 786.299835 727.822472z"  horiz-adv-x="1039" />

    
    <glyph glyph-name="xiaoshangpinxiangao" unicode="&#58896;" d="M935.918265 421.615934c38.075673 34.52561 62.341732 83.097072 62.341732 137.61713 0 104.700499-87.589738 189.576713-195.644513 189.576713-65.425775 0-123.20067-31.233142-158.713926-79.034347-29.595593 8.175793-60.425635 13.50919-92.155534 15.69108 0.001039 0 0.002078 0 0.003117 0L551.74914 717.738741c19.408275 1.585822 32.606899 7.740825 32.606899 31.072042 0 34.901174-29.199696 63.189217-65.214838 63.189217-36.021376 0-65.217955-28.288044-65.217955-63.189217 0-23.33021 13.196546-29.485214 32.606899-31.072042l0-32.732373c-36.563785-3.470685-71.930529-12.275773-105.591073-22.6838-3.944416-1.219321-7.855582-2.506103-11.752199-3.823089 8.856233 3.229036 17.836119 6.214409 26.944854 8.91383-35.34804 49.140345-93.963566 81.397474-160.467924 81.397474-108.054775 0-195.644513-84.877221-195.644513-189.576713 0-54.65397 24.386594-103.328133 62.622287-137.869854-24.210986-53.329936-37.655877-112.380911-37.655877-174.837127 0-106.036617 38.709523-203.313455 103.177249-279.290942l-103.177249-99.59969 65.208603-63.189217 103.592888 99.71548c77.981197-61.10298 177.254554-97.701738 285.349854-97.701738 108.097379 0 207.371774 36.598758 285.352971 97.701738l103.592888-99.71548 65.208603 63.189217-103.178288 99.59969c64.468766 75.978494 103.178288 173.254326 103.178288 279.290942C973.293586 308.751724 959.959878 367.957759 935.918265 421.615934zM237.021903 685.614517c37.981115 0 71.77882-16.063621 95.597028-41.189083-81.268904-35.247537-149.808856-92.351225-197.1803-163.854177-17.911973 21.58631-28.846403 48.806063-28.846403 78.661806C106.592229 629.032389 164.985387 685.614517 237.021903 685.614517zM519.138085-133.128766c-215.236708 0-389.7283 169.078831-389.7283 377.640099 0 168.493838 113.882038 308.192171 271.133952 356.81297 37.394024 11.561901 77.24032 20.827129 118.594347 20.827129 215.239825 0 389.731418-169.07279 389.731418-377.641106C908.869502 35.950065 734.378949-133.128766 519.138085-133.128766zM903.378907 481.214648c-46.935023 71.998332-114.82346 129.886373-195.369152 165.625263 23.666499 23.734973 56.498882 38.7736 93.248666 38.7736 72.036517 0 130.429675-56.582128 130.429675-126.381455C931.688097 529.674348 920.973956 502.69725 903.378907 481.214648zM682.57679 245.671249 519.140163 245.671249 519.140163 465.451074c0 0 3.062222 31.596622-32.603782 31.596622-35.662887 0-32.606899-31.596622-32.606899-31.596622l0-282.975084L682.57679 182.47599c0 0 32.611056-1.971454 32.611056 31.596622C715.187845 247.642702 682.57679 245.671249 682.57679 245.671249z"  horiz-adv-x="1024" />

    
    <glyph glyph-name="xinqingyizhanxiangao" unicode="&#58897;" d="M876.397005-68.962743c-40.639168 0-37.541613-62.925479-421.093891-62.925479S67.688997-68.962743 33.192983-68.962743c-39.574091 0-32.46977-27.646694-32.46977-62.925479 0 0 0.747112-62.922458 454.579901-62.922458 453.83071 0 454.576783 62.922458 454.576783 62.922458C909.879897-95.624716 917.03929-68.962743 876.397005-68.962743zM245.910087 717.610775c-17.900561-58.989616 13.039655-66.934843-8.182906-157.314704C292.950106 615.88548 237.728221 671.854479 245.910087 717.610775zM877.376875 453.468956c-0.754386 26.134372-22.387391 43.903651-46.867528 43.903651l-198.2809 0c82.83075 66.706283-0.003117 133.866666 12.266565 188.777443-26.843048-70.791164 19.558963-80.324229-12.269683-188.777443L518.705826 497.372607C434.880659 714.687825 570.483098 642.459855 490.075527 812c28.632377-91.515612-185.216306-107.408081 28.62926-314.626387L80.092723 497.373613c-26.378571 0-46.89974-22.656636-46.89974-45.310251 0-300.788943 259.757123-489.564372 259.757123-489.564372s-4.266541-22.612334 162.353008-22.612334c161.541471 0 162.34989 22.612334 162.34989 22.612334s30.850854 22.422035 71.286358 64.117615c47.885845 9.496818 350.820655 78.700144 350.820655 309.615184C1039.760017 452.594991 949.12875 463.257766 877.376875 453.468956zM592.674099 11.547757c0 0-0.684766-17.585021-137.370986-17.585021-140.984973 0-137.37722 17.585021-137.37722 17.585021S98.132524 165.332367 98.132524 399.218687c0 17.613214 17.361269 35.229448 39.685275 35.229448l634.964396 0c21.089556 0 39.691509-14.312687 39.691509-35.229448C812.472664 165.332367 592.674099 11.547757 592.674099 11.547757zM736.205904 80.067417c54.314752 67.459424 111.291675 161.787229 132.546448 277.323789 46.408246 7.594836 96.518803 4.354722 96.518803-45.067595C965.270116 203.85328 818.177319 118.957852 736.205904 80.067417z"  horiz-adv-x="1040" />

    
    <glyph glyph-name="yonghuxiangao" unicode="&#58898;" d="M1008.471702-84.087975c0-113.0224-88.757771-111.559415-88.757771-111.559415L626.045808-195.64739l0.406288-1.396532L414.224407-197.043922l0.406288 1.396532L120.960493-195.64739c0 0-88.748419-2.270497-88.748419 111.559415 0 170.364773 162.277153 210.101987 329.278051 305.916943-99.154997 91.602203-166.253786 248.741711-166.253786 341.788775 0 137.176255 145.602729 248.382257 325.220369 248.382257 179.605171 0 325.211017-111.206003 325.211017-248.382257 0-93.014844-67.056185-250.081858-166.159228-341.69715C845.427694 126.883949 1008.471702 84.371795 1008.471702-84.087975zM582.273756 227.158341c114.104517 50.149279 198.931376 226.167638 198.931376 320.652516 0 110.88179-116.682522 200.777345-260.621653 200.777345-143.942249 0-260.627888-89.896562-260.627888-200.777345 0-94.421445 84.712558-270.256554 198.703813-320.544781C291.603433 111.367043 97.296049 90.03243 97.296049-70.914061c0-91.432042 65.080858-94.597647 65.080858-94.597647l261.044567 0 64.374271 220.728515-65.080858 126.133888c0 0 44.744648-31.536241 97.622326-31.536241 55.119014 0 97.625443 31.536241 97.625443 31.536241l-65.083975-126.133888 64.377388-220.728515 261.041449 0c0 0 65.083975 3.819066 65.083975 94.597647C943.381492 88.452648 747.616252 113.013279 582.273756 227.158341z"  horiz-adv-x="1024" />

    
    <glyph glyph-name="yuancailiaoxiangao" unicode="&#58899;" d="M973.714875-39.202624c0-87.056175-87.398629-157.626834-195.210362-157.626834-107.808615 0-195.207244 70.570659-195.207244 157.626834 0 28.502535 10.095887 54.86144 26.480403 77.9319l10.201875 13.914972 14.201368 15.43837c-14.695979-2.471871-67.84694-12.70874-83.421997-12.70874s-45.973903 4.530924-60.666765 7.002795l-21.475062 6.041233c1.385119-2.349033 17.799768-21.767568 17.799768-21.767568 19.96629-24.725758 31.805786-54.133472 31.805786-85.854977 0-87.056175-87.395512-157.626834-195.210362-157.626834-107.811732 0-194.171263 70.570659-194.171263 157.626834 0 8.277496 0.34602 10.044556 0.34602 10.044556l1.896356 13.760921 126.862576 512.136431c0 0 16.335678 63.055365 79.262483 63.055365 17.042265 0 30.735514-4.788684 41.989997-11.535734l41.423688 200.69176c0 0 40.154948 63.049324 130.136778 63.049324s130.139895-63.049324 130.139895-63.049324l41.043377-198.853212c10.268378 5.803611 22.813422 9.697185 38.1339 9.697185 61.966678 0 70.916439-40.901158 70.916439-40.901158L971.882943-18.395612c-0.067541 0.092632 0 0 0 0S973.714875-26.645922 973.714875-39.202624zM323.013323-133.781141c71.876566 0 130.139895 42.34602 130.139895 94.578517 0 52.235518-58.263328 94.578517-130.139895 94.578517-71.873449 0-130.139895-42.342999-130.139895-94.578517C192.872389-91.435121 251.139874-133.781141 323.013323-133.781141zM329.296755 298.362323 329.296755 298.362323l40.309773 203.433473c-8.920666 13.874698-20.201127 26.469661-32.398072 26.469661-27.381302 0-46.730367-63.049324-46.730367-63.049324l-91.335776-383.520603c33.784231 22.598237 76.571216 36.730694 123.87101 36.730694 25.510923 0 49.722973-4.217787 72.061526-11.402827-44.211591 34.448115-72.017884 83.59757-72.017884 137.933423C323.056965 263.52052 323.296997 281.411631 329.296755 298.362323zM648.363579 717.421483c0 0-44.69685 63.052345-97.6057 63.052345S453.153217 717.421483 453.153217 717.421483l-57.571288-334.708451c40.688005 31.532214 95.135762 50.974914 155.17595 50.974914s114.487944-19.441693 155.17595-50.974914L648.363579 717.421483zM550.758918 370.638622c-89.842591 0-162.675128-56.460353-162.675128-126.10771 0-69.644336 72.832538-126.103682 162.675128-126.103682 89.845708 0 162.675128 56.460353 162.675128 126.103682C713.434046 314.179276 640.604626 370.638622 550.758918 370.638622zM811.038707 465.217139c0 0-23.575082 63.049324-50.962618 63.049324-11.279421 0-21.056305-10.788635-28.803828-23.373529l41.532793-207.067275 0 0c5.384612-16.126064 8.485284-33.042522 8.485284-50.593309 0-54.334846-30.636799-105.758825-74.845273-140.20694 22.335436 7.185039 46.551642 11.402827 72.058409 11.402827 47.299793 0 90.086779-14.133464 123.87101-36.730694L811.038707 465.217139zM778.504513 55.375893c-71.873449 0-130.139895-42.342999-130.139895-94.578517 0-52.232497 58.267485-94.578517 130.139895-94.578517s130.139895 42.34602 130.139895 94.578517C908.644408 13.032893 850.376923 55.375893 778.504513 55.375893z"  horiz-adv-x="1024" />

    
    <glyph glyph-name="zanxiangao" unicode="&#58900;" d="M615.829385-194.989903c-347.76986 0-230.621822 37.295549-384.896872 37.295549 0-38.120178-38.489272-37.295549-38.489272-37.295549L76.977504-194.989903c0 0-76.979582-0.321192-76.979582 74.592106s0 537.941556 0 596.737852c0 73.898371 76.979582 74.588078 76.979582 74.588078s78.368858 0 115.464698 0c37.099996 0 38.489272-40.190307 38.489272-37.295549 154.000729 0 192.660412 114.106801 153.962282 298.367416 329.636541 0 237.502736-192.906625 230.933551-223.77531-6.804021-31.97423-35.856194-74.588078-0.004156-74.588078 93.783894 0 308.464895-0.004027 308.464895-0.004027s115.468854 1.910036 115.468854-111.887655c0-190.90295-14.884056-321.606024-44.575275-410.740383C941.972474-168.762898 858.556712-194.989903 615.829385-194.989903zM195.029559 439.040478c0 36.616918-38.489272 37.299577-38.489272 37.299577l-52.954571 0c0 0-38.486154-1.267652-38.486154-37.299577 0-36.027897 0-486.607189 0-522.142726 0-35.535537 38.486154-37.295549 38.486154-37.295549l52.954571 0c0 0 38.489272 1.622071 38.489272 37.295549S195.029559 402.427588 195.029559 439.040478zM919.479095 439.040478 770.335116 439.040478c0 0-26.897081 0-154.505731 0-148.812507 0-88.38993 112.980111-76.986856 149.191259 10.200836 32.394096 73.754219 149.176156-76.97127 149.176156 37.496932-149.89607-6.23979-298.360368-201.421057-298.360368 0-14.291543 0-495.099148 0-522.138699 153.677569 0 10.48451-37.306625 355.379183-37.306625 225.103166 0 337.685403 111.887655 265.163556 111.887655l-38.493428 0-38.486154 37.295549 85.397325 0c36.065053 0 73.723046 111.887655 0 111.887655l-46.91117 0-38.486154 37.295549 104.641441 0c37.531222 0 74.712268 111.887655 0 111.887655l-66.156326 0-38.486154 37.299577 115.464698 0C960.224251 327.156851 992.224348 439.040478 919.479095 439.040478z"  horiz-adv-x="1040" />

    
    <glyph glyph-name="fuzhuangfushi" unicode="&#58901;" d="M693.24435 391.579548c0 62.062589 86.771014 84.98806 86.771014 210.205695 0 126.558788 0 99.084269 0 126.134895C681.243794 759.439263 669.220377 812 606.473336 812c-62.751198 0-28.519115-84.079861-130.166911-84.079861-101.652992 0-67.663019 84.079861-130.162755 84.079861-62.495579 0-43.244189-52.598998-173.55034-84.079861l0-168.171805c0-124.59136 86.77517-105.668206 86.77517-168.167778C259.367461 329.085011 42.429536-102.464398 42.429536-102.464398s97.07576-94.544283 426.370437-94.544283c329.286364 0 570.960044 189.096621 570.960044 189.096621S693.24435 178.847611 693.24435 391.579548zM432.91884 475.664444 432.91884 707.11212l86.549685-0.450072 0.225485-230.998611L432.91884 475.663437z"  horiz-adv-x="1040" />

    
    <glyph glyph-name="gongyepin" unicode="&#58902;" d="M777.922618 748.049526l-518.510476 0L0 308.367611l259.412142-439.973908 518.510476 0 261.837399 439.973908L777.922618 748.049526zM519.873774 118.582289c-108.167104 0-195.862916 84.97195-195.862916 189.788343 0 104.82042 87.695812 189.788343 195.862916 189.788343 108.171261 0 195.862916-84.967923 195.862916-189.788343C715.73669 203.554239 628.045034 118.582289 519.873774 118.582289z"  horiz-adv-x="1040" />

    
    <glyph glyph-name="jiajubaihuo" unicode="&#58903;" d="M909.761439 350.229325c0-87.021942 0-209.889537 0-209.889537s1.118071-83.962057-86.644244-83.962057L216.603335 56.37773c-88.325506 0-86.644244 83.962057-86.644244 83.962057s0 113.603365 0 209.889537c0 108.997932-129.958052 108.909327-129.958052 0l0-335.830106c0-84.982019 86.640087-83.95803 86.640087-83.95803l43.317965 0.004027c0 0 43.322122 1.364312 43.322122-41.982539 0-13.613918 0.004156-29.536593 0.004156-41.974484 0-39.338493 43.322122-41.987573 43.322122-41.987573s5.601784 0 43.322122 0c37.716182 0 43.317965 41.987573 43.317965 41.987573s0 30.891843 0 41.978512c0 41.12267 43.331474 41.974484 43.331474 41.974484l346.574896 0c0 0 43.322122-3.232059 43.322122-41.974484 0-13.223251-0.004156-41.978512-0.004156-41.978512s2.997801-41.987573 43.326278-41.987573c40.328477 0 43.322122 0 43.322122 0s43.322122 1.246508 43.322122 41.987573c0 15.934758-0.004156 27.005317-0.004156 41.974484 0 41.730821 43.322122 41.982539 43.322122 41.982539l43.331474-0.004027c0 0 86.644244-0.427921 86.644244 83.592535L1039.736118 349.145931C1039.737157 458.93325 909.761439 452.746021 909.761439 350.229325zM218.075739 397.455654c0 0-1.451622-89.20484 97.292932-89.20484l410.467024 0c95.746752 0 97.284619 89.20484 97.284619 89.20484L823.120313 722.791132c0 0 0.485259 89.208868-97.284619 89.208868L315.373866 812c-100.785344 0-97.298127-89.208868-97.298127-89.208868L218.075739 397.455654zM261.107952 140.33576l518.820127 0c57.432049 0 56.301509 83.95803 0 83.95803L261.107952 224.29379C199.707583 224.292783 202.60563 140.33576 261.107952 140.33576z"  horiz-adv-x="1040" />

    
    <glyph glyph-name="luntanquan" unicode="&#58904;" d="M1037.735852-12.450032c0-89.699215-65.316733-88.534264-65.316733-88.534264L957.907059-100.984296l0 37.572439c0 0 0.914407 193.328505-319.305817 270.724749 183.187985 176.620469 179.675829 352.196812 127.185736 450.736364 88.945848-27.513787 152.143858-95.388042 152.143858-175.23602 0-69.193257-47.440072-184.939246-117.950223-255.029627C920.568071 154.211465 1037.735852 119.658635 1037.735852-12.450032zM538.415459 202.415466c143.51414-83.561322 339.661769-128.290608 339.661769-281.946339 0-119.075715-119.734356-116.016838-119.734356-116.016838l-239.481181 0-39.908681 248.155711 79.821518 116.020865c0 0-70.158935-29.005971-119.738512-29.005971-47.556451 0-119.738512 29.005971-119.738512 29.005971l79.829831-116.020865-39.912837-248.155711L119.738512-195.54771c0 0-119.738512-2.397362-119.738512 116.016838 0 149.919228 193.776405 199.815782 337.586688 282.646115-104.351532 71.212036-178.458005 235.623174-178.458005 328.040944 0 120.171192 125.098186 217.600164 279.413761 217.600164 154.318693 0 279.413761-97.429979 279.413761-217.600164C717.955167 438.421252 643.338496 273.225761 538.415459 202.415466z"  horiz-adv-x="1038" />

    
    <glyph glyph-name="remenquan" unicode="&#58905;" d="M148.720027-78.056812c0 0-194.365574 249.08002 7.522039 450.055718 0-73.557041 114.447419-247.663351 195.784984-247.663351C238.844213 324.153351 209.470958 731.432108 524.355408 812c0-68.837832-51.061332-262.620436 178.943265-485.652674 0 105.855484 65.45909 205.237788 136.436836 241.636214 0-117.663073-27.738752-265.061094 103.290612-392.616686C1128.563508-9.335777 465.844774-393.751489 148.720027-78.056812z"  horiz-adv-x="1024" />

    
    <glyph glyph-name="shangwufuwu" unicode="&#58906;" d="M302.409022 286.984668l0 83.956016c0 23.185244-19.391668 41.984553-43.320044 41.984553s-43.328356-18.798302-43.328356-41.984553l0-83.956016c0-23.185244 19.399981-41.984553 43.328356-41.984553S302.409022 263.798417 302.409022 286.984668zM865.292149 224.199144c0-27.815849-172.628659-27.790677-172.628659 0l0 62.785523L345.399671 286.984668l0-63.940406c0-26.401193-172.620346-26.813004-172.620346 0l0 63.940406L-0.849987 286.984668l0-332.149989c0-86.366468 89.34694-85.644541 89.34694-85.644541l861.068214 0c0 0 89.355253 0.503436 89.355253 85.644541L1038.920421 286.984668 865.292149 286.984668 865.292149 224.199144zM949.566207 622.818801 809.125722 622.818801l-30.148423 96.046536c0 0-16.027065 71.874558-92.839353 71.874558L351.924175 790.739896c-75.272342 0-92.834157-71.874558-92.834157-71.874558l-30.195182-96.046536L88.496954 622.818801c-89.550604 0-89.34694-85.639506-89.34694-85.639506l0-166.237604 173.629312 0 0 64.145808c0 27.324495 172.620346 25.746726 172.620346 0l0-64.145808 347.263819 0 0 64.565673c0 26.548197 172.628659 26.737489 172.628659 0l0-64.565673 173.629312 0L1038.92146 537.178288C1038.92146 537.178288 1037.197595 622.818801 949.566207 622.818801zM302.409022 622.818801c0 74.569955 80.863735 84.212769 216.619961 84.212769 134.811685 0 216.628273-12.976568 216.628273-84.212769L302.409022 622.818801zM822.297343 286.984668l0 83.956016c0 23.185244-19.399981 41.984553-43.3242 41.984553-23.928375 0-43.3242-18.798302-43.3242-41.984553l0-83.956016c0-23.185244 19.395825-41.984553 43.3242-41.984553C802.896323 245.000115 822.297343 263.798417 822.297343 286.984668z"  horiz-adv-x="1040" />

    
    <glyph glyph-name="wangshangshalong" unicode="&#58907;" d="M996.614542-194.831824 147.017982-194.831824c-52.86313 0-80.553044 25.825262-80.553044 57.682696L66.464938 754.317304c0 31.857433 27.690953 57.682696 61.84926 57.682696l132.103792 0 0-1006.823769 41.220024 0L301.638014 812l346.961441 0 0-251.732121 99.306706 83.927824 97.198374-83.927824L845.104534 812l132.805184 0c34.159345 0 61.84926-25.825262 61.84926-57.682696l0-891.466433C1039.760017-169.006561 1012.069064-194.831824 996.614542-194.831824zM562.218103 90.984931l223.006264 158.189675c2.792059-5.34045 4.558528-10.907445 6.628413-16.411008 43.998575 17.481313 27.201538 43.880493 27.097628 44.06173-53.523997 89.909651-172.071702 120.709868-264.781167 68.803598-92.705309-51.910298-124.469531-166.87294-70.94969-256.782591 53.528154-89.909651 172.080015-120.71893 264.781167-68.808632 42.605143 23.853807 71.603283 61.274208 86.102873 103.212445l-41.523441 10.345611c-11.490358-31.669148-33.691751-59.818271-66.039946-77.962107-55.727926-31.270427-123.196634-23.823601-170.435121 13.239361L562.218103 90.984931zM507.706962 135.843097c-22.685613 65.015745 4.090933 138.652329 67.607947 174.277478 55.788194 31.295599 123.331717 23.803463 170.582673-13.357165l-6.256416-22.620389L540.57159 127.31489 507.706962 135.843097z"  horiz-adv-x="1040" />

    
    <glyph glyph-name="xiaoshangpin" unicode="&#58908;" d="M996.899255 465.277552c-52.481781 118.254107-150.327513 213.064205-272.365552 263.918294 33.11609 25.205029 74.327801 40.856856 119.705261 40.856856 107.599756 0 194.824856-84.519865 194.824856-188.782477C1039.06382 537.30012 1022.909985 497.366565 996.899255 465.277552zM561.680889 731.033387l0-46.944405c219.317462-20.548246 390.79376-199.551981 390.79376-417.4532 0-95.59143-33.371708-183.429945-88.927144-253.980466l2.337973 2.265462 86.589171-167.807318-43.28991-41.95636-129.887394 125.859012 2.342129 2.273517c-72.804482-53.840472-163.458609-86.177176-262.1138-86.177176-98.637526 0-189.275027 32.327642-262.074314 86.152004l2.316152-2.248345-129.887394-125.859012-43.28991 41.95636 86.585015 167.807318 2.333817-2.257407c-55.555436 70.546494-88.927144 158.379974-88.927144 253.971404 0 217.901218 171.48565 396.909988 390.802073 417.4532L477.38397 731.02936c-26.717317 1.245501-45.004423 6.347322-45.004423 26.731447 0 29.957466 39.02129 54.239193 87.152363 54.239193 48.135229 0 87.151324-24.281728 87.151324-54.239193C606.681156 737.376681 588.398206 732.27486 561.680889 731.033387zM519.524636 224.675395 519.524636 476.386371l-85.974025-0.499409 0-292.907148 345.334211 0 0.411483 41.69558L519.524636 224.675395zM42.160409 465.281579c-26.011769 32.089014-42.160409 72.022568-42.160409 115.988645 0 104.262613 87.220944 188.782477 194.8207 188.782477 45.37746 0 86.589171-15.647799 119.705261-40.852829C192.486883 678.345784 94.641151 583.53468 42.160409 465.281579z"  horiz-adv-x="1040" />

    
    <glyph glyph-name="xinqingyizhan" unicode="&#58909;" d="M871.821851 399.600291c0.08105 4.016413 0.129887 8.062025 0.129887 12.148919 0 23.448037-19.867576 37.139484-43.829202 37.139484l-701.246452 0c-25.369606 0-43.826085-17.392709-43.826085-37.139484 0-299.255477 219.13562-408.521237 219.13562-408.521237s15.088759-37.143512 175.310574-37.143512c155.351557 0 175.318887 37.143512 175.318887 37.143512s29.11348 14.749669 66.113723 47.895899c103.732229 12.741966 319.10631 60.436491 319.10631 236.831421C1038.036151 417.229615 944.299017 418.182116 871.821851 399.600291zM762.245729 95.751464c43.339786 51.324298 86.700355 125.925466 102.973687 228.468341 43.639047 11.854912 89.77401 5.094773 89.77401-76.502142C954.994465 151.308653 835.736016 111.272397 762.245729 95.751464zM868.584018-33.911511c-44.494226 0-43.709706-80.463177-391.764279-80.463177s-354.001337 80.463177-391.760122 80.463177c-43.327317 0-43.535137-36.53234-43.535137-80.463177 0 0 2.927142-80.467204 435.295259-80.467204 432.363961 0 435.291103 80.467204 435.291103 80.467204C912.110843-72.47572 913.078244-33.911511 868.584018-33.911511zM497.726415 488.522201c-72.350396 222.728163 44.677107 148.698899-24.717051 322.470927C497.726415 717.188896 313.168897 700.902739 497.726415 488.522201zM221.652318 650.474557c-30.002949-45.547873 21.843942-51.683752-13.714031-121.456968C300.475262 571.926451 207.937248 615.141402 221.652318 650.474557zM678.255344 650.458447c-29.214273-60.704319 21.283868-68.879113-13.35762-161.882882C755.040615 545.774962 664.898764 603.369053 678.255344 650.458447z"  horiz-adv-x="1039" />

    
    <glyph glyph-name="yuancailiao" unicode="&#58910;" d="M304.799993 95.567206c4.060799 0 20.043183-5.762329 24.029168-5.965717-17.514016 7.638132-32.040622 48.084184-32.040622 93.688442 16.023948 112.718325 43.242111 253.423666 50.331885 313.535944-2.057416 0.088605-4.034822 0.380598-6.122372 0.380598-48.442802 0-90.84636-23.900123-100.126555-55.648814L130.948314 5.134989C163.110511 58.498203 228.004331 95.567206 304.799993 95.567206zM304.635815 67.742296c-110.509234 0-183.753255-75.92017-166.933357-154.051431 13.997705-65.029841 87.84752-110.252495 166.933357-110.252495 79.09311 0 152.942926 45.22366 166.936474 110.252495C488.393226-8.177874 415.148166 67.742296 304.635815 67.742296zM713.328058 89.601489c5.082234 0.332268 18.83575 5.965717 24.032285 5.965717 75.008411 0 138.553481-35.41874 171.45136-86.788347L802.513938 444.497725c-9.281234 31.748691-50.834809 53.714613-99.273455 53.714613-2.00754 0-3.913247-0.283938-5.889614-0.365495 8.602702-69.027124 32.37833-194.355514 48.020928-298.94536C745.372837 135.552111 725.149889 100.358911 713.328058 89.601489zM737.200322 67.742296c-110.512351 0-183.757411-75.92017-166.936474-154.051431 13.997705-65.029841 87.84752-110.252495 166.936474-110.252495s152.935652 45.22366 166.936474 110.252495C920.957733-8.177874 847.712673 67.742296 737.200322 67.742296zM521.082246 370.657753c84.00701 0 155.180106-39.756345 192.021366-97.412862L633.224944 749.543724l-2.251728 0c-10.39307 35.636224-55.639603 62.456276-109.892009 62.456276-54.256562 0-99.502056-26.820052-109.895126-62.456276l-2.247571 0L326.363378 269.157997C362.381672 329.052791 435.066658 370.657753 521.082246 370.657753zM707.871748 166.510407c18.83575 87.700574-63.19801 172.919207-186.969266 172.919207-123.774373 0-205.809173-85.219641-186.969266-172.919207 15.673772-72.988158 98.386064-123.749615 186.969266-123.749615C609.478411 42.760792 692.190703 93.521242 707.871748 166.510407z"  horiz-adv-x="1024" />

    
    <glyph glyph-name="gerenziliao" unicode="&#58911;" d="M652.132392 435.106629l130.523322 0 0-64.442835-130.523322 0 0 64.442835ZM652.726756 309.837644l194.812387 0 0-64.965402-194.812387 0 0 64.965402ZM925.281424 685.625469 118.525884 685.625469c-55.222924 0-115.245448-54.090176-115.245448-111.676212 0-57.581002 0-493.935204 0-593.086934 0-59.89278 58.213452-111.671178 115.245448-111.671178l806.755541 0c57.038231 0 115.256878 54.0791 115.256878 111.671178 0 44.492671 0 538.990717 0 593.086934C1040.538302 628.045474 982.307186 685.625469 925.281424 685.625469zM796.152573-67.288314c-86.438502 0-463.487058 0-548.121684 0-117.054519 0-115.256878 0-115.256878 111.665136 0 78.525955 0 321.361354 0 403.371086 0 111.682253 0 111.682253 115.256878 111.682253 88.236143 0 465.279504 0 548.121684 0 115.245448 0 115.245448 1.746923 115.245448-111.682253 0-118.455482 0-319.613424 0-368.666219C911.396982-29.106718 913.200858-67.288314 796.152573-67.288314zM530.014342 218.960389c35.14649 28.922401 57.454909 72.04774 57.454909 120.227577 0 87.081347-72.85332 157.675164-162.721888 157.675164s-162.721888-70.593817-162.721888-157.675164c0-47.896906 22.045528-90.800733 56.833528-119.718099C246.217661 182.705945 196.625615 109.030093 196.625615 24.119562c0-10.591288 0.788676-21.003352 2.279784-31.195918l67.276474 0c-2.291214 10.505703-3.505921 21.398046-3.505921 32.564257 0 83.058893 66.67068 151.015712 150.982146 156.395429 3.665942-0.239636 7.360978-0.372543 11.088227-0.372543 3.625417 0 7.219661 0.126866 10.785849 0.353412 84.16807-5.522693 150.678729-73.418093 150.678729-156.377306 0-11.167218-1.214707-22.058554-3.505921-32.564257l66.262314 0c1.492146 10.192566 2.279784 20.603624 2.279784 31.195918C651.250197 108.640434 602.111198 182.02832 530.014342 218.960389zM424.747364 246.393626c-52.889108 0-95.764417 41.545557-95.764417 92.794339s42.875309 92.794339 95.764417 92.794339c52.890147 0 95.764417-41.545557 95.764417-92.794339S477.637511 246.393626 424.747364 246.393626z"  horiz-adv-x="1041" />

    
    <glyph glyph-name="wodezhuye" unicode="&#58912;" d="M1019.979725 360.014108c0 0-46.756344 47.653243-110.222442 112.018548L909.757283 749.917273 780.925614 749.917273l0-147.61047C723.905048 659.761946 667.945403 715.815522 627.560814 755.517496c-77.693443 75.299937-135.501646 75.90406-215.641129-1.760012C286.57835 630.532449 19.209826 360.016122 19.209826 360.016122c-25.378958-25.049971-24.007347-67.025462 3.073655-93.744827 27.074767-26.726413 69.608213-28.072601 94.987171-3.023637l14.255401 14.942989 0-473.159405 129.875964 0L261.402017 414.319755l259.234456 271.720546L780.925614 411.795526l0-606.766298 128.826473 0L909.752088 276.061112l12.163695-12.815468c25.390388-25.049971 67.913442-23.702776 94.992366 3.023637C1043.987072 292.99066 1045.364918 334.965144 1019.979725 360.014108z"  horiz-adv-x="1039" />

    
    <glyph glyph-name="kantazhuanlan" unicode="&#58913;" d="M964.76927-195.554758c-60.917188 0-712.305584 0-712.305584 0s-74.980356-0.664536-74.980356 72.654884l0 72.657904 74.980356 0c0-22.802632 0-36.330966 0-36.330966s-2.305761-36.326938 37.486541-36.326938c30.460152 0 605.923653 0 637.329385 0 39.191703 0 37.489658 36.326938 37.489658 36.326938s0 760.074658 0 789.594134c0 37.67514-37.489658 36.323918-37.489658 36.323918L289.950227 739.345116c0 0-37.486541 1.645229-37.486541-36.323918 0-12.430843 0-143.325223 0-290.621549l-74.980356 0L177.48333 739.345116c0 70.696518 74.980356 72.654884 74.980356 72.654884l712.305584 0c0 0 74.980356-2.54638 74.980356-72.654884l0-862.24499C1039.748587-122.899874 1042.418032-195.554758 964.76927-195.554758zM397.035629 543.700806c-43.863492 0-41.539028 36.326938 0 36.326938l236.358688 0c42.026365 0 42.026365-36.326938 0-36.326938L397.035629 543.700806zM819.888715 398.395066 396.80391 398.395066c-43.691002 0-41.377967 36.323918 0 36.323918l423.085844 0C861.746746 434.718983 861.746746 398.395066 819.888715 398.395066zM204.678633 336.231789l0-2.350039-102.174619-99.009761c-14.823788-14.36001-24.518584-25.784988-30.07049-36.323918l404.97019 0 0-36.330966L72.545746 162.217105c5.525929-10.483552 15.104345-21.934709 29.958268-36.323918l102.174619-99.009761 0-2.342991c0 0-5.717124-25.400362-27.195303-7.632091L65.010199 125.893187c-35.987121 34.871001-35.987121 74.1078 0 108.977795l112.473131 108.984843C198.96151 361.621076 204.678633 336.231789 204.678633 336.231789z"  horiz-adv-x="1040" />

    
    <glyph glyph-name="biaodan" unicode="&#58914;" d="M260.062618 245.096775l0.006235 0c0 0-32.483279 0.447051-32.483279-15.291367 0-15.735397 32.483279-15.291367 32.483279-15.291367l-0.006235 0c0 0 32.480161 0.415838 32.480161 15.291367C292.542779 244.684964 260.062618 245.096775 260.062618 245.096775zM422.448877 623.180268l194.863303 0c0 0 32.480161-0.984721 32.480161 31.469787 0 32.451488-32.480161 31.469787-32.480161 31.469787L422.448877 686.119843c0 0-32.473927 0-32.473927-31.469787C389.97495 623.180268 422.448877 623.180268 422.448877 623.180268zM260.062618 496.853061l0.006235 0c0 0-32.483279 0.447051-32.483279-15.285325 0-15.738418 32.483279-15.294387 32.483279-15.294387l-0.006235 0c0 0 32.480161 0.415838 32.480161 15.294387C292.542779 496.438229 260.062618 496.853061 260.062618 496.853061zM260.062618 370.976931l0.006235 0c0 0-32.483279 0.444031-32.483279-15.291367 0-15.735397 32.483279-15.291367 32.483279-15.291367l-0.006235 0c0 0 32.480161 0.415838 32.480161 15.291367C292.542779 370.558073 260.062618 370.976931 260.062618 370.976931zM909.606614 812 130.153403 812c-65.974483 0-64.954088-62.936554-64.954088-62.936554l0-881.162103c0-61.960895 64.954088-62.939575 64.954088-62.939575l779.453211 0c61.91784 0 64.954088 62.939575 64.954088 62.939575L974.560702 749.063446C974.561741 749.063446 974.564858 812 909.606614 812zM942.087814 749.060425l0-881.159083c0-30.211197-32.480161-31.469787-32.480161-31.469787L130.153403-163.568445c0 0-32.473927-1.132731-32.473927 31.469787L97.679476 749.060425c0 0 2.026243 31.469787 32.473927 31.469787l779.453211 0C946.017687 780.530213 942.087814 749.060425 942.087814 749.060425zM779.701555 496.853061 357.501023 496.853061c0 0-32.477044 0.447051-32.477044-15.285325 0-15.738418 32.477044-15.294387 32.477044-15.294387L779.701555 466.273348c0 0 32.473927 0.415838 32.473927 15.294387C812.175482 496.438229 779.701555 496.853061 779.701555 496.853061zM779.701555 370.976931 357.501023 370.976931c0 0-32.477044 0.444031-32.477044-15.291367 0-15.735397 32.477044-15.291367 32.477044-15.291367L779.701555 340.394198c0 0 32.473927 0.415838 32.473927 15.291367C812.175482 370.558073 779.701555 370.976931 779.701555 370.976931zM779.701555 245.096775 357.501023 245.096775c0 0-32.477044 0.447051-32.477044-15.291367 0-15.735397 32.477044-15.291367 32.477044-15.291367L779.701555 214.514042c0 0 32.473927 0.415838 32.473927 15.291367C812.175482 244.684964 779.701555 245.096775 779.701555 245.096775z"  horiz-adv-x="1024" />

    
    <glyph glyph-name="daoxiang" unicode="&#58915;" d="M486.489596 748.983903l65.036177 0 0.009352 31.506035c0 0 6.100551 31.510062-32.518608 31.510062-38.616042 0-32.521725-31.510062-32.521725-31.510062L486.489596 748.983903zM876.749259 402.33697 551.525773 402.33697l0 94.538242 390.266937 0-65.039294 126.048304 65.039294 126.054346L161.278579 748.977862 31.1896 622.926537l130.088979-126.051325 325.211017 0 0-94.538242L161.278579 402.33697l65.046568-126.054346-65.046568-126.045284 325.211017 0 0-346.637871 65.036177 0L551.525773 150.238347l325.223486 0 97.564136 126.048304L876.749259 402.33697zM161.278579 528.391315l-97.567254 94.535221 97.567254 94.541263 747.992406 0-65.036177-94.544283 65.036177-94.532201L161.278579 528.391315zM193.800304 181.750424l65.046568 94.532201-65.046568 94.544283 292.689292 0 0-189.070443 65.036177 0 0 189.070443 325.223486 0 65.042411-94.541263-65.042411-94.535221L193.800304 181.750424z"  horiz-adv-x="1024" />

    
    <glyph glyph-name="fatie" unicode="&#58916;" d="M973.214028 466.221998l-32.437558-31.431526 0 0-32.443793-31.437568 0 0L519.04665 26.140354l-162.205455-31.434547 32.443793 157.171728L843.449248 591.962199c0 0 31.428593 32.41524 64.884468 0 29.397154-28.489446 36.49524-35.366382 64.881351-62.872114C1006.666786 496.671824 973.214028 466.221998 973.214028 466.221998zM389.284987 26.140354l129.761663 31.434547-97.322026 94.303641L389.284987 26.140354zM519.04665 89.009448l356.845352 345.778002-64.884468 62.869094L454.162182 151.877535 519.04665 89.009448zM875.888884 560.524631l-32.437558-31.431526 64.884468-62.869094 32.440675 31.434547L875.888884 560.524631zM208.538886 623.393725l395.88119 0c44.388237 0 44.388237-31.431526 0-31.431526L208.538886 591.962199C162.207533 591.962199 164.656689 623.393725 208.538886 623.393725zM208.350809 434.790471c-46.143276 0-43.703471 31.431526 0 31.431526l391.79753 0-34.467958-31.431526L208.350809 434.790471zM843.449248 749.133927c0 31.434547-32.44691 31.434547-32.44691 31.434547L64.876155 780.568474c0 0-32.443793 0-32.443793-31.434547 0-31.431526 0-880.163286 0-880.163286s0-31.437568 32.443793-31.437568c32.440675 0 712.67966 0 746.125144 0 33.458993 0 32.44691 31.437568 32.44691 31.437568s0 179.97436 0 377.209529l32.440675 31.434547 0-408.647096c0 0 0-62.866073-64.887586-62.866073-64.874077 0-746.125144 0-746.125144 0s-64.878234 0.01611-64.878234 62.866073L-0.002079 749.130906c0 62.39083 64.878234 62.869094 64.878234 62.869094l746.125144 0c0 0 64.887586-0.478264 64.887586-62.869094l0-31.434547-32.440675-29.58593C843.449248 722.242387 843.449248 744.554672 843.449248 749.133927z"  horiz-adv-x="1025" />

    
    <glyph glyph-name="faxiaoxi" unicode="&#58917;" d="M975.025309 686.650465 65.007212 686.650465c-66.025399 0-65.008121-62.985891-65.008121-62.985891l0-692.840774c0-62.006204 65.008121-62.985891 65.008121-62.985891l910.018097 0c61.962521 0 65.001886 62.985891 65.001886 62.985891L1040.027195 623.665581C1040.027195 623.665581 1040.030313 686.650465 975.025309 686.650465zM1007.526252 623.665581l0-692.840774c0-30.233349-32.500943-31.489925-32.500943-31.489925L65.007212-100.665118c0 0-32.504061-1.139779-32.504061 31.489925L32.503152 623.665581c0 0 2.028322 31.492946 32.504061 31.492946l910.018097 0C1011.46236 655.157519 1007.526252 623.665581 1007.526252 623.665581zM552.522399 277.241167c-31.216617-19.661191-40.02506-16.637555-65.005004 0C462.546804 293.878721 162.506924 529.186744 162.506924 529.186744l-32.490552-0.003021c0 0 330.958275-290.725257 357.498945-314.924421 23.186458-20.50193 41.5941-19.661191 65.008121-0.003021 23.409865 19.664212 390.00924 314.927441 390.00924 314.927441l-32.500943 0C910.030696 529.183724 583.742133 296.902358 552.522399 277.241167z"  horiz-adv-x="1041" />

    
    <glyph glyph-name="huida" unicode="&#58918;" d="M935.71398 39.633447c0 0-172.194316 0-207.932053 0-35.740854 0-103.967065-100.739567-103.967065-100.739567l-34.659152 100.739567c-38.277295 0-69.315187 30.072249-69.315187 67.162396L519.840523 375.446437c0 37.090148 31.037892 67.162396 69.315187 67.162396l346.55827 0c38.280413 0 69.31207-30.072249 69.31207-67.162396l0-268.6516C1005.02605 69.705696 973.995432 39.633447 935.71398 39.633447zM970.370015 375.446437c0 32.527003-34.656035 33.577171-34.656035 33.577171s-309.736753 0-346.55827 0c-36.8184 0-34.656035-33.577171-34.656035-33.577171s0-235.067381 0-268.6516c0-33.581198 34.656035-33.581198 34.656035-33.581198l34.659152-33.581198 0-33.581198c0 0 70.392733 67.162396 103.967065 67.162396 33.568098 0 175.445657 0 207.932053 0 32.49367 0 34.656035 33.581198 34.656035 33.581198S970.370015 342.910372 970.370015 375.446437zM866.409184 207.535411c-19.140206 0-34.656035 15.034614-34.656035 33.581198 0 18.546584 15.515829 33.581198 34.656035 33.581198 19.140206 0 34.656035-15.034614 34.656035-33.581198C901.065219 222.569018 885.550429 207.535411 866.409184 207.535411zM762.442118 207.535411c-19.140206 0-34.656035 15.034614-34.656035 33.581198 0 18.546584 15.515829 33.581198 34.656035 33.581198s34.656035-15.034614 34.656035-33.581198C797.098153 222.569018 781.582325 207.535411 762.442118 207.535411zM658.475053 207.535411c-19.140206 0-34.656035 15.034614-34.656035 33.581198 0 18.546584 15.515829 33.581198 34.656035 33.581198 19.140206 0 34.656035-15.034614 34.656035-33.581198C693.130049 222.569018 677.615259 207.535411 658.475053 207.535411zM222.784936 610.510797l388.259397 0c47.423446 0 47.423446-33.577171 0-33.577171l-388.259397 0C173.28537 576.932619 175.90286 610.510797 222.784936 610.510797zM222.580233 442.608833l227.952376 0 0-33.584219L222.580233 409.024614C173.28537 409.024614 175.895587 442.608833 222.580233 442.608833zM866.392558 744.841631c0 33.577171-34.656035 33.577171-34.656035 33.577171L69.311031 778.418802c0 0-34.659152 0-34.659152-33.577171 0-33.584219 0-873.10914 0-873.10914s0-33.581198 34.659152-33.581198c34.651878 0 726.691912 0 762.425493 0 35.743972 0 34.656035 33.581198 34.656035 33.581198s0 12.314046 0 33.581198l34.659152 0 0-33.581198c0 0 0-67.162396-69.315187-67.162396-69.304796 0-762.42861 0-762.42861 0s-69.307913 0.020137-69.307913 67.162396L0 744.841631c0 66.644864 69.307913 67.158369 69.307913 67.158369l762.42861 0c0 0 69.315187-0.513505 69.315187-67.158369l0-235.073422-34.659152 0C866.392558 636.025943 866.392558 733.833498 866.392558 744.841631z"  horiz-adv-x="1024" />

    
    <glyph glyph-name="lianxi" unicode="&#58919;" d="M1028.804473 39.956574c-1.574235 1.506281-3.398892 2.853475-5.194455 4.043597l-0.056111 0.303069L800.473936 198.841949l-0.296143-0.175196c-14.888208 10.65069-35.84891 9.578371-49.486043-3.593526-1.252114-1.273693-2.404474-2.722581-3.494489-4.228862l0-0.029199c-0.721135-0.854834-1.376806-1.681475-1.946232-2.662169-14.959905-20.751628-14.828979-23.388625-26.933442-41.455932-17.197086-26.098117-37.002309-66.376008-56.616338-112.172565-62.683636 9.370956-155.980163 62.083715-258.020707 161.026991-102.087303 98.866754-156.503869 189.291896-166.041758 249.970017 47.203142 19.037932 88.727609 38.267169 115.785743 54.844306 18.478294 11.761269 21.198655 11.646486 42.749565 26.091069 0.872843 0.651446 1.762311 1.203212 2.727634 1.857678 0 0 0.085206 0 0.085206 0.098673 1.416292 1.014927 2.993644 2.084224 4.298752 3.38913 13.534262 13.101416 14.630511 33.413041 3.741795 47.970392l0 0.248697L247.677518 796.226027l-0.359528 0c-1.31446 1.768066-2.638272 3.478742-4.23225 5.087723-13.708831 13.171897-35.154791 14.138494-50.120931 3.05787C86.14441 733.37709-10.525032 655.437159 2.163403 563.161388c13.557123-99.019799 135.314567-317.087083 294.512819-471.321717 159.250207-154.259806 384.382398-272.289344 486.430216-285.317258 95.229251-12.383516 175.670047 81.242471 248.956648 184.823398C1043.481744 5.909205 1042.539281 26.60042 1028.804473 39.956574zM813.94897-161.976596c-298.500881 0-780.214626 491.706842-780.214626 753.020277 0 78.794765 186.305224 192.492741 186.305224 192.492741l164.688851-223.409746c0 0-29.301548-22.829811-172.92267-104.723727-50.598917-28.854932 200.893132-400.949434 455.982542-447.828377 29.324408-5.38475 70.410375 169.554188 112.192539 169.554188 32.934238 0 200.715446-130.651683 230.560443-159.581123C1010.540233-16.030531 873.648315-161.976596 813.94897-161.976596z"  horiz-adv-x="1040" />

    
    <glyph glyph-name="shanchu" unicode="&#58920;" d="M520.024443-33.025464c18.52506 0 33.541081 14.550309 33.541081 32.500824L553.565525 389.485254c0 17.950516-15.016022 32.503845-33.541081 32.503845-18.520903 0-33.541081-14.554336-33.541081-32.503845l0-390.010901C486.483362-18.475155 501.50354-33.025464 520.024443-33.025464zM704.497793-33.022443c9.267725 0 16.774178 14.550309 16.774178 32.503845L721.271971 389.488275c0 17.947495-7.506452 32.500824-16.774178 32.500824-9.260452 0-16.766904-14.554336-16.766904-32.500824L687.73089-0.518598C687.72985-18.472135 695.236303-33.022443 704.497793-33.022443zM335.547976-33.022443c9.260452 0 16.77106 14.550309 16.77106 32.503845L352.319036 389.488275c0 17.947495-7.50957 32.500824-16.77106 32.500824s-16.77106-14.554336-16.77106-32.500824L318.776915-0.518598C318.777954-18.472135 326.287524-33.022443 335.547976-33.022443zM956.059541 649.495878 721.270932 649.495878 721.270932 746.998351c0 0 0 65.001649-67.079046 65.001649L385.863235 812c-68.131653 0-67.08528-65.001649-67.08528-65.001649l0-97.502473L83.990384 649.495878c-18.521942 0-33.537964-14.550309-33.537964-32.500824 0-17.950516 15.016022-32.500824 33.537964-32.500824l33.541081 0 0-715.026193c0 0-1.046373-64.998628 67.08528-64.998628 68.125418 0 600.590996 0.003021 670.822668 0.003021 70.225438 0 67.079046 65.001649 67.079046 65.001649L922.51846 584.494229l33.541081 0c18.52506 0 33.544199 14.550309 33.544199 32.500824C989.60374 634.945569 974.583562 649.495878 956.059541 649.495878zM385.863235 779.502196l268.328652 0c33.537964 0 33.537964-32.503845 33.537964-32.503845l0-97.502473-335.410815 0L352.319036 746.998351C352.319036 746.998351 351.272663 779.502196 385.863235 779.502196zM888.977378-130.524917c0 0-1.04949-32.500824-33.537964-32.500824L184.616746-163.025741c-34.590572 0-33.544199 32.500824-33.544199 32.500824L151.072547 584.491208l737.907948 0L888.977378-130.524917z"  horiz-adv-x="1024" />

    
    <glyph glyph-name="shezhi" unicode="&#58921;" d="M649.096144 340.279415l-97.364629 0 0-31.441595L194.721985 308.83782l0-31.451664 357.009529 0 0-31.451664 97.364629 0 0 31.451664 194.726142 0 0 31.451664L649.096144 308.83782 649.096144 340.279415zM973.644216 749.106741 64.909407 749.106741c-35.845803 0-64.909407-28.159192-64.909407-62.896279l0-817.654653c0-34.738094 29.063603-62.896279 64.909407-62.896279l908.73481 0c35.84996 0 64.909407 28.159192 64.909407 62.896279L1038.553623 686.210462C1038.554662 720.947549 1009.494176 749.106741 973.644216 749.106741zM973.641099-162.886793 64.906289-162.886793c-35.84996 0-32.45834 31.448643-32.45834 31.448643L32.447949 528.975301l973.641099 0 0-660.413451C1006.089048-131.43815 1009.487941-162.886793 973.641099-162.886793zM1006.089048 654.76786l0-94.347943L32.447949 560.419917l0 94.347943c0 0-3.39162 31.445623 32.45834 31.445623l908.73481 0C1009.487941 686.213482 1006.089048 654.76786 1006.089048 654.76786zM389.457479 151.58957l-97.364629 0 0-31.441595-97.370864 0 0-31.451664 97.370864 0 0-31.451664 97.364629 0 0 31.451664 454.364807 0 0 31.451664L389.457479 120.147975 389.457479 151.58957z"  horiz-adv-x="1039" />

    
    <glyph glyph-name="shuaxin" unicode="&#58922;" d="M520.20109-196.146799c-287.300524 0-520.20109 225.677292-520.20109 504.070379s232.903683 504.070379 520.20109 504.07642c155.034632-0.003021 293.293009-66.493833 388.539954-170.789673 2.298487 6.392631 2.275627 11.99084 2.275627 11.99084L911.016671 807.535529c0 0 31.855663 4.464471 31.855663-30.868685-0.006235-31.832261 0-154.334362 0-154.334362s-0.006235-30.864657-31.855663-30.861637c-0.178725 0-127.197166-0.003021-159.278313-0.003021-36.459911 0-31.856702 30.864657-31.856702 30.864657s126.430311 0 159.28143 0.003021c1.014161 0 1.716592 0.270849 2.666328 0.327233C792.571837 718.998245 663.68094 780.079134 519.700244 780.221103 250.50914 780.491951 32.509256 569.257233 32.788774 308.414934c0.273283-260.8423 218.736606-474.943583 487.91524-472.789883 247.946722 1.984545 456.79526 184.722769 487.194106 440.793502 0.452008-6.613136 0 6.360411 0 0 0 31.129465 25.714587 29.359384 31.303901 8.335894C1026.619569 17.198323 799.435087-196.146799 520.20109-196.146799z"  horiz-adv-x="1040" />

    
    <glyph glyph-name="sousuo" unicode="&#58923;" d="M224.148234 600.614251l24.911363-21.621571c-49.756224-46.07044-81.085063-110.519316-82.314317-182.186458l-33.376904-1.442848C134.187186 475.882935 168.803735 548.473379 224.148234 600.614251zM799.295848 37.48881c60.600262-56.029412 176.924295-171.437092 199.823962-193.626539 22.89655-22.186427-15.612465-49.410235-33.304167-32.268237-17.690663 17.146025-185.147726 179.40145-233.128129 225.894776-57.182665 55.413206 0 96.816794 0 96.816794l-6.217969-4.01742c65.682496 69.004972 106.13047 160.907223 106.13047 262.186474 0 213.87373-178.9256 387.254085-399.648963 387.254085-220.716089 0-399.644807-173.380355-399.644807-387.254085 0-213.876751 178.929756-387.254085 399.644807-387.254085 72.882414 0 140.996403 19.208099 199.823962 52.227463l0-36.920993c-59.813664-30.238383-127.684504-47.580748-199.823962-47.580748-239.11334 0-432.95313 187.827963-432.95313 419.528363S193.837712 812 432.951052 812c239.116457 0 432.956247-187.824942 432.956247-419.525342 0-82.365158-25.035016-158.78373-67.413636-223.525606 0.156904-0.961563 0.802185-1.170992 0.802185-2.375211-4.266541-5.14713-7.546977-9.203818-11.20045-13.660234-3.546445-4.914543-7.596854-9.439426-11.35008-14.19891C741.836782 94.031726 749.023192 86.202289 799.295848 37.48881z"  horiz-adv-x="1025" />

    
    <glyph glyph-name="xinxi" unicode="&#58924;" d="M519.120427 812c-286.703042 0-519.122505-225.205069-519.122505-503.016184s232.419463-503.022225 519.122505-503.022225c286.699925 0 519.119388 225.21111 519.119388 503.022225S805.820352 812 519.120427 812zM519.120427-162.595807c-268.783777 0-486.677673 211.139065-486.677673 471.58063 0 260.450626 217.893896 471.58063 486.677673 471.58063 268.78066 0 486.6704-211.130004 486.6704-471.58063C1005.791866 48.543259 787.901087-162.595807 519.120427-162.595807zM535.509099 560.497446c0 0-5.576845 0-32.114398 0-16.715988 0-16.057199-15.722308-16.057199-15.722308s0-5.265941 0-31.438574c0-15.169535 16.057199-15.716267 16.057199-15.716267s4.324731 0 32.114398 0c15.930429 0 16.057199 15.716267 16.057199 15.716267s0 5.461274 0 31.438574C551.566298 560.160144 535.509099 560.497446 535.509099 560.497446zM535.339726 434.7361l-32.441715 0c0 0-16.219299-0.977673-16.219299-31.429513l0-314.389772c0-28.492467 16.219299-31.441595 16.219299-31.441595l32.441715 0c0 0 16.225533 0.641378 16.225533 31.441595 0 113.30231-0.003117 290.049645-0.003117 314.389772C551.562142 432.777734 535.339726 434.7361 535.339726 434.7361z"  horiz-adv-x="1039" />

    
    <glyph glyph-name="yingyong" unicode="&#58925;" d="M603.65426 357.049877l-33.532769 32.496797L570.121491 779.507231l33.532769 32.492769 402.438944 0 33.536925-32.492769 0-389.960557-33.536925-32.496797L603.65426 357.049877zM1006.092165 779.507231 603.65426 779.507231l0-389.960557 402.438944 0L1006.093204 779.507231zM1039.62909 292.054269l0-454.950123-33.532769-32.496797L536.584566-195.392652l-33.536925 0L33.532769-195.392652l-33.532769 32.496797L0 292.054269l0 32.499818L0 779.500182l33.532769 32.499818 469.514873 0 33.536925-32.499818 0-454.947103 469.511755 0L1039.62909 292.054269zM503.047641 779.500182 33.532769 779.500182l0-454.947103 469.514873 0L503.047641 779.500182zM503.047641 292.054269 33.532769 292.054269l0-454.950123 469.514873 0L503.047641 292.054269zM536.584566-162.895855l469.511755 0L1006.096322 292.054269 536.584566 292.054269 536.584566-162.895855z"  horiz-adv-x="1040" />

    
    <glyph glyph-name="shijian" unicode="&#58926;" d="M520.545774 812c-287.48811 0-520.54785-225.830523-520.54785-504.403364 0-278.578877 233.058702-504.403364 520.54785-504.403364 287.492263 0 520.550965 225.824487 520.550965 504.403364C1041.096739 586.169476 808.038036 812 520.545774 812zM520.545774-165.283278C251.026709-165.283278 32.532424 46.430511 32.532424 307.597642c0 261.161094 218.493247 472.874883 488.01335 472.874883 269.526332 0 488.01335-211.713789 488.01335-472.874883C1008.559124 46.430511 790.073144-165.283278 520.545774-165.283278zM845.891813 276.066144l-325.345002 0L520.546812 559.792281c0 17.414764-14.562341 31.52848-32.5345 31.52848-17.964891 0-32.527232-14.113716-32.527232-31.52848l0-315.002084c-0.001038-0.083507-0.00623-0.166008-0.00623-0.250521 0-16.864422 13.672506-30.637066 30.86074-31.481193 0.554459-0.027165 1.112033-0.041251 1.673761-0.041251l357.879502 0c17.964891 0 32.5345 14.113716 32.5345 31.522444C878.425276 261.952428 863.856706 276.066144 845.891813 276.066144z"  horiz-adv-x="1042" />

    
    <glyph glyph-name="wangwang" unicode="&#58927;" d="M505.747221 721.1308c-87.568003 4.367811-149.967985 32.665951-190.583253 48.802084-54.998479 21.852145-91.693226 38.112123-118.21831 38.112123-11.690905 1.985552-16.568436-8.286557-12.981466-11.35651 14.123436-15.916634 99.853272-115.033124 17.75197-171.11892C79.009982 541.740426 0 410.417118 0 262.788524c0-253.130666 232.311397-458.342276 518.876239-458.342276 286.580428 0 518.891825 205.211609 518.891825 458.342276C1037.767025 515.925232 794.066062 706.750653 505.747221 721.1308zM518.791032-165.151248c-269.191104 0-487.411277 192.3901-487.411277 429.711867 0 138.402625 74.216618 261.523952 189.483886 340.120388 77.119861 52.576847 28.039051 145.50208 14.771834 160.424931-3.369799 2.878647 1.212629 12.513406 12.193829 10.646666 24.913441 0 27.938259-15.244044 79.603308-35.732884 38.150525-15.127246 96.761952-41.656312 179.019119-45.751261 270.835998-13.47799 499.757853-192.387079 499.757853-429.708847S787.982136-165.151248 518.791032-165.151248zM567.199545 415.291386l-60.197092-44.0134c0 0 44.925452-16.152242 34.930357-131.247792-0.875961-10.099934 1.174182-17.412846 5.506186-22.050499-5.001184 5.364615 22.587937 5.376697 45.425258 1.253556 21.216326-3.827121 33.095308 4.330557 36.405878 19.485996C638.192877 278.622595 644.955334 361.624096 567.199545 415.291386zM768.890768 470.793197l-52.66674-45.138076c0 0 40.878161-37.775827 34.713185-141.860224-3.535015-10.32648 5.889614-27.283213 17.09422-19.929019 9.456841 0.700783 21.092674 1.564679 31.603162 2.343998 23.197889 2.545373 29.806559 8.079142 35.829178 33.840971C841.388715 341.431277 839.407153 415.103101 768.890768 470.793197z"  horiz-adv-x="1038" />

    
    <glyph glyph-name="yonghu" unicode="&#58928;" d="M993.447368-143.486381c0-11.133992-2.785825-10.302315-1.722826-32.980096 0-24.733813-30.234668-21.645736-30.234668 0 0 21.642716 0 32.980096 0 32.980096 0 198.376962-240.044373 328.440672-342.462141 362.810251 104.40037 31.603701 212.562278 162.955201 212.562278 296.849053 0 132.352331-113.689916 263.859895-280.644055 263.859895S272.399842 650.214784 272.399842 516.166881c0-132.501348 108.655481-263.110782 210.477846-296.843012-99.493744-31.967182-342.474611-166.161082-342.474611-362.810251 0 0 0-11.33738 0-32.980096 0-21.645736-31.957494-30.919028-31.957494 0 0 14.434518 0 21.847111 0 32.980096 0 170.268113 150.692237 306.951001 306.354485 362.810251-97.839498 59.275567-172.2816 182.460327-172.2816 296.849053 0 163.939922 139.242403 294.819199 308.429566 294.819199 169.19028 0 310.513999-130.879277 310.513999-294.819199 0-114.389732-76.517183-237.573485-174.353564-296.849053C842.771756 163.464619 993.447368 26.781732 993.447368-143.486381z"  horiz-adv-x="1024" />

    
    <glyph glyph-name="yuyin" unicode="&#58929;" d="M545.790963 57.854638c0-37.116302 0-251.376533 0-251.376533l-64.859488 0c0 0 0 214.260231 0 251.376533-324.281854 0-324.281854 345.649908-324.281854 345.649908l32.431303 0c0 0 0.029095-314.227463 291.850551-314.227463 23.575067 0 47.179228 0 64.859488 0 293.462193 0 291.853668 314.227463 291.853668 314.227463l32.425068 0C870.0697 403.504545 870.0697 57.854638 545.790963 57.854638zM545.790963 214.966859l-64.859488 0c0 0-129.712742-0.176203-129.712742 125.692797L351.218733 686.306544c0 124.885287 129.712742 125.686756 129.712742 125.686756l64.859488 0c0 0 129.709625 3.126336 129.709625-125.686756L675.500588 340.659657C675.500588 215.770343 545.790963 214.966859 545.790963 214.966859zM643.07552 686.306544c0 93.783028-97.284556 94.264312-97.284556 94.264312l-64.859488 0c0 0-97.284556-0.480278-97.284556-94.264312L383.646919 340.659657c0-93.790076 97.284556-94.273374 97.284556-94.273374l64.859488 0c0 0 97.284556 0 97.284556 94.273374C643.07552 402.517812 643.07552 686.306544 643.07552 686.306544z"  horiz-adv-x="1024" />

    
    <glyph glyph-name="anonymous-iconfont" unicode="&#58930;" d="M521.46983 812c-287.424177 0-520.430731-225.776972-520.430731-504.289877s233.006554-504.289877 520.430731-504.289877c287.427294 0 520.430731 225.776972 520.430731 504.289877S808.897124 812 521.46983 812zM521.46983-165.062643c-269.463348 0-487.90381 211.666666-487.90381 472.77176S252.006482 780.481883 521.46983 780.481883 1009.37364 568.815216 1009.37364 307.710123 790.933178-165.062643 521.46983-165.062643zM619.04124 213.164833c0 30.279665 15.928351 91.862983 41.904791 173.491111l55.675972 141.690062 0 31.518117-56.607004-41.95334C640.950646 560.381656 607.604915 581.624643 559.959102 581.624643c-37.734886 0-81.190012-15.512878-130.361223-46.539642-49.174328-31.026764-89.485141-71.660094-120.928281-121.886902-31.444179-50.233856-47.170945-103.048325-47.170945-158.451462 0-44.320496 0.540332-83.690202 23.979291-114.162179 23.448311-30.471977 63.114882-43.734496 96.663238-43.734496 34.302741 0 67.55807 12.559723 99.773261 37.674133 32.2048 25.110383 67.369993 64.076333 105.491424 116.897851 0-103.048325 24.958122-154.570977 85.191583-154.570977 24.01462 0 49.171211 8.496994 75.468732 25.482926 26.304795 16.984925 69.94592 53.549486 130.936884 109.695695C879.003066 232.028582 619.04124 7.241365 619.04124 213.164833zM567.625575 253.86059c-57.321905-80.336311-118.372097-120.50346-183.132912-120.50346-26.567687 0-48.426177 7.888843-65.57443 23.679618-17.171113 15.780706-26.766155 58.069335-26.766155 83.509972 0 67.372833 7.637379 113.524829 65.609759 193.628553 57.956794 80.093655 141.693638 126.056359 206.464845 126.056359 27.205694 0 48.897928-7.41662 65.093327-22.260935 16.181891-14.842302 24.287904-35.458008 24.287904-61.845105C653.606873 408.284563 624.950597 334.187839 567.625575 253.86059z"  horiz-adv-x="1042" />

    
    <glyph glyph-name="baocun" unicode="&#58931;" d="M1040.72219-7.361301c0 0 0.419796-63.0312-65.045529-63.0312-23.728868 0-83.917647 0-162.606548 0l65.042411 31.511069c0 0 86.285754 0.003021 97.564136 0.003021 32.330531 0 32.519647 31.51711 32.519647 31.51711l-0.003117 189.089573 0.009352 31.501L1008.202543 748.9688c0 0-1.78829 31.511069-32.522764 31.511069-30.737592 0-455.316622 0-455.316622 0l-32.532116 0.006041L65.044456 780.48289c0 0-32.525882-0.674604-32.525882-31.51409 0-46.593006 0-756.331108 0-756.331108s0.241071-31.51711 32.525882-31.51711c10.166546 0 97.57141-0.003021 97.57141-0.003021l65.042411-31.511069c-79.017256 0-139.283967 0-162.612782 0-65.370767 0-65.045529 63.0312-65.045529 63.0312L-3.3e-05 748.9688c0 61.666889 65.045529 63.0312 65.045529 63.0312s845.470297-0.006041 910.635322-0.006041c65.161908 0 65.041372-63.025159 65.041372-63.025159L1040.72219-7.361301zM195.125123 654.436599l650.455286 0 0-63.0312L195.125123 591.405399 195.125123 654.436599zM845.580408 433.838977 195.125123 433.838977l0 63.025159 650.455286 0L845.580408 433.838977zM292.705885 87.176941c30.206612 0 97.564136 0 97.564136 0L390.270021 339.284625l31.88164 0 228.298396 0 0-252.107684c0 0 64.879273 0 97.57141 0 32.692137 0 32.519647-31.51711 32.519647-31.51711S585.12605-133.69455 552.88696-164.934771c-32.23909-31.243241-65.045529 0-65.045529 0L260.180003 55.659831C260.180003 55.659831 262.496155 87.176941 292.705885 87.176941zM487.841431-133.420681c0 0 31.228047-32.771673 65.045529 0 33.813325 32.768652 195.135547 189.080511 195.135547 189.080511s-59.054083 0-97.57141 0c-33.855928 0-32.519647 31.51711-32.519647 31.51711L617.931449 307.771542 422.792785 307.771542l0-220.594601c0 0 0.279518-31.51711-32.353391-31.51711-38.529796 0-97.73351 0-97.73351 0L487.841431-133.420681z"  horiz-adv-x="1041" />

    
    <glyph glyph-name="biaoqing" unicode="&#58932;" d="M518.850261-194.53681c-286.55549 0-518.852339 225.092299-518.852339 502.760438S232.294771 810.983059 518.850261 810.983059s518.852339-225.092299 518.852339-502.760438S805.405751-194.53681 518.850261-194.53681zM518.850261 779.560595c-268.64246 0-486.424133-211.024282-486.424133-471.337974s217.781673-471.337974 486.424133-471.337974c268.645577 0 486.424133 211.024282 486.424133 471.337974S787.495838 779.560595 518.850261 779.560595zM713.420538 371.064529c-35.816709 0-64.856413 28.139055-64.856413 62.84795 0 34.705874 29.039704 62.844929 64.856413 62.844929 35.819826 0 64.856413-28.139055 64.856413-62.844929C778.27695 399.203584 749.240364 371.064529 713.420538 371.064529zM745.838353 213.961269c-33.443406-213.028964-417.720975-208.058037-454.002161 0C320.924733 44.970876 720.206894 53.638031 745.838353 213.961269zM324.281024 371.064529c-35.819826 0-64.856413 28.139055-64.856413 62.84795 0 34.705874 29.036587 62.844929 64.856413 62.844929s64.856413-28.139055 64.856413-62.844929C389.137436 399.203584 360.10085 371.064529 324.281024 371.064529z"  horiz-adv-x="1038" />

    
    <glyph glyph-name="chazhao" unicode="&#58933;" d="M1034.166546-4.272217 913.038758 113.906375c18.52506 28.902264 29.235055 62.997973 29.235055 99.519238 0 104.342156-87.29368 188.899274-194.952665 188.899274-107.649633 0-194.952665-84.557119-194.952665-188.899274 0-104.323025 87.303032-188.915384 194.952665-188.915384 46.467475 0 89.132886 15.768624 122.631364 42.071144l118.268187-115.379488c6.342661-6.148968 16.63286-6.148968 22.975521 0l22.972404 22.262949C1040.512325-20.386198 1040.512325-10.418165 1034.166546-4.272217zM584.863191 213.42662c0 86.953474 72.743175 157.41237 162.456917 157.41237s162.460035-70.458896 162.460035-157.41237c0-86.937364-72.746292-157.431501-162.460035-157.431501S584.863191 126.488248 584.863191 213.42662zM637.650467 591.226176 209.109352 591.226176c-44.176261 0-46.645161-31.483884 0-31.483884l428.541115 0C682.340043 559.741285 682.340043 591.226176 637.650467 591.226176zM208.686439 402.322874l321.099302 0c10.472041 11.312208 21.704703 21.922626 33.908923 31.480863l-355.008225 0C164.910231 433.803737 162.463152 402.322874 208.686439 402.322874zM877.285435-40.132974c0-56.844978 0-92.775209 0-92.775209s1.014161-31.487911-32.495748-31.487911c-33.502635 0-747.316991 0-779.809622 0s-32.491591 31.487911-32.491591 31.487911 0 850.076941 0 881.561832 32.491591 31.483884 32.491591 31.483884l779.809622 0c0 0 32.495748 0 32.495748-31.483884 0-11.520631 0-132.734942 0-281.674483 11.216036-5.408917 22.153594-11.270926 32.495748-17.980722L909.781182 748.650628c0 62.49051-64.987339 62.968774-64.987339 62.968774L64.981104 811.619402c0 0-64.981104-0.478264-64.981104-62.968774l0-881.564852c0-62.946623 64.981104-62.965754 64.981104-62.965754s714.834752 0 779.812739 0c64.987339 0 64.987339 62.965754 64.987339 62.965754l0 71.073088-26.072037 25.263428C881.515607-37.686275 879.501833-39.062669 877.285435-40.132974z"  horiz-adv-x="1039" />

    
    <glyph glyph-name="fangda" unicode="&#58934;" d="M130.031829 622.999031c0-63.541684-0.003117-598.501892-0.003117-598.501892s-2.613334-31.496973 32.511334-31.496973c152.750692 0 618.383491-0.003021 682.675672-0.003021 64.295299 0 65.016434 62.999987 65.016434 62.999987s0 161.255601 0 598.50592c0 31.89066-32.508217 31.499994-32.508217 31.499994l-682.675672-0.003021C195.049301 686.000026 130.031829 686.544743 130.031829 622.999031zM845.258321 654.503053c0.296143-0.009062 32.459379-1.118635 32.459379-31.496973 0-30.511245 0-567.001899 0-567.001899s-2.031439-31.499994-32.508217-31.499994L195.042028 24.504187c-32.212074 0-32.501982 30.851568-32.501982 31.402327L162.540045 623.040313c0.02286 28.838831 24.105022 31.32077 30.742787 31.462739L845.258321 654.503053zM32.507178 749.003033c0 0 1.017278 31.493952 32.508217 31.493952 31.494056 0 97.524651 0 97.524651 0l32.508217 31.503014c0 0-98.538811 0-130.033907 0-65.016434 0-65.016434-62.996967-65.016434-62.996967l0-126.000981 32.508217 31.496973L32.506139 749.003033zM65.015395-101.503842c-31.490939 0-32.508217 31.499994-32.508217 31.499994l0 94.499981L-0.001039 55.997133-0.001039-70.002842c0 0 0-62.999987 65.016434-62.999987 31.494056 0 130.033907 0 130.033907 0l-32.508217 31.499994C162.540045-101.503842 96.509451-101.503842 65.015395-101.503842zM975.249624 812c-31.494056 0-130.033907 0-130.033907 0l32.511334-31.503014c0 0 66.027477 0 97.521533 0 31.494056 0 32.508217-31.493952 32.508217-31.493952l0-94.504008 32.508217-31.496973L1040.265019 749.003033C1040.266058 749.003033 1040.266058 812 975.249624 812zM1007.757841-70.002842c0 0-1.014161-31.499994-32.508217-31.499994-31.494056 0-97.521533 0-97.521533 0l-32.511334-31.499994c0 0 98.538811 0 130.033907 0 65.016434 0 65.016434 62.999987 65.016434 62.999987L1040.267097 55.997133l-32.508217-31.499994L1007.75888-70.002842z"  horiz-adv-x="1041" />

    
    <glyph glyph-name="fenxiang" unicode="&#58935;" d="M878.652889 812c-89.863373 0-162.713575-70.590796-162.713575-157.664088 0-9.907621 0.952854-19.597759 2.75673-28.998923L283.342595 413.270594c-29.773308 31.850385-72.792013 51.859954-120.631098 51.859954-89.86649 0-162.710458-70.590796-162.710458-157.667109S72.843968 149.799351 162.710458 149.799351c46.697116 0 88.796218 19.068144 118.47185 49.60154l257.629048-166.425889c-11.579721-21.676949-18.127085-46.28591-18.127085-72.379001 0-87.073292 72.847085-157.667109 162.710458-157.667109 89.86649 0 162.713575 70.593817 162.713575 157.667109 0 87.079333-72.847085 157.667109-162.713575 157.667109-46.699194 0-88.796218-19.068144-118.469772-49.60154L307.297987 235.084439c11.581799 21.675943 18.130202 46.28591 18.130202 72.379001 0 25.351026-6.184718 49.299479-17.157605 70.521322L733.097958 583.807542c26.715239-51.668649 81.856075-87.142766 145.554931-87.142766 89.870646 0 162.717731 70.590796 162.717731 157.671136C1041.369581 741.409204 968.522496 812 878.652889 812zM683.395768 86.725862c71.897348 0 130.171068-56.467401 130.171068-126.133888 0-69.660446-58.274759-126.130868-130.171068-126.130868-71.886957 0-130.16795 56.470422-130.16795 126.130868C553.227817 30.258461 611.508811 86.725862 683.395768 86.725862zM162.710458 181.32653c-71.893192 0-130.16795 56.473442-130.16795 126.136909 0 69.660446 58.274759 126.133888 130.16795 126.133888 71.890075 0 130.16795-56.473442 130.16795-126.133888C292.878408 237.799973 234.600532 181.32653 162.710458 181.32653zM878.652889 528.197996c-71.890075 0-130.16795 56.470422-130.16795 126.136909 0 69.660446 58.277876 126.130868 130.16795 126.130868 71.897348 0 130.171068-56.470422 130.171068-126.130868C1008.823957 584.668418 950.549198 528.197996 878.652889 528.197996z"  horiz-adv-x="1042" />

    
    <glyph glyph-name="fuzhi" unicode="&#58936;" d="M976.249238-39.373792c0 0-3.0456-63.067448-65.082936-63.067448l-65.070467 0 0 31.526172 65.070467 0.006041c0 0 32.538351 1.264631 32.538351 31.535234l0.016626 693.702656c0 0 0.312769 0-65.082936 0-65.38947 0-65.082936 63.064427-65.082936 63.064427L813.555406 780.454697l-585.758894 0.013089c-30.517303 0-32.544585-31.535234-32.544585-31.535234l0.016626-31.532214 455.579514-0.006041 195.249848-189.194288-0.013508-662.170443c0 0-3.0456-63.067448-65.082936-63.067448L65.083975-197.037881c0 0-65.082936 0.983714-65.082936 63.067448L0.001039 654.337926c0 0-1.018317 63.064427 65.082936 63.064427l97.624404-0.003021L162.708379 748.932552c0 0-1.018317 63.067448 65.086053 63.067448l618.300363-0.009062 130.170029-126.129861L976.249238-39.373792zM650.845987 685.861077l0-126.129861c0 0-0.211976-31.532214 32.541468-31.532214 22.275168 0 89.42799 0 130.166911 0L650.845987 685.861077zM65.083975 685.870139c-30.514186 0-32.541468-31.532214-32.541468-31.532214l0-788.309365c0-32.674006 32.541468-31.532214 32.541468-31.532214l715.915415 0c0 0 32.538351 1.25859 32.538351 31.532214l0.016626 630.637222L683.387455 496.665782c0 0-65.082936-0.264807-65.082936 63.064427 0 19.757851 0 126.129861 0 126.129861L65.083975 685.870139zM846.095835 780.454697l0-63.061406c0 0-0.279518-31.532214 32.541468-31.532214 17.552463 0 44.042217 0 65.082936 0L846.095835 780.454697zM455.58367 434.510561 195.257121 434.510561c0 0-32.541468-0.892089-32.541468 30.640125 0 31.535234 32.541468 30.643145 32.541468 30.643145l260.326549 0c0 0 32.544585-0.829663 32.544585-30.643145C488.128256 435.340223 455.58367 434.510561 455.58367 434.510561zM195.257121 307.037533l488.117865 0c0 0 32.547703-0.419866 32.547703-15.321573 0-14.905735-32.547703-15.321573-32.547703-15.321573L195.257121 276.394387c0 0-32.541468-0.448058-32.541468 15.321573C162.715653 307.48257 195.257121 307.037533 195.257121 307.037533zM195.257121 180.908678l488.117865 0c0 0 32.547703-0.412818 32.547703-15.321573 0-14.908755-32.547703-15.321573-32.547703-15.321573L195.257121 150.265533c0 0-32.541468-0.448058-32.541468 15.321573C162.715653 181.352709 195.257121 180.908678 195.257121 180.908678z"  horiz-adv-x="1024" />

    
    </font>
</defs>
</svg>
