<?xml version="1.0" standalone="no"?>
<!DOCTYPE svg PUBLIC "-//W3C//DTD SVG 1.1//EN" "http://www.w3.org/Graphics/SVG/1.1/DTD/svg11.dtd" >
<!--
2013-9-30: Created.
-->
<svg>
<metadata>
Created by iconfont
</metadata>
<defs>

<font id="zw_iconfont" horiz-adv-x="1024" >
  <font-face
    font-family="zw_iconfont"
    font-weight="500"
    font-stretch="normal"
    units-per-em="1024"
    ascent="896"
    descent="-128"
  />
    <missing-glyph />
    
    <glyph glyph-name="zhengque" unicode="&#59039;" d="M34.304 168.928q-32.768 34.816-36.864 63.488t24.576 58.368q4.096 4.096 13.312 12.288t19.456 16.896 19.456 16.896 13.312 12.288q26.624 23.552 52.224 19.968t44.032-24.064q10.24-11.264 27.136-28.16t34.304-35.328 33.792-34.816 25.6-26.624q20.48-20.48 47.616-15.872t50.688 28.16q22.528 22.528 54.784 56.32t70.144 73.216 78.848 82.432 79.872 83.456 73.728 76.288 61.44 62.464q14.336 14.336 29.184 26.624t30.208 18.944 31.232 5.632 32.256-11.264q2.048-2.048 11.776-10.752t20.992-18.944l20.48-20.48 11.264-12.288q14.336-14.336 15.36-30.208t-5.12-31.744-16.896-30.208-20.992-24.576q-31.744-31.744-78.848-79.36t-100.352-102.4-110.592-113.152-110.08-112.64-98.304-100.864-76.288-76.288q-12.288-12.288-31.232-18.944t-39.424-7.168-40.448 4.608-33.28 17.408q-27.648 24.576-58.88 55.296t-61.952 62.464-58.368 60.928-49.152 51.712z"  horiz-adv-x="1028" />

    
    <glyph glyph-name="cuowu" unicode="&#59040;" d="M886.784 65.504q29.696-30.72 43.52-56.32t-4.608-58.368q-4.096-6.144-11.264-14.848t-14.848-16.896-15.36-14.848-12.8-9.728q-25.6-15.36-60.416-8.192t-62.464 34.816l-43.008 43.008-57.344 57.344-67.584 67.584-73.728 73.728-131.072-131.072q-60.416-60.416-98.304-99.328-38.912-38.912-77.312-48.128t-68.096 17.408l-7.168 7.168-11.264 11.264-11.264 11.264q-6.144 6.144-7.168 8.192-11.264 14.336-13.312 29.184t2.56 29.184 13.824 27.648 20.48 24.576q9.216 8.192 32.768 30.72l55.296 57.344q33.792 32.768 75.264 73.728t86.528 86.016q-49.152 49.152-93.696 93.184t-79.872 78.848-57.856 56.832-27.648 27.136q-26.624 26.624-27.136 52.736t17.92 52.736q8.192 10.24 23.552 24.064t21.504 17.92q30.72 20.48 55.296 17.92t49.152-28.16l31.744-31.744q23.552-23.552 58.368-57.344t78.336-76.288 90.624-88.576q38.912 38.912 76.288 75.776t69.632 69.12 58.368 57.856 43.52 43.008q24.576 23.552 53.248 31.232t55.296-12.8q1.024-1.024 6.656-5.12t11.264-9.216 10.752-9.728 7.168-5.632q27.648-26.624 27.136-57.856t-27.136-57.856q-18.432-18.432-45.568-46.08t-60.416-60.416-70.144-69.632l-77.824-77.824q37.888-36.864 74.24-72.192t67.584-66.048 56.32-56.32 41.472-41.984z"  horiz-adv-x="1024" />

    
    <glyph glyph-name="jinggao" unicode="&#59044;" d="M595.02592 695.264q3.072-5.12 20.992-35.328t45.056-76.288 60.928-104.448 69.632-119.296 71.168-120.832 64.512-110.08 50.176-86.016 29.184-49.152q15.36-25.6 18.944-51.2t-3.072-46.08-23.552-33.28-41.472-11.776q-12.288 0-52.224 0.512t-96.256 0.512l-128 0-144.384 0q-73.728 0-146.432-0.512t-135.168-0.512l-109.568 0-69.632 0q-38.912 0-59.904 13.312t-28.16 34.304-1.536 45.568 19.968 46.08q7.168 11.264 28.16 46.08t50.688 84.48 65.536 109.568 72.704 121.856 71.68 120.32 62.464 105.472 46.08 77.824l21.504 35.84q14.336 22.528 37.376 34.304t47.616 11.776 47.616-10.752 37.376-32.256zM569.42592 494.56q0 12.288-5.632 23.04t-14.848 19.456-20.992 13.824-24.064 5.12q-23.552 0-43.52-18.432t-19.968-41.984l0-268.288q0-23.552 19.968-42.496t43.52-18.944q24.576 0 45.056 17.92t20.48 41.472l0 269.312zM503.88992 105.44q-26.624 0-45.568-18.432t-18.944-45.056 18.944-45.568 45.568-18.944 45.056 18.944 18.432 45.568-18.432 45.056-45.056 18.432z"  horiz-adv-x="1044" />

    
    <glyph glyph-name="jianqie" unicode="&#59049;" d="M882.515023 146.366989q33.407092-21.259059 53.653815-56.690823t20.246723-77.949882q0-33.407092-12.654202-62.258672t-34.419428-50.110638-50.616806-33.91326-62.258672-12.654202q-42.518117 0-77.443714 20.246723t-56.184655 52.641479q-4.049345 4.049345-7.086353 8.604857t-8.098689 9.617193q-16.197378 22.271395-20.246723 54.666151t-3.037008 67.320352 2.024672 68.838857-5.061681 60.234q-11.135697 20.246723-25.308403 44.036622t-31.38242 48.085966q-3.037008 4.049345-5.567849 7.086353t-4.555513 6.074017q-19.234386-23.283731-37.456437-46.567462t-37.456437-48.592134q-5.061681-6.074017-8.604857-12.148034t-8.604857-12.148034q-9.111025-19.234386-9.111025-33.407092t3.543176-27.839244 8.098689-27.839244 5.061681-32.900924-5.061681-44.036622-21.765227-60.740168q-17.209714-45.555126-57.703159-74.406705t-92.122588-28.85158q-33.407092 0-62.258672 12.654202t-50.616806 34.419428-34.419428 50.616806-12.654202 62.258672q0 36.444101 15.185042 67.826521t41.505781 53.653815q25.308403 26.320739 53.147647 44.036622t55.172319 32.900924 52.135311 30.370084 43.024285 36.444101q4.049345 5.061681 7.592521 10.123361t7.592521 10.123361l1.012336 1.012336q4.049345 8.098689 11.135697 15.185042 14.172706 18.22205 28.345412 37.962605t29.357748 39.987277q-26.320739 27.333075-45.048958 44.54279t-35.937933 40.493445q-35.431764 46.567462-59.727832 97.184268t-37.456437 96.171932-13.666538 81.493058 12.654202 53.147647q7.086353 5.061681 20.246723 7.592521t21.259059-9.617193q18.22205-27.333075 41.505781-62.76484t50.616806-76.431378 56.690823-85.542403 58.715495-88.073243q6.074017 8.098689 11.641865 16.703546t11.641865 16.703546q27.333075 39.481109 52.641479 81.493058t47.07363 80.480722 38.468773 69.345025 25.814571 47.07363q7.086353 11.135697 24.296067 11.641865t29.357748-10.629529q6.074017-6.074017 10.629529-34.925596t-3.037008-74.406705-32.394756-104.776789-77.443714-126.035848l-32.394756-40.493445q-16.197378-20.246723-33.407092-40.493445 23.283731-35.431764 44.036622-66.814184t37.962605-56.690823q25.308403-26.320739 51.122974-41.505781t49.098302-25.814571 43.530453-19.740554 35.431764-23.283731zM292.32306-62.174253q32.394756 0 55.172319 23.283731t22.777563 55.678487-22.777563 55.678487-55.172319 23.283731-55.678487-23.283731-23.283731-55.678487 23.283731-55.678487 55.678487-23.283731zM795.454116-62.174253q32.394756 0 55.172319 22.777563t22.777563 55.172319-22.777563 55.678487-55.172319 23.283731-55.678487-23.283731-23.283731-55.678487q0-16.197378 6.074017-30.370084t16.703546-24.802235 25.308403-16.703546 30.876252-6.074017z"  horiz-adv-x="1024" />

    
    <glyph glyph-name="wenjian" unicode="&#59050;" d="M815.104 742.368q27.648-25.6 44.032-42.496t25.088-28.672 10.752-19.968 2.048-14.336l0-16.384-151.552 0q-10.24 0-17.92 7.68t-12.8 17.92-7.68 20.992-2.56 16.896l0 126.976 3.072 0q8.192 0 16.896-2.56t19.968-9.728 28.16-20.48 42.496-35.84zM640 682.976q0-20.48 6.144-42.496t19.456-40.96 33.792-31.232 48.128-12.288l149.504 0 0-577.536q0-29.696-11.776-53.248t-31.232-39.936-43.008-25.6-46.08-9.216l-503.808 0q-19.456 0-42.496 11.264t-43.008 29.696-33.28 41.984-13.312 49.152l0 696.32q0 21.504 9.728 44.544t26.624 42.496 38.4 32.256 45.056 12.8l391.168 0 0-128zM704.512 44q26.624 0 45.056 18.944t18.432 45.568-18.432 45.056-45.056 18.432l-384 0q-26.624 0-45.056-18.432t-18.432-45.056 18.432-45.568 45.056-18.944l384 0zM768 363.488q0 26.624-18.432 45.568t-45.056 18.944l-384 0q-26.624 0-45.056-18.944t-18.432-45.568 18.432-45.056 45.056-18.432l384 0q26.624 0 45.056 18.432t18.432 45.056z"  horiz-adv-x="1024" />

    
    <glyph glyph-name="bianjiwenjian" unicode="&#59051;" d="M746.027944 621.916168q-11.241517 0-18.906188 7.664671t-12.774451 17.884232-7.664671 20.9501-2.55489 17.884232l0 125.700599 2.043912 0q9.197605 0 17.373253-2.043912t19.928144-9.708583 28.61477-21.461078 42.411178-36.279441q27.592814-24.526946 43.944112-41.389222t25.037924-28.61477 10.730539-19.928144 2.043912-14.307385l0-16.351297-150.227545 0zM1063.856287 140.57485q3.065868-8.175649 4.087824-20.439122t-10.219561-23.50499q-5.10978-5.10978-9.197605-9.708583t-7.153693-7.664671q-4.087824-4.087824-7.153693-6.131737l-86.866267 85.844311q6.131737 5.10978 13.796407 12.263473t12.774451 11.241517q12.263473 11.241517 26.570858 9.708583t23.50499-6.642715q10.219561-5.10978 21.972056-17.884232t17.884232-27.081836zM703.105788 45.532934q22.483034 0 37.812375 12.263473l-198.259481-206.43513-282.05988 0q-19.417166 0-42.411178 11.241517t-42.922156 29.636727-33.213573 42.411178-13.285429 49.56487l0 695.952096q0 21.461078 9.708583 44.966068t26.570858 42.411178 38.323353 31.680639 44.966068 12.774451l391.409182 0 0-127.744511q0-19.417166 6.131737-41.9002t18.906188-41.389222 33.213573-31.680639 49.053892-12.774451l149.205589 0 0-338.267465-140.007984-145.117764q11.241517 16.351297 11.241517 35.768463 0 26.570858-18.906188 45.477046t-45.477046 18.906188l-383.233533 0q-26.570858 0-44.966068-18.906188t-18.39521-45.477046 18.39521-44.966068 44.966068-18.39521l383.233533 0zM319.872255 428.766467q-26.570858 0-44.966068-18.906188t-18.39521-45.477046 18.39521-44.966068 44.966068-18.39521l383.233533 0q26.570858 0 45.477046 18.39521t18.906188 44.966068-18.906188 45.477046-45.477046 18.906188l-383.233533 0zM705.149701-83.233533l13.285429 13.285429 25.548902 25.548902q15.329341 15.329341 33.724551 34.235529t36.790419 37.301397q43.944112 43.944112 99.129741 98.107784l85.844311-85.844311-99.129741-99.129741-36.790419-36.790419-33.724551-33.724551q-14.307385-14.307385-24.015968-24.526946t-10.730539-11.241517q-5.10978-4.087824-11.241517-8.686627t-12.263473-7.664671-18.906188-7.664671-26.05988-8.686627-25.548902-7.153693-18.39521-4.087824q-12.263473-2.043912-16.351297 3.065868t-2.043912 17.373253q1.021956 6.131737 4.087824 18.39521t7.153693 25.037924 7.664671 24.015968 5.620758 15.329341q6.131737 13.285429 16.351297 23.50499z"  horiz-adv-x="1069" />

    
    <glyph glyph-name="dengdaiwenjian" unicode="&#59052;" d="M748.819181 621.726274q-10.22977 0-17.902098 7.160839t-12.787213 17.390609-7.672328 20.971029-2.557443 17.902098l0 126.849151 2.045954 0q8.183816 0 16.879121-2.557443t20.45954-9.718282 28.643357-20.971029 42.453546-36.315684q27.62038-24.551449 43.476523-41.942058t24.551449-29.154845 10.741259-19.948052 2.045954-14.321678l0-15.344655-150.377622 0zM867.484515 238.10989q47.056943 0 87.976024-17.390609t71.608392-48.07992 48.07992-71.608392 17.390609-87.976024-17.390609-87.976024-48.07992-71.608392-71.608392-48.07992-87.976024-17.390609q-46.033966 0-86.953047 17.390609t-71.608392 48.07992-48.591409 71.608392-17.902098 87.976024 17.902098 87.976024 48.591409 71.608392 71.608392 48.07992 86.953047 17.390609zM995.356643-22.749251q9.206793 0 16.367632 10.22977t7.160839 24.551449-7.160839 24.551449-16.367632 10.22977l-97.182817 0 0 90.021978q0 8.183816-8.695305 14.321678t-24.03996 6.137862-23.016983-6.137862-7.672328-14.321678l0-112.527473q-2.045954-8.183816-2.045954-12.275724 0-14.321678 7.160839-24.551449t16.367632-10.22977l139.124875 0zM575.936064 43.744256q-1.022977-7.160839-1.022977-14.321678l0-15.344655q0-46.033966 13.298701-86.953047t36.827173-76.723277l-362.133866 0q-19.436563 0-42.453546 11.252747t-42.965035 29.666334-33.246753 41.942058-13.298701 49.102897l0 697.67033q0 21.482517 10.22977 44.4995t26.597403 42.453546 37.85015 32.223776 45.010989 12.787213l391.8002 0 0-127.872128q0-20.45954 6.137862-42.453546t19.436563-41.430569 33.758242-31.712288 48.07992-12.275724l149.354645 0 0-254.721279q-8.183816 2.045954-17.390609 2.045954l-18.413586 0q-76.723277 0-140.147852-35.804196t-102.297702-96.15984l-297.686314 0q-26.597403 0-45.522478-18.413586t-18.925075-45.010989 18.925075-45.522478 45.522478-18.925075l252.675325 0zM323.260739 428.383616q-26.597403 0-45.522478-18.925075t-18.925075-45.522478 18.925075-45.010989 45.522478-18.413586l383.616384 0q26.597403 0 45.010989 18.413586t18.413586 45.010989-18.413586 45.522478-45.010989 18.925075l-383.616384 0z"  horiz-adv-x="1093" />

    
    <glyph glyph-name="shanchuwenjian" unicode="&#59053;" d="M748.819181 621.726274q-10.22977 0-17.902098 7.672328t-12.787213 17.902098-7.672328 20.971029-2.557443 17.902098l0 125.826174 2.045954 0q9.206793 0 17.390609-2.045954t19.948052-9.718282 28.643357-21.482517 42.453546-36.315684q27.62038-24.551449 43.988012-41.430569t24.551449-28.643357 10.741259-19.948052 2.557443-14.321678l0-16.367632-151.400599 0zM867.484515 239.132867q47.056943 0 87.976024-17.902098t71.608392-48.591409 48.591409-71.608392 17.902098-86.953047q0-47.056943-17.902098-87.976024t-48.591409-71.608392-71.608392-48.591409-87.976024-17.902098q-46.033966 0-86.953047 17.902098t-71.608392 48.591409-48.591409 71.608392-17.902098 87.976024q0 46.033966 17.902098 86.953047t48.591409 71.608392 71.608392 48.591409 86.953047 17.902098zM912.495504 13.054945l67.516484 67.516484q9.206793 9.206793 9.206793 22.505495t-9.206793 22.505495-22.505495 9.206793-22.505495-9.206793l-67.516484-67.516484-68.539461 67.516484q-9.206793 9.206793-22.505495 9.206793t-22.505495-9.206793-9.206793-22.505495 9.206793-22.505495l67.516484-67.516484-67.516484-68.539461q-9.206793-9.206793-9.206793-22.505495t9.206793-22.505495 22.505495-9.206793 22.505495 9.206793l68.539461 67.516484 67.516484-67.516484q9.206793-9.206793 22.505495-9.206793t22.505495 9.206793 9.206793 22.505495-9.206793 22.505495zM575.936064 44.767233q-1.022977-8.183816-1.022977-14.321678l0-15.344655q0-46.033966 13.298701-87.464535t37.85015-76.211788l-363.156843 0q-19.436563 0-42.453546 11.252747t-42.965035 29.666334-33.246753 41.942058-13.298701 49.102897l0 696.647353q0 21.482517 10.22977 45.010989t27.108891 42.453546 38.361638 31.712288 45.010989 12.787213l391.8002 0 0-127.872128q0-19.436563 6.137862-41.942058t18.925075-41.430569 33.246753-31.712288 49.102897-12.787213l149.354645 0 0-253.698302q-9.206793 1.022977-18.413586 1.534466t-17.390609 0.511489q-76.723277 0-140.659341-35.804196t-102.809191-96.15984l-297.686314 0q-26.597403 0-45.522478-18.925075t-18.925075-45.522478 18.925075-45.010989 45.522478-18.413586l252.675325 0zM323.260739 428.383616q-26.597403 0-45.522478-18.413586t-18.925075-45.010989 18.925075-45.522478 45.522478-18.925075l383.616384 0q26.597403 0 45.522478 18.925075t18.925075 45.522478-18.925075 45.010989-45.522478 18.413586l-383.616384 0z"  horiz-adv-x="1094" />

    
    <glyph glyph-name="jianqiewenjian" unicode="&#59054;" d="M747.405104 621.825787q-11.246862 0-18.915177 7.668315t-12.780525 17.892735-7.668315 20.960061-2.556105 16.870293l0 126.782808 2.044884 0q9.201978 0 17.381514-2.556105t19.937619-9.713199 28.628376-20.960061 42.431343-36.296691q27.605934-24.538608 43.965006-41.920122t25.049829-28.628376 10.735641-19.426398 2.044884-14.314188l0-16.359072-150.298974 0zM764.786618 15.51768q-36.807912-7.157094-65.436288-19.426398-24.538608-11.246862-43.965006-30.67326t-16.359072-49.077216q2.044884-20.44884 3.067326-36.296691t2.044884-29.139597l-382.393309 0q-19.426398 0-42.431343 11.246862t-42.942564 29.650818-33.229365 42.431343-13.291746 48.565995l0 697.305446q0 21.471282 9.713199 44.987448t26.583492 42.431343 38.341575 31.695702 44.987448 12.780525l391.595287 0 0-127.80525q0-20.44884 6.134652-42.431343t19.426398-41.408901 33.740586-31.695702 48.054774-12.269304l149.276532 0 0-305.710159-41.920122-66.45873-89.974896 105.311526q-17.381514-19.426398-29.650818-38.852796-11.246862-17.381514-20.44884-37.319133t-11.246862-40.386459l-383.415751 0q-26.583492 0-44.987448-18.915177t-18.403956-45.498669 18.403956-44.987448 44.987448-18.403956l383.415751 0q23.516166 0 38.852796 12.269304 5.11221-9.201978 8.690757-17.381514t6.645873-13.291746q4.089768-6.134652 6.134652-11.246862zM321.046789 428.584249q-26.583492 0-44.987448-18.915177t-18.403956-45.498669 18.403956-44.987448 44.987448-18.403956l383.415751 0q26.583492 0 45.498669 18.403956t18.915177 44.987448-18.915177 45.498669-45.498669 18.915177l-383.415751 0zM954.960831-69.345006q6.134652-3.067326 18.403956-7.157094t24.027387-11.758083 20.44884-21.471282 7.668315-36.296691q-1.022442-27.605934-16.359072-43.453785t-35.78547-20.44884-41.408901 2.044884-32.206923 25.049829q-14.314188 23.516166-12.780525 46.521111t5.623431 48.565995q2.044884 14.314188-0.511221 20.44884t-5.623431 11.246862q-2.044884 2.044884-5.623431 6.645873t-6.645873 9.713199q-4.089768 5.11221-8.179536 11.246862-3.067326-5.11221-7.157094-9.201978-3.067326-4.089768-6.645873-9.201978t-6.645873-10.22442q-7.157094-9.201978-7.668315-15.33663t1.533663-14.314188q1.022442-4.089768 2.556105-15.33663t1.022442-25.56105-5.11221-30.162039-15.847851-30.162039q-15.33663-18.403956-35.78547-22.493724t-39.364017 2.556105-32.206923 22.493724-13.291746 38.341575q-1.022442 21.471282 7.157094 35.78547t20.44884 23.516166 25.56105 14.825409 22.493724 8.690757q18.403956 7.157094 25.56105 12.780525t13.291746 13.802967q3.067326 4.089768 7.668315 10.735641t9.713199 12.780525q5.11221 7.157094 10.22442 15.33663-4.089768 4.089768-8.179536 10.22442-4.089768 5.11221-9.713199 12.269304t-11.758083 16.359072q-7.157094 8.179536-14.314188 19.937619t-13.291746 23.516166-10.735641 21.471282-5.623431 14.825409q-4.089768 10.22442-6.134652 26.583492t6.134652 21.471282 11.246862 0.511221 9.201978-12.780525q2.044884-4.089768 14.314188-23.004945t26.583492-39.364017q16.359072-25.56105 34.763028-55.211868 15.33663 24.538608 27.605934 46.00989 11.246862 18.403956 21.471282 35.78547t14.314188 23.516166q7.157094 12.269304 11.758083 18.915177t6.645873 8.690757 6.645873 0.511221 7.668315-6.645873q2.044884-5.11221 1.533663-13.802967t-2.556105-26.072271q-2.044884-8.179536-6.645873-18.403956t-9.713199-20.44884-10.22442-19.426398-8.179536-13.291746q-3.067326-5.11221-9.713199-13.291746t-12.780525-16.359072q-7.157094-10.22442-15.33663-20.44884 5.11221-8.179536 9.201978-14.314188t7.668315-11.758083 5.623431-8.690757q6.134652-11.246862 18.915177-21.471282t25.049829-16.359072zM773.988596-168.521881q14.314188 0 24.027387 9.713199t9.713199 24.027387-9.713199 24.027387-24.027387 9.713199-24.027387-9.713199-9.713199-24.027387 9.713199-24.027387 24.027387-9.713199zM957.005715-181.813627q15.33663 0 26.072271 10.735641t10.735641 26.072271-10.735641 26.072271-26.072271 10.735641-26.072271-10.735641-10.735641-26.072271 10.735641-26.072271 26.072271-10.735641z"  horiz-adv-x="1026" />

    
    <glyph glyph-name="fuzhiwenjian" unicode="&#59055;" d="M638.596211 620.063809q30.628116 0 54.62014-13.272183t41.347956-32.66999 26.544367-41.858425 9.188435-39.81655l0-576.829511q0-29.607178-11.740778-53.088734t-30.628116-39.81655-42.368893-25.52343-46.963111-9.188435l-503.322034 0q-19.397807 0-42.368893 11.230309t-42.879362 29.607178-33.180459 42.368893-13.272183 48.494516l0 568.662014q0 21.439681 10.209372 44.410768t26.544367 42.368893 37.774676 32.159521 44.921236 12.761715l515.57328 0zM578.360917-18.021934q26.544367 0 45.431705 18.376869t18.887338 44.921236-18.887338 45.431705-45.431705 18.887338l-382.851446 0q-26.544367 0-45.431705-18.887338t-18.887338-45.431705 18.887338-44.921236 45.431705-18.376869l382.851446 0zM578.360917 237.212363q26.544367 0 45.431705 18.376869t18.887338 44.921236-18.887338 45.431705-45.431705 18.887338l-382.851446 0q-26.544367 0-45.431705-18.887338t-18.887338-45.431705 18.887338-44.921236 45.431705-18.376869l382.851446 0zM759.0668 812q43.900299 0 80.654038-26.033898t63.808574-64.319043 42.368893-82.695912 15.314058-81.164506l0-542.117647q0-21.439681-12.761715-39.306082t-31.138584-30.628116-39.81655-20.418744-39.81655-7.657029l-4.083749 0 0 609.499501q-8.167498 70.444666-43.900299 108.219342t-94.947159 49.004985l-498.217348 0q1.020937 2.041874 1.020937 7.14656 0 20.418744 12.251246 41.858425t32.159521 38.795613 44.410768 28.586241 49.004985 11.230309l423.688933 0z"  horiz-adv-x="1024" />

    
    <glyph glyph-name="sousuowenjian" unicode="&#59056;" d="M747.746379 620.716043q-10.229089 0-17.900905 7.671816t-12.786361 17.900905-7.671816 20.969632-2.557272 17.900905l0 125.81779 2.045818 0q8.183271 0 16.877996-2.045818t20.458177-9.717634 28.641448-21.481086 42.450718-36.313265q27.618539-24.549813 43.473627-41.427809t24.549813-28.641448 10.740543-19.946723 2.045818-14.320724l0-16.366542-150.367603 0zM511.454432 43.795444q0-58.305805 23.526904-108.428339t64.443258-85.924345l-337.559925 0q-19.435268 0-42.450718 11.251997t-42.962172 29.664357-33.244538 42.450718-13.297815 49.61108l0 696.600936q0 21.481086 10.229089 45.00799t27.107085 42.450718 38.359082 31.710175 45.00799 12.786361l390.751186 0 0-127.863608q0-19.435268 6.137453-41.939263t19.435268-41.427809 33.755992-31.710175 48.076717-12.786361l149.344694 0 0-284.368664q-27.618539 16.366542-59.840168 25.061267t-67.000531 8.694725q-73.649438 0-133.489607-36.313265t-93.596161-96.664888l-221.971223 0q-26.59563 0-45.519444-18.923814t-18.923814-45.519444 18.923814-45.00799 45.519444-18.41236l189.23814 0zM322.216292 427.386267q-26.59563 0-45.519444-18.41236t-18.923814-45.00799 18.923814-45.519444 45.519444-18.923814l383.590824 0q26.59563 0 45.519444 18.923814t18.923814 45.519444-18.923814 45.00799-45.519444 18.41236l-383.590824 0zM1008.588139-145.442696q14.320724-17.389451 15.855087-29.152903t-9.717634-24.038358q-12.274906-14.320724-26.59563-13.297815t-28.641448 12.274906l-86.947253 83.878527q-27.618539-17.389451-59.840168-25.061267t-63.931804-5.114544-61.885986 15.855087-54.725624 38.870537q-27.618539 27.618539-41.939263 63.42035t-14.320724 72.626529 14.320724 72.115075 41.939263 63.931804q27.618539 27.618539 62.397441 41.939263t71.60362 14.320724 72.115075-14.320724 62.908895-41.939263q24.549813-25.572722 37.847628-56.259987t15.855087-62.908895-5.114544-63.931804-25.061267-59.328714zM767.181647-82.022346q25.572722 0 48.076717 10.229089t39.381991 27.107085 26.59563 39.893446 9.717634 49.61108q0 25.572722-9.717634 48.588171t-26.59563 40.4049-39.381991 27.107085-48.076717 9.717634q-26.59563 0-49.099625-9.717634t-39.381991-27.107085-26.59563-40.4049-9.717634-48.588171q0-26.59563 9.717634-49.61108t26.59563-39.893446 39.381991-27.107085 49.099625-10.229089z"  horiz-adv-x="1025" />

    
    <glyph glyph-name="wenjianjia" unicode="&#59058;" d="M855.04 426.976q19.456-2.048 38.912-10.24t33.792-23.04 21.504-37.376 2.048-54.272q-2.048-8.192-8.192-40.448t-14.336-74.24-18.432-86.528-19.456-76.288q-5.12-18.432-14.848-37.888t-25.088-35.328-36.864-26.112-51.2-10.24l-567.296 0q-21.504 0-44.544 9.216t-42.496 26.112-31.744 40.96-12.288 53.76l0 439.296q0 62.464 33.792 97.792t95.232 35.328l503.808 0q22.528 0 46.592-8.704t43.52-24.064 31.744-35.84 12.288-44.032l0-11.264-53.248 0q-40.96 0-95.744 0.512t-116.736 0.512-115.712 0.512-92.672 0.512l-47.104 0q-26.624 0-41.472-16.896t-23.04-44.544q-8.192-29.696-18.432-62.976t-18.432-61.952q-10.24-33.792-20.48-65.536-2.048-8.192-2.048-13.312 0-17.408 11.776-29.184t29.184-11.776q31.744 0 43.008 39.936l54.272 198.656q133.12-1.024 243.712-1.024l286.72 0z"  horiz-adv-x="1024" />

    
    <glyph glyph-name="xinzengwenjianjia" unicode="&#59059;" d="M589.824 287.712q-30.72-30.72-50.688-68.096t-28.672-77.312-6.144-80.896 16.896-79.872l-388.096 0q-21.504 0-45.056 8.704t-42.496 25.6-31.744 40.96-12.8 54.784l0 438.272q0 62.464 34.304 97.792t94.72 35.328l30.72 0 60.416 0 77.824 0q44.032 0 88.576 0.512t87.552 0.512l76.8 0 56.32 0 25.6 0q23.552 0 47.616-9.216t43.008-24.576 31.232-35.84 12.288-43.008l0-12.288q-54.272 0-125.952-0.512t-144.384-0.512l-140.288 0-110.592 0q-25.6 0-40.448-15.36t-23.04-43.008q-8.192-29.696-18.432-64t-18.432-64l-20.48-69.632q-4.096-14.336 6.656-30.208t31.232-15.872q16.384 0 27.136 9.216t15.872 24.576l54.272 203.776 533.504-1.024q19.456-2.048 38.4-10.24t32.768-23.04 20.48-37.376 1.536-54.272q0-2.048-0.512-3.584t-0.512-4.608q-76.8 24.576-156.672 6.656t-140.288-78.336zM800.768 297.952q46.08 0 86.016-17.408t70.144-47.616 47.616-70.144 17.408-86.016-17.408-86.016-47.616-70.144-70.144-47.616-86.016-17.408-86.016 17.408-70.144 47.616-47.616 70.144-17.408 86.016 17.408 86.016 47.616 70.144 70.144 47.616 86.016 17.408zM929.792 48.096q13.312 0 22.528 9.216t9.216 22.528-9.216 22.528-22.528 9.216l-96.256 0 0 96.256q0 13.312-9.216 22.528t-22.528 9.216q-14.336 0-23.552-9.216t-9.216-22.528l0-96.256-95.232 0q-14.336 0-23.552-9.216t-9.216-22.528 9.216-22.528 23.552-9.216l95.232 0 0-96.256q0-13.312 9.216-22.528t23.552-9.216q13.312 0 22.528 9.216t9.216 22.528l0 96.256 96.256 0z"  horiz-adv-x="1024" />

    
    <glyph glyph-name="shanchuwenjianjia" unicode="&#59060;" d="M797.696 369.632q-60.416 0-113.152-22.528t-91.648-61.952-61.952-92.16-23.04-113.152q0-50.176 17.408-97.28l-392.192 0q-21.504 0-44.544 9.216t-42.496 26.112-31.744 40.96-12.288 53.76l0 41.984 0 81.92q0 47.104-0.512 100.864t-0.512 99.84l0 78.848 0 35.84q0 61.44 34.304 97.28t94.72 35.84l503.808 0q23.552 0 47.616-8.704t43.008-24.064 31.232-35.84 12.288-44.032l0-13.312-517.12 0q-51.2 0-67.584-57.344-8.192-29.696-18.432-62.976t-18.432-61.952q-10.24-33.792-20.48-65.536-2.048-8.192-2.048-14.336 0-16.384 11.264-28.16t28.672-11.776 26.624 12.288 14.336 27.648l56.32 196.608 541.696 0q18.432-3.072 35.84-11.776t30.208-23.552 18.432-36.864 0.512-51.712q0-2.048-0.512-5.12t-1.536-8.192q-39.936 13.312-88.064 13.312zM802.816 301.024q46.08 0 86.016-17.408t70.144-47.616 47.616-70.144 17.408-86.016-17.408-86.016-47.616-70.144-70.144-47.616-86.016-17.408-86.016 17.408-70.144 47.616-47.616 70.144-17.408 86.016 17.408 86.016 47.616 70.144 70.144 47.616 86.016 17.408zM845.824 82.912l67.584 68.608q9.216 9.216 9.216 22.528t-9.216 22.528-22.528 9.216-22.528-9.216l-68.608-68.608-67.584 68.608q-9.216 9.216-22.528 9.216t-22.528-9.216-9.216-22.528 9.216-22.528l67.584-68.608-67.584-67.584q-9.216-9.216-9.216-22.528t9.216-22.528q9.216-10.24 22.528-10.24t22.528 10.24l67.584 67.584 68.608-67.584q9.216-10.24 22.528-10.24t22.528 10.24q9.216 9.216 9.216 22.528t-9.216 22.528z"  horiz-adv-x="1024" />

    
    <glyph glyph-name="weidaqiadewenjianjia" unicode="&#59061;" d="M960.512 368.608q0-8.192 0.512-38.912t0.512-71.168 0.512-85.504 0.512-81.92q0-19.456-8.704-38.912t-25.6-35.328-40.448-25.6-53.248-9.728l-637.952 0q-21.504 0-44.544 9.216t-42.496 26.112-31.744 40.96-12.288 53.76l0 439.296q0 62.464 34.304 97.792t94.72 35.328l52.224 0 105.472 0q61.44 0 131.072 0.512t130.048 0.512l101.376 0 47.104 0q23.552 0 47.616-9.216t43.008-24.576 31.232-35.84 12.288-44.032l0-11.264q-28.672 0-75.264-0.512t-102.912-1.024-119.296-1.024-124.416-1.024-117.76-0.512l-99.328 0q-25.6 0-44.544-15.872t-18.944-45.568-0.512-64-0.512-62.976l0-66.56 1.024 0 0-30.72q0-13.312 9.216-22.528t22.528-9.216 22.528 9.216 9.216 22.528l0 32.768 2.048 0-2.048 191.488 603.136-1.024q19.456-2.048 37.376-10.24t31.744-23.04 22.528-37.376 8.704-54.272z"  horiz-adv-x="1024" />

    
    <glyph glyph-name="suoding" unicode="&#59062;" d="M385.150849 426.337662l-128.895105 0 0 150.377622q0 49.102897 19.436563 91.556444t53.706294 74.677323 80.815185 50.637363 101.786214 18.413586q49.102897 0 94.625375-18.413586t80.815185-50.637363 56.263736-74.677323 20.971029-91.556444l0-150.377622-123.78022 0 0 121.734266q0 64.447552-35.804196 99.74026t-97.182817 35.292707q-55.240759 0-88.999001-35.292707t-33.758242-99.74026l0-121.734266zM826.053946 364.959041q27.62038 0 47.568432-19.948052t19.948052-47.568432l0-317.122877q0-27.62038-9.718282-51.66034t-26.597403-41.942058-39.896104-28.131868-50.637363-10.22977l-516.603397 0q-27.62038 0-50.125874 10.22977t-38.361638 27.108891-24.551449 39.384615-8.695305 48.07992l0 324.283716q0 27.62038 19.436563 47.568432t47.056943 19.948052l61.378621 0 128.895105 0 255.744256 0 123.78022 0 61.378621 0z"  horiz-adv-x="1024" />

    
    <glyph glyph-name="bingtu" unicode="&#59071;" d="M959.488 272.352l0-3.072q0-86.016-32.768-162.304t-89.088-132.608-132.608-89.088-162.304-32.768-162.304 32.768-132.608 89.088-89.088 132.608-32.768 162.304q0 73.728 24.576 140.8t67.584 120.32 101.888 91.136 128.512 53.248l0-313.344q0-35.84 7.68-60.928t25.088-40.448 45.568-22.016 69.12-6.656zM551.936 301.024q-11.264 0-25.088 7.168t-13.824 30.72l0 369.664q0 17.408 8.704 25.088t32.256 7.68q10.24 0 41.472-1.536t74.752-11.776 95.232-33.28 102.912-67.072q36.864-30.72 56.32-66.56t28.672-67.584 10.752-54.784 1.536-27.136q0-15.36-7.168-26.624t-26.624-16.384q-7.168-2.048-36.864-7.68t-70.656-13.312-87.04-15.872-86.016-14.848-68.096-11.264-31.232-4.608z"  horiz-adv-x="1024" />

    
    <glyph glyph-name="quxiantu" unicode="&#59068;" d="M1014.784 628.704q0-5.12-0.512-8.704t-1.536-7.68l1.024-1.024q-20.48-53.248-43.008-103.424-19.456-43.008-44.032-89.6t-48.128-79.36q-23.552-31.744-48.64-62.464t-61.44-55.296-88.576-39.424-130.048-14.848q-72.704 0-125.44 12.8t-87.552 29.184q-40.96 18.432-68.608 43.008l1.024 1.024q-15.36 18.432-15.36 44.032 0 28.672 19.968 49.152t49.664 20.48q13.312 0 25.088-4.608t20.992-12.8l1.024-1.024q11.264-11.264 17.408-24.576 8.192-9.216 23.04-19.456t37.376-19.456q39.936-16.384 80.896-18.944t80.896 9.728 76.8 40.448 69.632 74.24q31.744 46.08 54.272 91.648t36.864 83.456q17.408 44.032 28.672 84.992l1.024 0q7.168 20.48 25.6 34.304t41.984 13.824q28.672 0 49.152-20.48t20.48-49.152zM865.28 107.488q19.456 0 36.864-7.68t30.208-20.48 20.48-30.72 7.68-37.376-7.68-36.864-20.48-30.208-30.208-20.48-36.864-7.68l-769.024 0q-20.48 0-37.888 7.68t-30.208 20.48-20.48 30.208-7.68 36.864l0 576.512q0 19.456 7.68 37.376t20.48 30.72 30.208 20.48 37.888 7.68q19.456 0 37.376-7.68t30.72-20.48 20.48-30.72 7.68-37.376l0-480.256 672.768 0z"  horiz-adv-x="1024" />

    
    <glyph glyph-name="zhexiantu" unicode="&#59069;" d="M420.864 361.44l-164.864-139.264 0 186.368 185.344 162.816 5.12-6.144 167.936-195.584 308.224 320.512 92.16-112.64-413.696-431.104-3.072 7.168zM928.768 106.464q19.456 0 37.376-7.68t30.72-20.48 20.48-30.208 7.68-36.864q0-20.48-7.68-37.888t-20.48-30.208-30.72-20.48-37.376-7.68l-832.512 0q-20.48 0-37.888 7.68t-30.208 20.48-20.48 30.208-7.68 37.888l0 640q0 19.456 7.68 37.376t20.48 30.72 30.208 20.48 37.888 7.68q19.456 0 37.376-7.68t30.72-20.48 20.48-30.72 7.68-37.376l0-544.768 736.256 0z"  horiz-adv-x="1026" />

    
    <glyph glyph-name="nanshangjia" unicode="&#59075;" d="M935.44334 21.097416q5.089463-15.26839 7.634195-39.188867t2.544732-47.840954-3.562624-45.296223-10.687873-32.572565q-5.089463-7.125249-29.00994-15.26839t-58.528827-15.777336-77.868787-14.250497-86.011928-11.705765-82.95825-8.143141-69.725646-3.053678q-44.787276 0-105.860835 6.616302t-119.093439 15.777336-101.789264 18.831014-52.930417 16.795229q-11.196819 8.143141-16.795229 49.87674t4.580517 106.878728q6.107356 37.662028 30.536779 57.001988t57.510934 30.536779 68.198807 20.357853 61.582505 26.465209q21.375746 13.232604 33.081511 25.447316t16.286282 24.429423 4.580517 25.447316-1.017893 28.500994q-2.035785 24.429423-15.777336 37.662028t-31.045726 27.483101q-8.143141 7.125249-14.250497 19.848907t-11.196819 25.956262q-5.089463 15.26839-10.178926 31.554672-7.125249 2.035785-14.250497 7.125249-6.107356 5.089463-13.232604 14.250497t-12.214712 26.465209-3.562624 31.045726 5.59841 23.920477q4.071571 11.196819 12.214712 21.375746-1.017893 38.67992 4.071571 77.359841 4.071571 32.572565 14.759443 69.2167t31.045726 66.163022q19.33996 27.483101 43.260437 45.296223t48.349901 27.992048 49.367793 14.250497 48.349901 4.071571q29.518887 0 56.493042-7.125249t50.385686-18.322068 41.733598-24.93837 29.518887-27.992048q25.447316-32.572565 38.170974-71.761431t17.813121-73.797217q6.107356-40.715706 5.089463-81.431412 7.125249-4.071571 11.196819-12.214712 4.071571-7.125249 6.616302-18.322068t0.508946-27.483101q-3.053678-21.375746-9.66998-34.099404t-14.759443-19.848907q-9.161034-8.143141-19.33996-11.196819-4.071571-16.286282-9.161034-31.554672-5.089463-13.232604-11.705765-25.956262t-14.759443-19.848907q-9.161034-8.143141-17.304175-13.741551t-14.250497-11.705765-10.178926-14.759443-6.107356-20.866799q-3.053678-15.26839-2.035785-31.045726t8.143141-31.554672 23.411531-30.027833 43.769384-25.447316q25.447316-10.178926 55.475149-17.813121t58.019881-18.322068 49.87674-26.974155 31.045726-42.751491zM544.572565-145.836978q5.089463 0 15.777336 6.616302t20.866799 15.777336 17.813121 18.322068 7.634195 14.250497q0 6.107356-3.053678 21.375746t-7.125249 33.590457-8.143141 36.135189-7.125249 29.00994q10.178926 8.143141 17.304175 17.813121t7.125249 19.848907q0 8.143141-5.59841 16.795229t-12.723658 14.759443q-8.143141 7.125249-17.304175 14.250497l-50.894632 0q-10.178926-7.125249-17.304175-14.250497-6.107356-6.107356-11.196819-14.250497t-5.089463-16.286282q0-6.107356 7.634195-16.286282t18.831014-19.33996q-3.053678-9.161034-8.143141-26.465209t-9.66998-36.135189-8.143141-35.626243-3.562624-24.93837q0-5.089463 7.634195-14.250497t18.322068-18.322068 20.866799-15.777336 15.26839-6.616302z"  horiz-adv-x="1024" />

    
    <glyph glyph-name="nvshangjia" unicode="&#59076;" d="M932.207171 19.521912q5.099602-15.298805 8.159363-38.756972t3.059761-47.426295-3.569721-45.386454-10.709163-32.63745q-5.099602-7.139442-28.557769-14.788845t-58.645418-15.298805-78.023904-14.788845-86.183267-12.239044-83.123506-7.649402-69.354582-2.549801-67.314741 3.059761-78.023904 7.649402-79.553785 10.709163-71.394422 12.749004-54.565737 12.239044-28.557769 10.709163q-10.199203 8.159363-15.808765 49.466135t4.589641 107.601594q6.119522 36.717131 30.59761 56.095618t57.115538 30.59761 67.824701 20.398406 61.705179 26.517928q19.378486 12.239044 30.59761 23.458167t16.318725 21.928287 6.629482 21.928287 0.50996 24.478088l-89.752988 12.239044q-18.358566 13.258964-32.63745 38.756972-12.239044 21.418327-21.928287 58.645418t-9.689243 96.38247q0 48.956175 5.099602 104.541833t24.988048 106.071713 59.155378 90.772908 107.601594 60.685259q20.398406 7.139442 39.776892 9.689243t37.737052 3.569721q10.199203 1.01992 20.398406 1.01992l21.418327 0q50.996016 0 90.262948-20.398406t68.844622-53.035857 49.976096-74.454183 32.12749-83.633466 16.318725-81.083665 3.569721-66.804781q-3.059761-42.836653-13.768924-77.003984t-21.928287-58.645418q-13.258964-28.557769-29.577689-50.996016l-99.952191-16.318725q-1.01992-13.258964 1.52988-27.027888t10.709163-27.027888 23.458167-25.498008 39.776892-21.418327q24.478088-10.199203 54.565737-18.358566t58.135458-18.868526 49.976096-27.027888 30.087649-42.836653zM542.59761-144.685259q5.099602 0 15.298805 6.629482t20.398406 15.808765 17.848606 18.358566 7.649402 14.278884q0 6.119522-3.059761 21.418327t-7.139442 33.657371-8.159363 35.697211-7.139442 28.557769q10.199203 8.159363 17.848606 18.358566t7.649402 20.398406q0 8.159363-5.609562 16.318725t-12.749004 15.298805q-8.159363 7.139442-18.358566 14.278884l-50.996016 0q-9.179283-7.139442-16.318725-14.278884-6.119522-6.119522-11.219124-14.788845t-5.099602-16.828685q0-5.099602 7.139442-15.298805t18.358566-20.398406q-3.059761-9.179283-7.649402-26.007968t-9.689243-35.697211-8.669323-35.697211-3.569721-24.988048q0-5.099602 7.649402-14.278884t18.358566-18.358566 21.418327-15.808765 15.808765-6.629482z"  horiz-adv-x="1024" />

    
    <glyph glyph-name="mulu" unicode="&#59086;" d="M874.496 749.536q34.816 0 58.88-24.576t24.064-59.392l0-86.016q0-34.816-24.064-59.392t-58.88-24.576l-724.992 0q-34.816 0-59.392 24.576t-24.576 59.392l0 86.016q0 34.816 24.576 59.392t59.392 24.576l724.992 0zM874.496 430.048q34.816 0 58.88-24.576t24.064-59.392l0-87.04q0-34.816-24.064-59.392t-58.88-24.576l-724.992 0q-34.816 0-59.392 24.576t-24.576 59.392l0 87.04q0 34.816 24.576 59.392t59.392 24.576l724.992 0zM874.496 111.584q34.816 0 58.88-24.576t24.064-59.392l0-92.16q0-34.816-24.064-58.88t-58.88-24.064l-724.992 0q-34.816 0-59.392 24.064t-24.576 58.88l0 92.16q0 34.816 24.576 59.392t59.392 24.576l724.992 0z"  horiz-adv-x="1024" />

    
    <glyph glyph-name="diaojie" unicode="&#59093;" d="M320.512 362.464q-26.624 0-49.664 9.728t-40.448 27.136-27.648 40.448-10.24 49.664 10.24 49.664 27.648 40.448 40.448 27.648 49.664 10.24 49.664-10.24 40.448-27.648 27.648-40.448 10.24-49.664-10.24-49.664-27.648-40.448-40.448-27.136-49.664-9.728zM985.088 167.904q8.192 0 15.36-7.168t12.8-16.896 8.704-20.992 3.072-19.456-3.072-19.456-8.704-20.992-12.8-16.384-15.36-6.656l-99.328 0q11.264 31.744 11.264 64.512t-11.264 63.488l99.328 0zM40.96 422.88q-8.192 0-15.36 7.68t-12.8 18.432-8.704 22.528-3.072 19.968 3.072 18.432 8.704 18.944 12.8 14.848 15.36 6.144l94.208 0q-5.12-14.336-7.68-29.696t-2.56-31.744q0-34.816 12.288-65.536l-96.256 0zM504.832 422.88q11.264 31.744 11.264 65.536 0 31.744-9.216 61.44l478.208 0q8.192 0 15.36-6.144t12.8-14.848 8.704-18.944 3.072-18.432-3.072-19.968-8.704-22.528-12.8-18.432-15.36-7.68l-480.256 0zM525.312 167.904q-11.264-30.72-11.264-63.488t11.264-64.512l-484.352 0q-8.192 0-15.36 6.144t-12.8 15.36-8.704 19.456-3.072 18.432 3.072 19.968 8.704 22.528 12.8 18.432 15.36 7.68l484.352 0zM704.512 232.416q26.624 0 49.664-10.24t40.448-27.136 27.136-40.448 9.728-49.152q0-26.624-9.728-49.152t-27.136-39.936-40.448-27.136-49.664-9.728-49.152 9.728-39.936 27.136-27.136 39.936-9.728 49.152q0 25.6 9.728 49.152t27.136 40.448 39.936 27.136 49.152 10.24z"  horiz-adv-x="1026" />

    
    <glyph glyph-name="kejian" unicode="&#59094;" d="M558.08 351.2q16.384-31.744 16.384-70.656 0-33.792-12.8-62.976t-34.304-51.2-50.688-34.816-62.976-12.8-63.488 12.8-51.2 34.816-34.304 51.2-12.8 62.976 12.8 62.976 34.304 51.2 51.2 34.816 63.488 12.8q35.84 0 66.048-14.336t52.736-37.888q-14.336 9.216-31.744 9.216-24.576 0-41.984-17.408t-17.408-41.984q0-23.552 17.408-40.96t41.984-17.408 41.472 17.408 16.896 40.96q0 8.192-1.024 11.264zM411.648 632.8q83.968 0 154.624-26.112t130.048-65.024 108.032-83.968 88.064-83.968 70.656-65.024 56.832-26.112q-25.6 0-56.832-26.112t-71.168-66.048-88.064-85.504-107.52-85.504-130.048-66.048-154.624-26.112-155.648 26.112-132.608 66.048-110.592 85.504-89.088 85.504-69.632 66.048-50.688 26.112q20.48 0 50.688 26.112t69.632 65.024 89.088 83.968 110.592 83.968 132.608 65.024 155.648 26.112zM411.648 55.264q47.104 0 88.064 17.408t71.68 48.128 48.128 71.68 17.408 88.064q0 46.08-17.408 87.04t-48.128 71.68-71.68 48.64-88.064 17.92q-46.08 0-87.04-17.92t-71.68-48.64-48.64-71.68-17.92-87.04q0-47.104 17.92-88.064t48.64-71.68 71.68-48.128 87.04-17.408z"  horiz-adv-x="1217" />

    
    <glyph glyph-name="bukejian" unicode="&#59095;" d="M407.552 176.096q83.968 0 140.8 14.336t98.816 36.352 76.8 47.104 74.752 47.104 91.648 36.352 129.536 14.336q-25.6 0-56.832-24.064t-71.168-60.416-88.576-78.336-107.52-78.336-130.048-60.416-155.136-24.064-156.16 24.064-133.12 60.416-110.592 78.336-89.088 78.336-69.632 60.416-50.688 24.064q71.68 0 121.344-14.336t89.088-36.352 74.752-47.104 78.848-47.104 100.864-36.352 141.312-14.336z"  horiz-adv-x="1219" />

    
    <glyph glyph-name="xifen" unicode="&#59114;" d="M198.656 656.352q18.432 0 30.72-12.8t12.288-30.208l0-130.048q0-17.408-12.288-30.72t-30.72-13.312l-151.552 0q-17.408 0-30.208 13.312t-12.8 30.72l0 130.048q0 17.408 12.8 30.208t30.208 12.8l151.552 0zM979.968 656.352q17.408 0 30.208-12.8t12.8-30.208l0-130.048q0-17.408-12.8-30.72t-30.208-13.312l-585.728 0q-17.408 0-30.208 13.312t-12.8 30.72l0 130.048q0 17.408 12.8 30.208t30.208 12.8l585.728 0zM198.656 331.744q18.432 0 30.72-12.8t12.288-30.208l0-64.512q0-18.432-12.288-31.232t-30.72-12.8l-64.512 0q-17.408 0-30.208 12.8t-12.8 31.232l0 64.512q0 17.408 12.8 30.208t30.208 12.8l64.512 0zM892.928 331.744q17.408 0 30.208-12.8t12.8-30.208l0-64.512q0-18.432-12.8-31.232t-30.208-12.8l-498.688 0q-17.408 0-30.208 12.8t-12.8 31.232l0 64.512q0 17.408 12.8 30.208t30.208 12.8l498.688 0zM198.656 94.176q18.432 0 30.72-13.312t12.288-30.72l0-65.536q0-17.408-12.288-30.208t-30.72-12.8l-64.512 0q-17.408 0-30.208 12.8t-12.8 30.208l0 65.536q0 17.408 12.8 30.72t30.208 13.312l64.512 0zM892.928 94.176q17.408 0 30.208-13.312t12.8-30.72l0-65.536q0-17.408-12.8-30.208t-30.208-12.8l-498.688 0q-17.408 0-30.208 12.8t-12.8 30.208l0 65.536q0 17.408 12.8 30.72t30.208 13.312l498.688 0z"  horiz-adv-x="1024" />

    
    <glyph glyph-name="zhanghumingxi" unicode="&#59118;" d="M382.976 307.168q0-29.696-15.872-37.888t-40.448 12.288q-25.6 19.456-55.808 46.592t-61.44 55.808-61.952 56.32-57.344 49.152q-25.6 20.48-26.112 37.376t23.04 37.376q24.576 19.456 53.248 46.08t58.88 54.784 60.416 55.808 56.832 49.152q28.672 23.552 47.616 17.92t18.944-35.328l0-22.528q0-12.288 0.512-26.112t1.024-27.136 0.512-22.528q0-21.504 12.288-26.624t34.816-5.12l57.344 0 92.16 0q53.248 0 112.128 0.512t111.104 0.512l94.208 0 58.368 0q10.24 0 22.016-1.536t22.016-7.68 16.384-17.408 6.144-30.72q0-22.528 0.512-39.424t0.512-42.496q0-35.84-17.408-48.128t-53.248-12.288l-49.152 0q-36.864 0-87.552-0.512t-109.056-0.512l-108.544 0-92.16 0-55.296 0q-31.744 0-50.176-6.144t-18.432-29.696q1.024-16.384 0-39.424t-1.024-40.448zM1007.616 180.192q24.576-20.48 24.576-37.888t-23.552-36.864q-24.576-20.48-65.024-46.592t-84.48-53.76-86.016-54.272-68.608-48.128q-29.696-23.552-48.128-17.408t-17.408 35.84q0 17.408-1.024 44.544t-1.024 46.592q0 20.48-4.608 26.112t-26.112 5.632q-16.384 0-48.128 0.512t-72.704 0.512l-83.968 0-83.968 0q-40.96 0-73.728 0.512t-49.152 0.512q-11.264 0-22.528 2.048t-20.992 8.192-15.872 17.408-6.144 30.72l0 74.752q1.024 35.84 17.92 48.128t52.736 12.288q11.264 0 40.448-0.512t67.072-0.512l80.896 0 82.944 0q38.912 0 70.144-0.512t46.592-0.512q31.744-1.024 42.496 5.12t10.752 28.672q0 8.192 0.512 19.968t0.512 24.576 0.512 25.088 0.512 21.504q1.024 29.696 16.896 37.376t40.448-12.8 66.048-47.104 86.016-55.296 86.528-55.808 68.608-48.64z"  horiz-adv-x="1033" />

    
    <glyph glyph-name="zhifubao" unicode="&#59120;" d="M126.722555 612.718563q0 13.285429 21.461078 16.862275t54.163673 7.153693 71.536926 12.263473 73.580838 33.213573q24.526946 16.351297 45.477046 35.257485t40.367265 36.279441 38.323353 31.680639 40.367265 22.483034l0-380.167665-381.189621 0q-2.043912 41.9002-3.065868 87.377246t-1.021956 97.596806zM471.121756-189.516966q-56.207585 42.922156-101.173653 80.734531t-80.223553 75.62475-61.317365 78.179641-44.966068 87.377246-30.658683 102.706587-17.884232 126.211577l377.101796 0 0-568.207585q-11.241517 3.065868-21.461078 7.153693t-19.417166 10.219561zM576.383234 361.317365l375.057884 0q-5.10978-70.51497-15.840319-125.189621t-27.592814-100.151697-41.9002-84.311377-59.273453-77.157685-79.201597-79.712575-101.173653-91.46507q-22.483034-12.263473-50.075848-15.329341l0 573.317365zM757.269461 666.882236q28.61477-20.439122 63.361277-26.570858t65.40519-8.175649 51.608782-3.576846 20.9501-11.752495q0-106.283433-3.065868-189.061876l-379.145709 0 0 384.255489q25.548902-6.131737 48.031936-22.994012t43.433134-37.812375 42.411178-43.433134 47.00998-40.878244z"  horiz-adv-x="1024" />

    
    <glyph glyph-name="wangzhanshezhi" unicode="&#59130;" d="M485.508458 16.234826q1.018905-1.018905 1.018905-2.037811-1.018905 0-3.056716-2.037811 2.037811 2.037811 2.037811 4.075622zM487.546269 41.707463q0-4.075622 1.018905-7.132338l2.037811-6.113433q-1.018905-4.075622-5.094527-12.226866-10.189055 17.321393 0 24.453731zM483.470647 12.159204q-2.037811-5.094527-5.60398-11.20796t-6.622886-11.20796q-3.056716 3.056716-4.075622 10.189055 4.075622 3.056716 7.641791 6.113433t8.660697 6.113433zM513.018905 12.159204q9.170149 2.037811 17.321393-1.018905 7.132338-2.037811 14.264677-8.660697t12.226866-20.887562q8.151244-21.397015 1.528358-41.265672t-19.868657-31.076617q-10.189055-8.151244-12.736318-14.774129t-0.509453-11.717413q1.018905-6.113433 5.094527-13.245771t9.170149-15.283582l-4.075622 0q-98.833831 0-185.950249 37.699502t-152.326368 102.4-102.909453 151.816915-37.699502 186.969154q0 98.833831 37.699502 185.950249t102.909453 152.326368 152.326368 102.909453 185.950249 37.699502 186.459701-37.699502 152.326368-102.909453 102.4-152.326368 37.699502-185.950249l0-15.283582q0-7.132338-1.018905-15.283582-4.075622 2.037811-7.641791 4.075622t-6.622886 4.075622q-6.113433 2.037811-13.755224-0.509453t-12.736318-6.622886q-8.151244-8.151244-15.793035-9.679602t-16.302488 1.018905-18.340299 7.132338-20.887562 9.679602q-22.41592 9.170149-38.208955 16.81194t-14.774129 28.0199q0 6.113433-2.547264 13.245771t-10.698507 11.20796q-6.113433 3.056716-17.830846 5.60398t-24.963184 3.056716-25.98209-2.037811-20.887562-9.679602q-3.056716-4.075622-4.075622-9.170149l-2.037811-10.189055q-2.037811-8.151244-7.132338-20.378109t-27.510448-21.397015q-11.20796-4.075622-20.378109-10.189055t-16.81194-10.189055-15.283582-4.075622-15.793035 8.151244q-9.170149 9.170149-20.378109 8.151244-8.151244-1.018905-16.81194-6.622886t-16.81194-13.245771-15.283582-16.81194-10.189055-17.321393q-1.018905-1.018905-1.018905-3.056716-1.018905 2.037811-1.018905 5.094527t-1.018905 7.132338q-2.037811 21.397015-16.302488 36.680597t-32.604975 17.321393q-14.264677 1.018905-21.906468 5.094527t-14.774129 8.151244-16.81194 7.641791-29.038806 4.585075q-27.510448 1.018905-39.227861 2.547264t-16.81194 2.547264-8.151244 2.037811-12.226866 0q-9.170149 0-32.604975-8.151244t-47.379104-18.849751-42.284577-22.41592-18.340299-18.849751q0-40.756219 8.660697-65.719403t18.849751-35.152239q5.094527-5.094527 13.755224-6.622886t18.849751-2.547264 18.849751-2.547264 13.755224-7.641791q11.20796-12.226866 25.98209-10.189055t28.529353 6.622886 23.434826 3.566169 10.698507-19.359204q0-8.151244 3.056716-12.226866t8.151244-6.113433l12.226866-6.113433q7.132338-4.075622 15.283582-11.20796 8.151244-8.151244 5.60398-15.283582t-8.151244-13.755224-10.189055-14.264677 0.509453-14.774129q7.132338-11.20796 15.283582-16.302488t15.793035-8.660697 13.245771-8.151244 8.660697-14.774129q0-1.018905 1.018905-1.018905-14.264677-10.189055-15.283582-23.434826-2.037811-11.20796 4.585075-5.60398t14.774129 18.849751q1.018905-2.037811 3.056716 0 1.018905 1.018905 1.018905 3.056716 1.018905-1.018905 10.698507-8.660697t20.887562-15.283582 21.397015-12.736318 12.226866-2.037811q1.018905 2.037811-4.585075 8.151244t-14.264677 14.774129-18.849751 18.340299-16.302488 18.849751q6.113433 3.056716 9.170149 6.113433 8.151244-7.132338 17.321393-8.151244zM516.075622 572.557214q-8.151244 0-25.472637-4.585075t-35.152239-15.283582-30.567164-27.510448-11.717413-41.265672q1.018905-27.510448 9.679602-35.661692t22.41592-9.170149 32.604975-2.037811 41.265672-13.245771q25.472637-2.037811 47.888557-6.113433 19.359204-3.056716 39.227861-7.641791t33.114428-12.736318q15.283582-9.170149 10.698507-14.774129t-13.755224-9.170149-16.302488-8.151244 4.075622-12.736318q15.283582-11.20796 19.359204-10.698507t8.660697 6.113433 15.793035 12.226866 40.756219 6.622886q-8.151244 0-4.585075 3.566169t12.226866 8.660697 19.359204 12.226866 18.849751 13.245771q5.094527 5.094527 17.321393 3.056716t28.0199-6.113433 33.114428-9.170149 31.58607-7.132338 23.434826 1.528358 10.189055 15.793035q1.018905 18.340299-0.509453 34.133333t-6.622886 31.076617-13.755224 32.095522-21.906468 38.208955q-14.264677 22.41592-25.472637 37.699502t-22.41592 25.98209-23.434826 19.359204-28.529353 17.830846-32.095522 19.868657-34.133333 14.264677-39.737313-4.585075-47.888557-35.661692q-8.151244-7.132338-18.849751-17.830846t-22.925373-19.868657-23.944279-15.793035-19.868657-6.622886zM558.869652 224.091542l12.226866-12.226866q4.075622-4.075622 4.585075-8.151244t-1.528358-10.189055-7.132338-17.321393q-5.094527-13.245771-11.20796-24.963184t-14.264677-19.868657q6.113433 7.132338 9.170149 15.283582 7.132338 22.41592 8.151244 40.756219t-1.018905 38.718408l1.018905-1.018905 0-1.018905zM1015.339303 103.860697q4.075622-8.151244 3.566169-22.41592t-4.585075-26.491542q-2.037811-8.151244-6.622886-10.698507t-8.660697-2.547264q-15.283582 1.018905-29.548259-6.622886t-20.378109-21.906468-3.056716-28.0199 14.264677-24.963184q1.018905-2.037811 3.056716-5.094527 1.018905-2.037811 2.037811-5.60398t0-6.622886q-2.037811-11.20796-15.793035-24.963184t-25.98209-14.774129q-6.113433-1.018905-9.679602 1.018905t-7.641791 5.094527q-8.151244 7.132338-22.41592 13.245771t-28.529353 1.018905q-14.264677-6.113433-21.397015-19.359204t-7.132338-27.510448q0-11.20796-9.170149-16.302488-8.151244-5.094527-25.472637-4.585075t-28.529353 5.60398q-8.151244 3.056716-8.151244 14.264677 0 14.264677-7.132338 28.529353t-21.397015 21.397015q-14.264677 6.113433-30.057711 1.528358t-25.98209-15.793035q-7.132338-7.132338-19.359204-2.037811-11.20796 5.094527-24.453731 18.849751t-15.283582 24.963184q-2.037811 8.151244 8.151244 18.340299 8.151244 7.132338 12.736318 20.378109t-0.509453 27.510448q-3.056716 9.170149-10.189055 14.264677t-15.283582 8.151244q-9.170149 3.056716-19.359204 4.075622-8.151244 2.037811-11.20796 6.113433-8.151244 8.151244-7.641791 28.0199t6.622886 30.057711q6.113433 9.170149 13.245771 8.151244 15.283582 0 30.057711 7.132338t20.887562 21.397015 1.018905 29.548259-15.283582 26.491542q-7.132338 7.132338-2.037811 19.359204 5.094527 11.20796 16.81194 22.41592t21.906468 13.245771q7.132338 1.018905 14.264677-6.113433 10.189055-10.189055 24.963184-13.755224t29.038806 1.528358q7.132338 3.056716 12.736318 9.679602t9.170149 13.245771 5.60398 12.736318 2.037811 9.170149q1.018905 2.037811 1.528358 6.113433t3.566169 6.113433q5.094527 4.075622 13.245771 5.60398t16.81194 1.528358 16.81194-2.037811l12.226866-3.056716q5.094527-2.037811 6.622886-7.132338t1.528358-9.170149q-1.018905-14.264677 6.113433-27.000995t21.397015-18.849751 29.038806-3.056716 24.963184 14.264677q3.056716 2.037811 8.151244 4.075622t9.170149 0q11.20796-5.094527 23.434826-17.321393t14.264677-26.491542q1.018905-4.075622-1.528358-7.641791t-4.585075-5.60398q-11.20796-10.189055-14.774129-24.453731t2.547264-28.529353 20.378109-21.397015 28.529353-7.132338q11.20796 2.037811 16.302488-9.170149zM858.427861 47.820896q11.20796 27.510448 0 55.020896t-37.699502 39.737313q-27.510448 11.20796-55.530348 0t-39.227861-37.699502q-12.226866-27.510448-3.566169-57.568159t38.208955-42.284577l2.037811 3.056716q29.548259-13.245771 56.549254-0.509453t39.227861 40.246766z"  horiz-adv-x="1024" />

    
    <glyph glyph-name="wangzhanguanli" unicode="&#59132;" d="M775.372393 233.39424q-32.540218 0-54.403178-22.879841t-21.862959-57.453823l0-270.490566q-38.641509-14.236346-79.316783-21.354518t-84.401192-7.118173q-99.654419 0-186.597815 37.624628t-152.023833 102.196624-102.705065 152.023833-37.624628 187.106256q0 98.637537 37.624628 186.089374t102.705065 152.532274 152.023833 102.705065 186.597815 37.624628q98.637537 0 186.089374-37.624628t152.532274-102.705065 102.705065-152.532274 37.624628-186.089374q0-26.438928-2.542205-51.352532t-7.626614-48.301887l-228.798411 0zM620.806356 200.854022q3.050645 4.067527-3.050645 10.168818t-14.236346 13.727905-14.236346 15.253227-4.067527 15.761668q5.084409 16.270109 10.677259 28.472691t6.101291 20.337637-7.118173 12.202582-28.981132 4.067527q-11.1857 0-18.812314-1.016882t-13.727905-1.525323-12.711023-1.016882-15.761668 0.508441q-14.236346 1.016882-21.862959 5.084409t-14.744786 8.135055-17.286991 7.626614-29.489573 4.575968q-27.455809 1.016882-39.14995 2.033764t-16.77855 2.542205-8.135055 2.033764-12.202582 0.508441-32.540218-8.135055-47.285005-19.320755-42.200596-22.3714-18.303873-18.303873q0-41.692155 8.643496-66.097319t19.829196-35.590864q5.084409-5.084409 13.727905-6.609732t18.812314-2.542205 18.812314-2.542205 13.727905-7.626614q10.168818-12.202582 24.913605-9.660377t28.472691 6.609732 23.896723 3.050645 11.1857-19.320755q0-8.135055 3.050645-12.202582t7.626614-6.609732 11.694141-6.101291 15.253227-10.677259q9.151936-8.135055 6.609732-15.253227t-8.135055-13.727905-10.168818-14.236346 0.508441-14.744786q7.118173-11.1857 15.253227-16.270109t15.761668-9.151936 13.727905-8.643496 8.135055-14.744786q1.016882-3.050645 8.135055-11.694141t13.727905-17.286991 10.677259-15.253227-2.033764-4.575968q12.202582-3.050645 25.930487-3.050645t17.795432 6.101291q2.033764 4.067527 2.033764 3.050645t3.050645 0 15.253227 9.151936 16.270109 21.862959 4.067527 29.489573-1.525323 32.031778 0.508441 30.506455q2.033764 13.219464 6.609732 19.320755t8.135055 10.677259 6.101291 12.711023-0.508441 26.438928q-3.050645 23.388282 6.101291 33.5571t14.236346 18.303873zM738.764647 351.352532q-8.135055 0-3.050645-4.575968t15.761668-8.643496 22.879841-5.084409 20.337637 5.084409q7.118173 7.118173 23.896723 11.1857t34.065541 9.660377 30.506455 15.253227 15.253227 27.96425q1.016882 18.303873-0.508441 34.065541t-6.609732 31.523337-13.727905 32.540218-21.862959 38.133069q-14.236346 22.3714-25.930487 37.116187t-22.879841 25.422046-23.388282 19.320755-28.472691 18.812314q-15.253227 9.151936-31.523337 19.829196t-34.573982 14.236346-39.658391-4.575968-47.793446-35.590864q-8.135055-8.135055-18.812314-18.303873t-22.879841-19.829196-23.896723-15.761668-19.829196-6.101291-25.930487-4.575968-35.082423-15.253227-29.998014-27.96425-11.694141-41.692155q1.016882-27.455809 9.660377-35.590864t22.3714-9.151936 32.540218-2.033764 41.183714-13.219464q25.422046-1.016882 47.793446-5.084409 19.320755-3.050645 39.14995-8.135055t33.048659-13.219464q15.253227-9.151936 12.202582-13.219464t-10.677259-7.118173-12.711023-6.101291 6.101291-11.1857q15.253227-12.202582 22.879841-14.744786t15.761668-1.016882 22.3714 4.575968 43.725919 3.050645zM979.765641 170.347567q17.286991 0 28.472691-11.694141t11.1857-27.96425l0-204.393247q0-7.118173-9.151936-19.320755t-22.3714-23.388282-26.438928-19.829196-21.354518-8.643496l-137.279047 0q-17.286991 0-28.472691 11.1857t-11.1857 27.455809l0 236.933466q0 16.270109 11.1857 27.96425t28.472691 11.694141l176.937438 0zM838.419067 107.300894q-8.135055 0-11.1857-14.236346t-3.050645-22.3714q0-9.151936 3.559086-18.303873t10.677259-9.151936l104.738828 0q4.067527 0 6.609732 4.575968t3.559086 9.660377q1.016882 6.101291 1.016882 14.236346 0 9.151936-2.033764 22.3714t-9.151936 13.219464l-104.738828 0zM953.326713-65.569017q3.050645 12.202582 3.050645 22.3714 0 8.135055-3.559086 15.761668t-13.727905 7.626614l-96.603774 0q-8.135055 0-11.1857-7.626614t-4.067527-15.761668q-1.016882-10.168818 1.016882-22.3714 0-8.135055 6.101291-14.236346t12.202582-6.101291l89.485601 0q8.135055 0 12.711023 6.101291t4.575968 14.236346z"  horiz-adv-x="1024" />

    
    <glyph glyph-name="paixu" unicode="&#59134;" d="M564.224 767.968q43.008 0 58.368-20.48t15.36-65.536q0-20.48 0.512-64.512t0.512-93.696 0.512-96.768 0.512-74.752q0-38.912 7.68-61.952t35.328-22.016q19.456 0 48.128-1.024t49.152-1.024q35.84 0 45.568-18.944t-13.824-49.664q-24.576-30.72-57.344-72.704t-68.096-86.016-69.12-86.528-59.392-75.264q-23.552-29.696-45.568-30.72t-45.568 27.648q-24.576 29.696-57.344 69.632t-67.072 82.432-67.584 83.968-59.904 74.24q-29.696 35.84-22.528 58.88t44.032 23.04l24.576 0q14.336 0 29.696 0.512t30.208 1.536 26.112 1.024q26.624 0 32.768 15.36t6.144 41.984q0 29.696-0.512 77.824t-0.512 100.352-0.512 101.376-0.512 79.872q0 13.312 2.048 27.648t9.728 26.112 20.992 19.456 36.864 7.68q27.648 0 53.248 0.512t57.344 0.512z"  horiz-adv-x="1024" />

    
    <glyph glyph-name="xiangzuo" unicode="&#59135;" d="M966.656 244.704q0-43.008-20.48-58.368t-65.536-15.36l-64.512 0q-44.032 0-93.696-0.512t-96.768-0.512l-74.752 0q-38.912 0-61.952-7.68t-22.016-35.328q0-20.48-1.024-48.64t-1.024-49.664q0-35.84-19.456-45.568t-50.176 13.824q-30.72 24.576-72.704 57.856t-85.504 68.096-86.016 68.608-75.264 59.392q-30.72 24.576-31.232 46.592t28.16 45.568q28.672 24.576 68.608 56.832t82.944 66.56 84.48 68.096 74.24 60.416q35.84 28.672 58.88 22.016t23.04-43.52l0-25.6q0-14.336 0.512-29.696t1.024-30.208 0.512-26.112q1.024-25.6 16.384-32.256t41.984-6.656q29.696 0 77.824 0.512t100.352 0.512 101.376 0.512 79.872 0.512q13.312 0 27.648-2.048t26.112-9.728 19.456-21.504 7.68-36.352q0-27.648 0.512-53.248t0.512-57.344z"  horiz-adv-x="1024" />

    
    <glyph glyph-name="xiangshang" unicode="&#59136;" d="M470.016-164.896q-44.032 0-59.392 20.48t-15.36 65.536q0 20.48-0.512 64.512t-1.024 93.696-1.536 96.768-1.024 74.752q0 39.936-7.68 62.464t-35.328 21.504q-20.48 0-48.64 1.024t-49.664 0q-35.84 0-45.568 19.456t13.824 50.176q24.576 30.72 57.344 72.704t67.584 86.016 68.096 87.04 58.88 75.776q23.552 29.696 45.568 30.72t46.592-26.624q24.576-29.696 56.832-69.632t67.072-82.432 68.608-83.968 60.416-73.216q29.696-35.84 23.04-58.88t-43.52-23.04q-11.264 0-25.088-0.512t-29.184-1.024-30.208-1.024-27.136-0.512q-25.6-1.024-32.256-16.384t-5.632-41.984q0-29.696 0.512-77.824t1.024-100.352 1.536-101.376 1.024-79.872q0-13.312-2.048-27.648t-9.728-26.112-21.504-19.968-36.352-8.192q-27.648 0-52.736-0.512t-56.832-1.536z"  horiz-adv-x="1024" />

    
    <glyph glyph-name="xiangyou" unicode="&#59137;" d="M47.104 358.368q0 43.008 20.992 57.856t66.048 14.848q20.48 0 64.512-0.512t93.696-0.512 96.768-0.512 74.752-0.512q38.912-1.024 61.44 6.656t22.528 35.328q0 20.48 1.536 48.64t1.536 48.64q1.024 35.84 20.48 45.568t49.152-14.848q30.72-24.576 71.68-58.368t84.992-69.12 86.016-69.632 74.752-59.904q29.696-24.576 30.208-46.592t-28.16-45.568q-29.696-24.576-70.144-56.32t-83.968-65.536-85.504-67.072-74.752-58.88q-35.84-28.672-58.88-21.504t-22.016 44.032l0 24.576 0 29.696q0 15.36-0.512 30.208t-0.512 27.136q0 25.6-15.36 32.256t-41.984 6.656q-29.696 0-77.824 0.512t-100.352 0.512-101.376 0.512-79.872 0.512q-13.312 0-27.648 2.56t-26.112 9.728-18.944 20.992-7.168 37.376q0 27.648-0.512 53.248t0.512 57.344z"  horiz-adv-x="1024" />

    
    <glyph glyph-name="shouye" unicode="&#59160;" d="M1001.423238 317.408q21.504-20.48 22.528-45.056t-16.384-40.96q-19.456-17.408-45.056-16.384t-40.96 14.336q-5.12 4.096-31.232 28.672t-62.464 58.88-77.824 73.728-78.336 74.24-63.488 60.416-33.792 31.744q-32.768 29.696-64.512 28.672t-62.464-28.672q-10.24-9.216-38.4-35.328t-65.024-60.928-77.824-72.704-75.776-70.656-59.904-55.808-30.208-27.136q-15.36-12.288-40.96-13.312t-44.032 15.36q-20.48 18.432-19.456 44.544t17.408 41.472q6.144 6.144 37.888 35.84t75.776 70.656 94.72 88.064 94.208 88.064 74.752 70.144 36.352 34.304q38.912 37.888 83.968 38.4t76.8-30.208q6.144-5.12 25.6-24.064t47.616-46.08 62.976-60.928 70.656-68.096 70.144-68.096 62.976-60.928 48.128-46.592zM447.439238 465.888q25.6 23.552 61.44 25.088t64.512-25.088q3.072-3.072 18.432-17.408l38.912-35.84q22.528-21.504 50.688-48.128t57.856-53.248q68.608-63.488 153.6-142.336l0-194.56q0-22.528-16.896-39.936t-45.568-18.432l-193.536 0 0 158.72q0 33.792-31.744 33.792l-195.584 0q-17.408 0-24.064-10.24t-6.656-23.552q0-6.144-0.512-31.232t-0.512-53.76l0-73.728-187.392 0q-29.696 0-47.104 13.312t-17.408 37.888l0 203.776q83.968 76.8 152.576 139.264 28.672 26.624 57.344 52.736t52.224 47.616 39.424 36.352 19.968 18.944z"  horiz-adv-x="1029" />

    
    <glyph glyph-name="sousuo" unicode="&#59161;" d="M929.792-16.416q28.672-32.768 31.232-57.344t-18.944-48.128q-24.576-27.648-54.272-26.112t-57.344 24.064l-172.032 165.888q-46.08-29.696-98.816-46.08t-111.104-16.384q-79.872 0-149.504 30.208t-121.856 82.432-82.432 121.856-30.208 149.504 30.208 149.504 82.432 121.856 121.856 82.432 149.504 30.208 149.504-30.208 121.856-82.432 82.432-121.856 30.208-149.504q0-60.416-17.408-114.688t-49.152-100.352l33.792-33.792q24.576-24.576 51.712-51.2t49.664-50.176 28.672-29.696zM452.608 107.488q53.248 0 100.352 19.968t81.92 54.784 54.784 81.92 19.968 100.352-19.968 100.352-54.784 81.92-81.92 54.784-100.352 19.968-100.352-19.968-81.92-54.784-54.784-81.92-19.968-100.352 19.968-100.352 54.784-81.92 81.92-54.784 100.352-19.968z"  horiz-adv-x="1024" />

    
    <glyph glyph-name="yonghu" unicode="&#59162;" d="M541.636727 812q29.636727 0 58.762475-6.642715t54.674651-17.884232 45.477046-25.548902 31.169661-28.61477q26.570858-32.702595 38.834331-72.047904t17.373253-75.113772q5.10978-40.878244 5.10978-82.778443 7.153693-5.10978 11.241517-13.285429 4.087824-7.153693 6.642715-18.39521t0.510978-27.592814q-2.043912-21.461078-8.686627-34.235529t-14.818363-19.928144q-9.197605-8.175649-19.417166-11.241517-5.10978-17.373253-10.219561-32.702595-5.10978-13.285429-11.752495-26.05988t-14.818363-19.928144q-19.417166-15.329341-31.680639-26.05988t-16.351297-36.279441q-3.065868-15.329341-2.043912-31.169661t8.686627-31.680639 23.50499-30.147705 44.45509-25.548902q25.548902-10.219561 55.696607-18.39521t58.762475-18.906188 50.586826-26.570858 31.169661-43.433134q5.10978-16.351297 7.664671-40.367265t2.55489-48.542914-3.576846-45.988024-10.730539-32.702595q-5.10978-7.153693-29.125749-14.307385t-59.273453-13.796407-78.690619-11.752495-87.377246-8.686627-84.311377-5.620758-70.003992-2.043912-68.982036 2.043912-81.245509 5.620758-83.289421 8.175649-75.113772 9.708583-57.229541 10.219561-29.636727 10.219561q-10.219561 8.175649-15.840319 50.075848t4.598802 108.327345q5.10978 37.812375 30.147705 57.740519t58.251497 31.680639 68.982036 20.9501 63.361277 26.570858q21.461078 13.285429 32.702595 25.548902t16.351297 24.526946 5.10978 25.548902-1.021956 29.636727q-2.043912 23.50499-16.351297 37.301397t-31.680639 28.103792q-8.175649 7.153693-14.307385 19.928144t-11.241517 26.05988q-5.10978 15.329341-10.219561 32.702595-7.153693 2.043912-14.307385 7.153693-6.131737 5.10978-13.285429 14.307385t-12.263473 26.570858q-6.131737 17.373253-4.598802 31.680639t5.620758 24.526946q4.087824 11.241517 13.285429 21.461078-1.021956 38.834331 4.087824 77.668663 4.087824 32.702595 14.818363 70.51497t32.191617 67.449102q19.417166 28.61477 43.433134 46.499002t49.053892 28.103792 50.075848 13.796407 48.542914 3.576846z"  horiz-adv-x="1024" />

    
    <glyph glyph-name="heimingdan" unicode="&#59163;" d="M796.829353 297.964215q45.805169 0 86.520875-17.304175t71.252485-47.840954 48.349901-71.252485 17.813121-86.520875-17.813121-86.520875-48.349901-71.252485-71.252485-48.349901-86.520875-17.813121q-46.823062 0-87.538767 17.813121t-71.252485 48.349901-47.840954 71.252485-17.304175 86.520875 17.304175 86.520875 47.840954 71.252485 71.252485 47.840954 87.538767 17.304175zM907.779651 40.437376q15.26839 0 25.956262 9.161034t10.687873 24.429423-10.687873 25.956262-25.956262 10.687873l-219.864811 0q-15.26839 0-25.956262-10.687873t-10.687873-25.956262 10.687873-24.429423 25.956262-9.161034l219.864811 0zM500.622594-17.582505q4.071571-20.357853 13.232604-42.751491t26.974155-45.296223 44.787276-45.296223 68.707753-41.733598q-27.483101-6.107356-64.127237-10.178926-31.554672-4.071571-76.341948-6.616302t-102.807157-2.544732q-29.518887 0-68.198807 2.035785t-80.413519 5.59841-82.449304 8.652087-74.306163 10.178926-57.001988 10.178926-29.518887 10.178926q-10.178926 8.143141-15.777336 49.87674t4.580517 107.89662q6.107356 37.662028 30.536779 57.510934t57.510934 31.554672 68.198807 20.866799 62.600398 26.465209q21.375746 13.232604 33.081511 25.956262t16.286282 24.93837 4.580517 25.447316-1.017893 29.518887q-2.035785 23.411531-16.286282 37.153082t-30.536779 27.992048q-8.143141 7.125249-14.759443 19.848907t-11.705765 25.956262q-5.089463 15.26839-10.178926 32.572565-7.125249 2.035785-14.250497 7.125249-6.107356 5.089463-12.723658 14.250497t-11.705765 26.465209q-6.107356 17.304175-4.580517 31.554672t5.59841 25.447316 13.232604 21.375746q0 38.67992 4.071571 77.359841 4.071571 32.572565 14.250497 70.234592t31.554672 67.180915q19.33996 28.500994 43.260437 46.823062t48.349901 28.500994 49.367793 13.741551 48.349901 3.562624q29.518887 0 57.001988-7.125249t50.894632-18.322068 41.733598-25.447316 29.518887-28.500994q26.465209-32.572565 38.67992-71.761431t17.304175-74.815109q5.089463-40.715706 5.089463-82.449304 7.125249-5.089463 11.196819-13.232604 4.071571-7.125249 6.616302-18.322068t0.508946-28.500994q-2.035785-21.375746-8.652087-34.099404t-14.759443-19.848907q-9.161034-8.143141-19.33996-11.196819-5.089463-17.304175-10.178926-32.572565-5.089463-13.232604-11.705765-25.956262t-14.759443-19.848907q-9.161034-8.143141-14.250497-16.286282t-8.143141-16.286282-6.616302-17.813121-10.687873-19.848907q-47.840954-73.28827-55.475149-132.326044t5.59841-115.021869z"  horiz-adv-x="1024" />

    
    <glyph glyph-name="wenben" unicode="&#59165;" d="M823.296 751.584q65.536 0 99.328-38.4t33.792-93.696l0-543.744q0-25.6-21.504-46.08l-171.008-163.84q-13.312-11.264-22.528-14.336t-23.552-3.072l-459.776 0q-23.552 0-47.104 9.728t-41.984 27.648-30.208 43.008-11.776 55.808l0 634.88q0 60.416 33.28 96.256t94.72 35.84l568.32 0zM608.256 109.536q13.312 0 22.528 9.216t9.216 22.528q0 14.336-9.216 23.04t-22.528 8.704l-320.512 0q-13.312 0-22.528-8.704t-9.216-23.04q0-13.312 9.216-22.528t22.528-9.216l320.512 0zM736.256 302.048q13.312 0 22.528 9.216t9.216 22.528-9.216 22.528-22.528 9.216l-448.512 0q-13.312 0-22.528-9.216t-9.216-22.528 9.216-22.528 22.528-9.216l448.512 0zM799.744 493.536q13.312 0 22.528 9.216t9.216 23.552q0 13.312-9.216 22.528t-22.528 9.216l-512 0q-13.312 0-22.528-9.216t-9.216-22.528q0-14.336 9.216-23.552t22.528-9.216l512 0z"  horiz-adv-x="1024" />

    
    <glyph glyph-name="baocun" unicode="&#59166;" d="M949.248 614.368q7.168-8.192 8.192-18.944t1.024-16.896l0-549.888q0-48.128-32.768-80.896t-87.04-32.768l-591.872 0q-55.296 0-87.552 27.648t-32.256 83.968l0 599.04q0 55.296 32.256 88.576t87.552 33.28l542.72 0q10.24 0 20.48-2.56t14.336-6.656zM768 651.232q-2.048 31.744-33.792 31.744l-446.464 0q-15.36 1.024-24.576-8.192t-9.216-21.504l0-166.912q0-10.24 4.608-20.992t12.8-19.456 18.944-14.336 23.04-5.632l389.12 0q27.648 0 46.592 16.384t18.944 49.152l0 159.744zM768 190.432q0 44.032-45.056 45.056l-422.912 0q-23.552 0-34.816-12.288t-11.264-32.768l0-149.504 514.048 0 0 149.504z"  horiz-adv-x="1024" />

    
    <glyph glyph-name="mingpian" unicode="&#59171;" d="M960.512 687.072q26.624 0 45.568-18.432t18.944-45.056l0-645.12q0-26.624-18.944-45.056t-45.568-18.432l-287.744 0q-14.336 0-23.552 8.704t-9.216 22.016l0 28.672 0 2.048 0 51.2q0 27.648-6.656 54.784t-20.48 47.616-34.816 33.28-49.664 12.8l-289.792 0q-28.672 0-50.176-12.8t-35.328-33.28-20.48-47.616-6.656-54.784l0-4.096 0-47.104 0-28.672 0-2.048q0-6.144-5.12-11.776t-12.288-9.728-15.872-6.656-14.848-2.56l19.456 0-32.768 0q-26.624 0-45.568 18.432t-18.944 45.056l0 625.664q0 36.864 22.528 59.904t58.368 23.04l879.616 0zM384 244.704q39.936 0 74.752 14.848t60.928 40.448 41.472 59.904 15.36 73.216-15.36 73.728-41.472 60.416-60.928 40.448-74.752 14.848-75.264-14.848-61.44-40.448-41.472-60.416-15.36-73.728 15.36-73.216 41.472-59.904 61.44-40.448 75.264-14.848z"  horiz-adv-x="1026" />

    
    <glyph glyph-name="tupian" unicode="&#59172;" d="M310.272 613.344q19.456 0 37.376-7.68t30.72-20.48 20.48-30.208 7.68-36.864q0-39.936-28.16-67.584t-68.096-27.648q-19.456 0-36.864 7.168t-30.208 20.48-20.48 30.208-7.68 37.376q0 19.456 7.68 36.864t20.48 30.208 30.208 20.48 36.864 7.68zM875.52 762.848q52.224 0 74.24-29.184t22.016-76.288l0-735.232q0-14.336-6.656-29.184t-18.432-26.112-27.136-18.432-33.792-7.168l-754.688 0q-31.744 0-55.808 25.6t-24.064 61.44l0 749.568q0 36.864 20.48 60.928t54.272 24.064l749.568 0zM879.616 643.04q0 11.264-8.704 19.968t-20.992 8.704l-677.888 0q-12.288 0-20.48-8.704t-8.192-19.968l0-1.024 0-366.592q10.24-12.288 27.136-28.16t39.936-29.696 52.224-23.552 65.024-9.728q55.296 0 97.28 17.92t79.36 44.032 73.216 57.344 78.336 58.368 96.768 46.08 126.976 22.016l0 212.992z"  horiz-adv-x="1024" />

    
    <glyph glyph-name="youjian" unicode="&#59173;" d="M80.896 521.184q-11.264 8.192-13.824 12.8t-2.56 13.824l0 18.432q0 23.552 12.8 38.4t42.496 14.848l785.408-1.024q31.744 0 44.032-13.312t12.288-36.864l0-20.48q0-9.216-2.048-12.288t-14.336-14.336l-389.12-224.256q-9.216-5.12-23.552-11.776t-19.456-6.656q-11.264 0-41.984 19.456l-16.384 10.24q-17.408 9.216-45.056 24.576t-62.464 35.328-71.68 41.472q-86.016 49.152-194.56 111.616zM923.648 443.36q17.408 11.264 27.648 9.216t10.24-16.384l0-357.376q0-34.816-7.68-54.784t-21.504-30.208-32.256-12.8-39.936-2.56l-684.032 0q-34.816 0-56.32 9.216t-33.792 23.552-17.408 33.28-5.12 38.4l0 344.064q0 19.456 9.728 24.576t24.064-5.12q6.144-4.096 31.232-19.968t54.272-33.792 53.76-33.28 29.696-18.432q12.288-8.192 11.776-16.896t-5.632-17.92q-4.096-7.168-11.776-23.552t-16.384-33.792-16.384-33.28-11.776-23.04-2.56-12.288 5.12-7.68 9.216-1.536 10.752 7.168q3.072 3.072 14.848 16.896t26.112 29.696 27.136 30.208 16.896 18.432q5.12 5.12 15.36 11.264t19.456 0q6.144-3.072 20.48-12.288t30.72-19.456l32.768-22.528q16.384-10.24 28.672-17.408 12.288-8.192 25.088-10.24t24.064-0.512 20.992 4.608 14.848 6.144 21.504 12.8 35.328 21.504 35.84 22.016 23.04 14.336q10.24 6.144 18.432 4.096t16.384-10.24q3.072-3.072 14.848-16.896t25.6-30.72 25.6-32.256 16.896-21.504 11.264-6.656 10.752 3.072 6.144 9.728-2.56 13.312q-2.048 3.072-8.192 18.432l-13.312 32.768q-7.168 18.432-14.336 35.328t-11.264 24.064q-8.192 16.384-8.704 24.576t10.752 15.36q2.048 1.024 23.04 14.848t47.104 30.208 50.176 31.744 33.28 20.48z"  horiz-adv-x="1024" />

    
    <glyph glyph-name="chexiao" unicode="&#59175;" d="M894.976 237.536q0-78.848-29.696-148.48t-81.408-123.392-121.856-88.064-151.04-41.472q-5.12-1.024-9.216-1.536t-9.216-0.512l-177.152 0q-17.408 0-34.304 6.144t-30.208 16.896-22.016 25.088-8.704 29.696 8.192 29.696 21.504 24.576 29.696 16.384 33.792 6.144l158.72-1.024q54.272 0 102.4 19.968t83.968 53.76 56.32 79.36 20.48 97.792q0 49.152-18.432 92.16t-50.688 76.8-75.264 54.784-93.184 26.112q-2.048 0-2.56-0.512t-2.56-0.512l-162.816 0 0-80.896q0-17.408-13.824-25.6t-44.544 10.24q-8.192 5.12-26.112 17.92t-41.984 30.208-50.688 36.864l-51.2 38.912q-15.36 12.288-26.624 22.016t-11.264 24.064q0 12.288 12.8 25.6t29.184 26.624q18.432 15.36 44.032 35.84t50.688 39.936 45.056 35.328 28.16 22.016q24.576 17.408 39.936 7.168t16.384-30.72l0-81.92 162.816 0q5.12 0 10.752-1.024t10.752-2.048q79.872-8.192 149.504-41.984t121.344-87.552 80.896-123.392 29.184-147.456z"  horiz-adv-x="1024" />

    
    <glyph glyph-name="zhongzuo" unicode="&#59176;" d="M108.544 239.584q0 77.824 29.184 147.456t80.896 123.392 121.344 87.552 149.504 41.984q10.24 3.072 21.504 3.072l162.816 0 0 81.92q1.024 20.48 16.384 30.72t39.936-7.168q7.168-5.12 27.648-20.992t45.568-35.84 50.688-40.448 44.032-35.84q16.384-13.312 28.672-26.624t12.288-25.6q0-14.336-10.752-24.064t-26.112-22.016l-51.2-38.912q-26.624-19.456-50.688-36.864t-42.496-30.208-26.624-16.896q-15.36-9.216-26.112-11.776t-17.408 0.512-10.24 10.24-3.584 15.36l0 81.92-162.816 0-5.12 0q-50.176-5.12-93.184-26.112t-75.264-54.784-50.688-76.8-18.432-92.16q0-52.224 20.48-97.792t56.32-79.36 83.968-53.76 102.4-19.968l158.72 1.024q16.384 0 33.28-6.144t29.696-16.384 20.992-24.064 8.192-30.208q0-15.36-8.192-29.696t-22.016-24.576-30.72-16.384-33.28-6.144l-177.152 0-9.216 0q-4.096 0-9.216 1.024-80.896 7.168-151.04 41.472t-121.856 88.064-81.408 123.392-29.696 148.48z"  horiz-adv-x="1024" />

    
    <glyph glyph-name="zanyang" unicode="&#59177;" d="M925.696 347.104q0-16.384-6.656-31.232t-17.408-26.112-26.112-17.92-31.744-6.656l-29.696 0q33.792 0 57.856-22.528t24.064-55.296-24.064-56.32-57.856-23.552l-30.72 0q34.816 0 58.88-23.552t24.064-56.32q0-16.384-9.216-31.232t-25.088-25.6-36.352-16.896-41.984-6.144q33.792 0 54.784-24.064t20.992-56.832q0-20.48-11.776-35.328t-29.696-24.576-38.4-14.336-36.864-4.608l-182.272 0-246.784 0q-32.768 0-60.928 10.752t-49.152 30.72-32.768 47.616-11.776 62.464l0 313.344q0 20.48 1.536 40.96t7.68 38.4 18.944 32.768 34.304 24.064q20.48 8.192 46.592 24.576t54.272 38.912 54.784 50.688 48.128 59.392 34.304 65.024 12.8 68.608q1.024 30.72 8.192 51.2t18.944 33.28 25.6 18.432 28.16 5.632q36.864 0 61.952-22.528t35.328-73.728q2.048-44.032-5.12-93.184-6.144-41.984-21.504-92.16t-47.104-99.328l296.96 0q33.792 0 57.856-22.016t24.064-54.784z"  horiz-adv-x="1024" />

    
    <glyph glyph-name="piping" unicode="&#59178;" d="M908.451362 218.319066q0-30.879377-22.910506-51.299611t-54.785992-20.420233l-278.910506 0q29.883268-46.817121 44.824903-94.132296t19.922179-86.163424q5.976654-45.821012 4.980545-87.657588-9.961089-47.81323-33.36965-69.229572t-58.272374-21.416342q-12.949416 0-26.396887 5.478599t-23.906615 17.431907-17.431907 31.377432-7.968872 48.311284q0 32.871595-12.451362 64.747082t-32.373541 60.762646-45.322957 55.284047-51.299611 47.315175-50.801556 36.357977-43.828794 23.40856q-20.918288 8.964981-32.373541 22.910506t-17.431907 31.377432-7.470817 36.357977-1.494163 37.85214l0 294.848249q0 32.871595 11.455253 58.770428t30.879377 44.824903 45.821012 28.88716 57.276265 9.961089l232.093385 0 170.33463 0q15.937743 0 35.361868-4.48249t35.859922-13.447471 27.891051-23.40856 11.455253-33.36965q0-31.875486-19.922179-53.789883t-51.797665-21.914397q20.918288 0 39.844358-5.976654t33.867704-15.937743 23.40856-23.40856 8.466926-29.385214q0-31.875486-22.412451-53.789883t-54.287938-21.914397l27.891051 0q31.875486 0 54.785992-21.416342t22.910506-53.291829-22.910506-52.29572-54.785992-20.420233l27.891051 0q15.937743 0 30.381323-6.474708t24.902724-16.933852 16.435798-24.404669 5.976654-29.883268z"  horiz-adv-x="1024" />

    
    <glyph glyph-name="shezhi" unicode="&#59179;" d="M1016.832 205.792q2.048-12.288-1.024-29.696t-10.24-35.328-17.408-32.256-22.528-20.48-21.504-6.144-20.48 4.096q-10.24 3.072-25.6 5.632t-31.232 1.024-31.744-6.656-27.136-17.408q-24.576-25.6-28.672-58.368t9.216-62.464q10.24-20.48-3.072-40.96-6.144-8.192-19.456-16.896t-29.184-15.872-33.28-11.264-30.72-4.096q-9.216 0-17.408 7.168t-11.264 15.36l-1.024 0q-11.264 31.744-38.4 54.784t-62.976 23.04q-34.816 0-62.976-23.04t-39.424-53.76q-5.12-12.288-15.36-17.92t-22.528-5.632q-14.336 0-32.256 5.12t-35.84 12.8-32.256 17.92-21.504 20.48q-5.12 7.168-5.632 16.896t7.68 27.136q11.264 23.552 8.704 53.76t-26.112 55.808q-14.336 15.36-34.816 19.968t-38.912 3.584q-21.504-1.024-44.032-8.192-14.336-4.096-28.672 2.048-11.264 4.096-20.992 18.944t-17.408 32.768-11.776 36.864-2.048 31.232q3.072 22.528 20.48 28.672 30.72 12.288 55.296 40.448t24.576 62.976q0 35.84-24.576 62.464t-55.296 38.912q-9.216 3.072-15.36 14.848t-6.144 24.064q0 13.312 4.096 29.696t10.752 31.744 15.36 28.16 18.944 18.944q8.192 5.12 15.872 4.096t16.896-4.096q30.72-12.288 64-7.68t58.88 29.184q12.288 12.288 17.92 30.208t7.168 35.328 0 31.744-2.56 20.48q-2.048 6.144-3.584 14.336t1.536 14.336q6.144 14.336 22.016 25.088t34.304 17.92 35.84 10.752 27.648 3.584q13.312 0 20.992-8.704t10.752-17.92q11.264-27.648 36.864-48.64t60.416-20.992q35.84 0 63.488 19.968t38.912 50.688q4.096 8.192 12.8 16.896t17.92 8.704q14.336 0 31.232-4.096t33.28-11.264 30.208-18.432 22.016-24.576q5.12-8.192 3.072-17.92t-4.096-13.824q-13.312-29.696-8.192-62.464t29.696-57.344 60.416-27.136 66.56 11.776q8.192 5.12 19.968 4.096t19.968-9.216q15.36-14.336 27.136-43.52t15.872-58.88q2.048-17.408-5.632-27.136t-15.872-12.8q-31.744-11.264-54.272-39.424t-22.528-64q0-34.816 18.944-60.928t49.664-37.376q7.168-4.096 12.288-8.192 11.264-9.216 15.36-23.552zM540.672 113.632q46.08 0 87.04 17.408t71.168 48.128 47.616 71.168 17.408 86.528-17.408 86.528-47.616 70.656-71.168 47.616-87.04 17.408-86.528-17.408-70.656-47.616-47.616-70.656-17.408-86.528 17.408-86.528 47.616-71.168 70.656-48.128 86.528-17.408z"  horiz-adv-x="1024" />

    
    <glyph glyph-name="shanchu" unicode="&#59180;" d="M861.184 619.488q30.72 0 50.688-10.24t31.744-25.6 16.384-33.28 4.608-33.28q0-7.168-0.512-11.264t-0.512-7.168l0-6.144-67.584 0 0-537.6q0-20.48-8.192-39.424t-23.552-33.28-37.376-23.04-50.688-8.704l-456.704 0q-26.624 0-50.176 8.192t-40.448 23.04-26.624 35.84-9.728 47.616l0 527.36-63.488 0q-1.024 1.024-1.024 5.12-1.024 5.12-1.024 31.744 0 13.312 6.144 29.696t18.432 30.208 31.744 23.04 46.08 9.216l91.136 0 0 62.464q0 26.624 18.432 45.568t45.056 18.944l320.512 0q35.84 0 49.664-18.944t13.824-45.568l0-63.488q21.504-1.024 46.08-1.024l47.104 0zM384 619.488l320.512 0 0 64.512-320.512 0 0-64.512zM352.256-28.704q32.768 0 32.768 41.984l0 475.136-63.488 0 0-475.136q0-21.504 6.656-31.744t24.064-10.24zM545.792-27.68q17.408 0 23.552 9.728t6.144 31.232l0 475.136-63.488 0 0-475.136q0-40.96 33.792-40.96zM738.304-25.632q18.432 0 24.576 9.728t6.144 31.232l0 473.088-64.512 0 0-473.088q0-40.96 33.792-40.96z"  horiz-adv-x="1024" />

    
    <glyph glyph-name="shoucang" unicode="&#58884;" d="M781.186088 195.968127q17.338645-80.573705 30.59761-145.848606 6.119522-27.537849 11.219124-55.075697t9.689243-49.976096 7.649402-38.247012 4.079681-19.888446q3.059761-20.398406-9.179283-27.027888t-27.537849-6.629482q-5.099602 0-14.788845 3.569721t-14.788845 5.609562l-266.199203 155.027888q-72.414343-42.836653-131.569721-76.494024-25.498008-14.278884-50.486056-28.557769t-45.386454-26.517928-35.187251-20.398406-19.888446-10.199203q-10.199203-5.099602-20.908367-3.569721t-19.378486 7.649402-12.749004 14.788845-2.039841 17.848606q1.01992 4.079681 5.099602 19.888446t9.179283 37.737052 11.729084 48.446215 13.768924 54.055777q15.298805 63.23506 34.677291 142.788845-60.175299 52.015936-108.111554 92.812749-20.398406 17.338645-40.286853 34.167331t-35.697211 30.59761-26.007968 22.438247-11.219124 9.689243q-12.239044 11.219124-20.908367 24.988048t-6.629482 28.047809 11.219124 22.438247 20.398406 10.199203l315.155378 28.557769 117.290837 273.338645q6.119522 16.318725 17.338645 28.047809t30.59761 11.729084q10.199203 0 17.848606-4.589641t12.749004-10.709163 8.669323-12.239044 5.609562-10.199203l114.231076-273.338645 315.155378-29.577689q20.398406-5.099602 28.557769-12.239044t8.159363-22.438247q0-14.278884-8.669323-24.988048t-21.928287-26.007968z"  horiz-adv-x="1024" />

    
    <glyph glyph-name="xiai" unicode="&#58885;" d="M533.504 543.712q33.792 41.984 71.68 75.776 32.768 27.648 74.24 50.176t86.528 19.456q63.488-5.12 105.984-30.208t67.584-63.488 34.304-87.04 6.144-99.84-17.92-97.792-36.864-87.04-48.64-74.752-53.248-61.952q-40.96-41.984-85.504-78.336t-84.992-62.464-73.728-41.472-51.712-15.36q-20.48-1.024-52.224 14.336t-69.632 41.472-79.872 61.952-82.944 75.776q-26.624 25.6-57.344 59.392t-57.856 74.24-46.592 87.552-21.504 100.352 11.264 99.84 39.936 83.456 65.536 61.952 88.064 35.328q24.576 5.12 49.152 1.536t48.128-12.288 45.056-22.016 40.96-27.648q45.056-33.792 86.016-80.896z"  horiz-adv-x="1024" />

    
    <glyph glyph-name="bianji" unicode="&#58895;" d="M1018.319924 699.882465q4.093748-9.210934 6.652341-21.492179t2.558593-25.585928-5.117186-26.609365-16.374994-25.585928q-12.281245-12.281245-22.003898-21.492179t-16.886712-16.374994q-8.187497-8.187497-15.351557-14.32812l-191.382739 191.382739q12.281245 11.257808 29.167958 27.121083t28.144521 25.074209q14.32812 11.257808 29.679676 15.863275t30.191395 4.093748 28.656239-4.605467 24.050772-9.210934q21.492179-11.257808 47.589826-39.402329t40.425766-58.847634zM221.062416 200.445155q6.140623 6.140623 28.656239 29.167958t56.289041 56.80076l74.710909 74.710909 82.898406 82.898406 220.038979 220.038979 191.382739-192.406177-220.038979-220.038979-81.874969-82.898406q-40.937484-39.914047-73.687472-73.175753t-54.242167-54.753885-25.585928-24.562491q-10.234371-9.210934-23.539054-19.445305t-27.632802-16.374994q-14.32812-7.16406-41.960921-17.398431t-57.824197-19.957024-57.312478-16.886712-40.425766-9.210934q-27.632802-3.070311-36.843736 8.187497t-5.117186 37.867173q2.046874 14.32812 9.722653 41.449203t16.374994 56.289041 16.886712 53.730448 13.304682 33.773425q6.140623 14.32812 13.816401 26.097646t22.003898 26.097646z"  horiz-adv-x="1028" />

    
    <glyph glyph-name="xiaosuolvetu" unicode="&#58905;" d="M248.832 748.512q28.672 0 48.64-19.968t19.968-48.64l0-116.736q0-28.672-19.968-48.64t-48.64-19.968l-116.736 0q-28.672 0-48.64 19.968t-19.968 48.64l0 116.736q0 28.672 19.968 48.64t48.64 19.968l116.736 0zM572.416 748.512q28.672 0 48.64-19.968t19.968-48.64l0-116.736q0-28.672-19.968-48.64t-48.64-19.968l-118.784 0q-28.672 0-48.64 19.968t-19.968 48.64l0 116.736q0 28.672 19.968 48.64t48.64 19.968l118.784 0zM891.904 748.512q28.672 0 48.64-19.968t19.968-48.64l0-116.736q0-28.672-19.968-48.64t-48.64-19.968l-118.784 0q-28.672 0-48.64 19.968t-19.968 48.64l0 116.736q0 28.672 19.968 48.64t48.64 19.968l118.784 0zM248.832 426.976q28.672 0 48.64-19.968t19.968-48.64l0-116.736q0-28.672-19.968-48.64t-48.64-19.968l-116.736 0q-28.672 0-48.64 19.968t-19.968 48.64l0 116.736q0 28.672 19.968 48.64t48.64 19.968l116.736 0zM572.416 426.976q28.672 0 48.64-19.968t19.968-48.64l0-116.736q0-28.672-19.968-48.64t-48.64-19.968l-118.784 0q-28.672 0-48.64 19.968t-19.968 48.64l0 116.736q0 28.672 19.968 48.64t48.64 19.968l118.784 0zM891.904 426.976q28.672 0 48.64-19.968t19.968-48.64l0-116.736q0-28.672-19.968-48.64t-48.64-19.968l-118.784 0q-28.672 0-48.64 19.968t-19.968 48.64l0 116.736q0 28.672 19.968 48.64t48.64 19.968l118.784 0zM248.832 105.44q28.672 0 48.64-19.968t19.968-48.64l0-116.736q0-28.672-19.968-48.64t-48.64-19.968l-116.736 0q-28.672 0-48.64 19.968t-19.968 48.64l0 116.736q0 28.672 19.968 48.64t48.64 19.968l116.736 0zM572.416 105.44q28.672 0 48.64-19.968t19.968-48.64l0-116.736q0-28.672-19.968-48.64t-48.64-19.968l-118.784 0q-28.672 0-48.64 19.968t-19.968 48.64l0 116.736q0 28.672 19.968 48.64t48.64 19.968l118.784 0zM891.904 105.44q28.672 0 48.64-19.968t19.968-48.64l0-116.736q0-28.672-19.968-48.64t-48.64-19.968l-118.784 0q-28.672 0-48.64 19.968t-19.968 48.64l0 116.736q0 28.672 19.968 48.64t48.64 19.968l118.784 0z"  horiz-adv-x="1024" />

    
    <glyph glyph-name="liebiao" unicode="&#58913;" d="M187.392 741.344q28.672 0 48.64-19.456t19.968-48.128l0-52.224q0-28.672-19.968-48.64t-48.64-19.968l-54.272 0q-27.648 0-47.616 19.968t-19.968 48.64l0 52.224q0 28.672 19.968 48.128t47.616 19.456l54.272 0zM889.856 741.344q27.648 0 47.616-19.456t19.968-48.128l0-52.224q0-28.672-19.968-48.64t-47.616-19.968l-437.248 0q-28.672 0-48.64 19.968t-19.968 48.64l0 52.224q0 28.672 19.968 48.128t48.64 19.456l437.248 0zM187.392 422.88q28.672 0 48.64-19.968t19.968-48.64l0-52.224q0-27.648-19.968-47.616t-48.64-19.968l-54.272 0q-27.648 0-47.616 19.968t-19.968 47.616l0 52.224q0 28.672 19.968 48.64t47.616 19.968l54.272 0zM889.856 422.88q27.648 0 47.616-19.968t19.968-48.64l0-52.224q0-27.648-19.968-47.616t-47.616-19.968l-437.248 0q-28.672 0-48.64 19.968t-19.968 47.616l0 52.224q0 28.672 19.968 48.64t48.64 19.968l437.248 0zM187.392 103.392q28.672 0 48.64-19.968t19.968-47.616l0-52.224q0-28.672-19.968-48.64t-48.64-19.968l-54.272 0q-27.648 0-47.616 19.968t-19.968 48.64l0 52.224q0 27.648 19.968 47.616t47.616 19.968l54.272 0zM889.856 103.392q27.648 0 47.616-19.968t19.968-47.616l0-52.224q0-28.672-19.968-48.64t-47.616-19.968l-437.248 0q-28.672 0-48.64 19.968t-19.968 48.64l0 52.224q0 27.648 19.968 47.616t48.64 19.968l437.248 0z"  horiz-adv-x="1024" />

    
    <glyph glyph-name="shipin" unicode="&#58914;" d="M768 396.256q0-5.12-10.752-17.92t-23.04-30.208-23.04-37.888-10.752-41.984 10.752-41.472 23.04-36.352 23.04-27.136 10.752-13.824l0-107.52q0-17.408-12.8-39.424t-31.744-41.472-41.984-32.256-43.52-12.8l-508.928 0q-27.648 0-50.688 9.728t-40.448 27.136-27.136 40.96-9.728 51.2l0 441.344q0 20.48 9.216 42.496t26.112 40.448 39.936 30.72 50.688 12.288l508.928 0q27.648 0 51.712-9.728t41.984-26.624 28.16-40.448 10.24-50.176l0-89.088zM1086.464 492.512l0-467.968q0-22.528-11.776-39.936t-35.328-17.408q-8.192 0-20.992 6.144t-25.6 14.336-24.064 16.384-16.384 13.312q-13.312 11.264-40.448 38.912t-54.784 62.464-48.64 71.68-20.992 67.584 22.528 70.144 54.272 77.312 66.56 70.144 58.368 48.64q9.216 6.144 25.088 14.848t28.16 8.704q27.648 0 35.84-15.36t8.192-37.888l0-2.048z"  horiz-adv-x="1087" />

    
    <glyph glyph-name="yingyong" unicode="&#58932;" d="M371.732817 717.827686q25.773475 0 44.112294-17.843175t18.338819-43.616651l0-247.821878q0-25.773475-18.338819-44.112294t-44.112294-18.338819l-247.821878 0q-25.773475 0-43.616651 18.338819t-17.843175 44.112294l0 247.821878q0 25.773475 17.843175 43.616651t43.616651 17.843175l247.821878 0zM371.732817 222.18393q25.773475 0 44.112294-17.843175t18.338819-43.616651l0-248.813166q0-25.773475-18.338819-43.616651t-44.112294-17.843175l-247.821878 0q-25.773475 0-43.616651 17.843175t-17.843175 43.616651l0 248.813166q0 25.773475 17.843175 43.616651t43.616651 17.843175l247.821878 0zM868.367861 222.18393q25.773475 0 43.616651-17.843175t17.843175-43.616651l0-248.813166q0-25.773475-17.843175-43.616651t-43.616651-17.843175l-247.821878 0q-25.773475 0-44.112294 17.843175t-18.338819 43.616651l0 248.813166q0 25.773475 18.338819 43.616651t44.112294 17.843175l247.821878 0zM1006.156825 608.78606q19.82575-19.82575 19.82575-46.590513t-19.82575-45.599226l-184.379477-184.379477q-19.82575-19.82575-46.094869-19.82575t-46.094869 19.82575l-184.379477 184.379477q-18.834463 18.834463-18.834463 45.599226t18.834463 46.590513l184.379477 184.379477q19.82575 18.834463 46.094869 18.834463t46.094869-18.834463z"  horiz-adv-x="1026" />

    
    <glyph glyph-name="yingyongzhongxin" unicode="&#58938;" d="M448.512 812q26.624 0 45.568-18.944t18.944-45.568l0-319.488q0-26.624-18.944-45.568t-45.568-18.944l-319.488 0q-26.624 0-45.568 18.944t-18.944 45.568l0 319.488q0 26.624 18.944 45.568t45.568 18.944l319.488 0zM961.536 812q26.624 0 45.056-18.944t18.432-45.568l0-319.488q0-26.624-18.432-45.568t-45.056-18.944l-320.512 0q-26.624 0-45.568 18.944t-18.944 45.568l0 319.488q0 26.624 18.944 45.568t45.568 18.944l320.512 0zM448.512 300q26.624 0 45.568-18.944t18.944-45.568l0-320.512q0-26.624-18.944-45.056t-45.568-18.432l-319.488 0q-26.624 0-45.568 18.432t-18.944 45.056l0 320.512q0 26.624 18.944 45.568t45.568 18.944l319.488 0zM961.536 300q26.624 0 45.056-18.944t18.432-45.568l0-320.512q0-26.624-18.432-45.056t-45.056-18.432l-320.512 0q-26.624 0-45.568 18.432t-18.944 45.056l0 320.512q0 26.624 18.944 45.568t45.568 18.944l320.512 0z"  horiz-adv-x="1026" />

    
    <glyph glyph-name="juzuo" unicode="&#58943;" d="M896 748.512q26.624 0 45.056-18.432t18.432-45.056-18.432-45.056-45.056-18.432l-704.512 0q-26.624 0-45.056 18.432t-18.432 45.056 18.432 45.056 45.056 18.432l704.512 0zM191.488 364.512q-26.624 0-45.056 18.432t-18.432 45.056 18.432 46.08 45.056 19.456l447.488 0q26.624 0 45.056-19.456t18.432-46.08-18.432-45.056-45.056-18.432l-447.488 0zM831.488 236.512q27.648 0 46.08-18.432t18.432-45.056-18.432-45.056-46.08-18.432l-640 0q-26.624 0-45.056 18.432t-18.432 45.056 18.432 45.056 45.056 18.432l640 0zM575.488-19.488q26.624 0 45.056-18.944t18.432-45.568-18.432-45.056-45.056-18.432l-384 0q-26.624 0-45.056 18.432t-18.432 45.056 18.432 45.568 45.056 18.944l384 0z"  horiz-adv-x="1024" />

    
    <glyph glyph-name="juzhong" unicode="&#58944;" d="M128 620.512q-26.624 0-45.056 18.944t-18.432 45.568 18.432 45.056 45.056 18.432l768 0q26.624 0 45.056-18.432t18.432-45.056-18.432-45.568-45.056-18.944l-768 0zM768 492.512q26.624 0 45.056-18.432t18.432-45.056-18.432-45.568-45.056-18.944l-512 0q-26.624 0-45.056 18.944t-18.432 45.568 18.432 45.056 45.056 18.432l512 0zM896 237.536q26.624 0 45.056-18.944t18.432-45.568-18.432-45.056-45.056-18.432l-768 0q-26.624 0-45.056 18.432t-18.432 45.056 18.432 45.568 45.056 18.944l768 0zM768-18.464q26.624 0 45.056-18.944t18.432-45.568-18.432-45.056-45.056-18.432l-512 0q-26.624 0-45.056 18.432t-18.432 45.056 18.432 45.568 45.056 18.944l512 0z"  horiz-adv-x="1024" />

    
    <glyph glyph-name="juyou" unicode="&#58945;" d="M72.704 607.2q-25.6 0-43.52 17.92t-17.92 43.52 17.92 43.52 43.52 17.92l675.84 0q25.6 0 43.52-17.92t17.92-43.52-17.92-43.52-43.52-17.92l-675.84 0zM748.544 484.32q25.6 0 43.52-17.92t17.92-43.52-17.92-43.52-43.52-17.92l-430.08 0q-25.6 0-43.52 17.92t-17.92 43.52 17.92 43.52 43.52 17.92l430.08 0zM748.544 238.56q25.6 0 43.52-17.92t17.92-43.52-17.92-43.52-43.52-17.92l-614.4 0q-25.6 0-43.52 17.92t-17.92 43.52 17.92 43.52 43.52 17.92l614.4 0zM748.544-7.2q25.6 0 43.52-17.92t17.92-43.52-17.92-43.52-43.52-17.92l-368.64 0q-25.6 0-43.52 17.92t-17.92 43.52 17.92 43.52 43.52 17.92l368.64 0z"  horiz-adv-x="1024" />

    
    <glyph glyph-name="hengpai" unicode="&#58946;" d="M191.488 621.536q-26.624 0-45.056 18.432t-18.432 45.056 18.432 45.056 45.056 18.432l695.296 0q26.624 0 45.056-18.432t18.432-45.056-18.432-45.056-45.056-18.432l-695.296 0zM191.488 368.608q-26.624 0-45.056 18.432t-18.432 45.056 18.432 45.056 45.056 18.432l631.808 0q26.624 0 45.056-18.432t18.432-45.056-18.432-45.056-45.056-18.432l-631.808 0zM886.784 242.656q26.624 0 45.056-18.432t18.432-45.056-18.432-45.056-45.056-18.432l-695.296 0q-26.624 0-45.056 18.432t-18.432 45.056 18.432 45.056 45.056 18.432l695.296 0zM823.296-10.272q26.624 0 45.056-18.432t18.432-45.056-18.432-45.056-45.056-18.432l-631.808 0q-26.624 0-45.056 18.432t-18.432 45.056 18.432 45.056 45.056 18.432l631.808 0z"  horiz-adv-x="1024" />

    
    <glyph glyph-name="shupai" unicode="&#58947;" d="M126.976 747.488q26.624 0 45.568-18.432t18.944-45.056l0-704.512q0-26.624-18.944-45.056t-45.568-18.432-45.056 18.432-18.432 45.056l0 704.512q0 26.624 18.432 45.056t45.056 18.432zM382.976 747.488q26.624 0 45.568-18.432t18.944-45.056l0-640q0-27.648-18.944-46.08t-45.568-18.432-45.056 18.432-18.432 46.08l0 640q0 26.624 18.432 45.056t45.056 18.432zM638.976 747.488q26.624 0 45.568-18.432t18.944-45.056l0-704.512q0-26.624-18.944-45.056t-45.568-18.432-45.056 18.432-18.432 45.056l0 704.512q0 26.624 18.432 45.056t45.056 18.432zM894.976 747.488q26.624 0 45.568-18.432t18.944-45.056l0-640q0-27.648-18.944-46.08t-45.568-18.432-45.056 18.432-18.432 46.08l0 640q0 26.624 18.432 45.056t45.056 18.432z"  horiz-adv-x="1024" />

    
    <glyph glyph-name="zuishangbu" unicode="&#58953;" d="M776.192 364.512q22.528-26.624 17.408-45.056t-33.792-17.408q-8.192 0-20.48-0.512t-25.088-0.512-25.088-0.512-21.504-0.512q-19.456 0-24.064-12.288t-4.608-32.768q0-15.36 0.512-41.984t1.024-58.88 0.512-68.096 0.512-68.096 1.024-59.904 0.512-43.008q0-10.24-1.536-20.992t-7.168-19.968-16.384-15.36-28.16-6.144q-22.528 0-40.96 0.512t-43.008 0.512q-33.792 0-45.056 14.336t-12.288 49.152l0 34.816q0 23.552-0.512 53.76t-0.512 64.512-0.512 66.048-0.512 57.344l0 40.96q-1.024 29.696-7.168 47.616t-27.648 16.896q-15.36 0-34.816 0.512t-34.816 0.512q-27.648 0-35.328 13.824t10.752 37.376q18.432 24.576 43.52 54.272t51.712 60.928 52.224 61.44 45.056 55.808q18.432 23.552 35.328 23.552t35.328-20.48q19.456-22.528 44.544-50.688t51.712-57.856 52.224-59.392 47.104-54.272zM768 620.512l-447.488 0 0 128 447.488 0 0-128z"  horiz-adv-x="1024" />

    
    <glyph glyph-name="zuixiabu" unicode="&#58954;" d="M759.808 298.976q28.672 0 33.792-17.92t-17.408-44.544q-21.504-25.6-47.104-54.784t-52.224-59.392-51.712-57.856-44.544-50.176q-34.816-40.96-70.656 3.072-19.456 25.6-45.056 55.808t-52.224 60.928-52.224 60.416-44.032 54.272q-18.432 23.552-11.264 38.4t35.84 14.848q16.384 0 35.84 0.512t34.816 0.512q21.504-1.024 27.136 16.384t6.656 47.104l0 39.936q0 26.624 0.512 58.88t0.512 66.56 0.512 64.512 0.512 53.76l0 34.816q1.024 33.792 12.8 49.152t45.568 14.336q23.552 0 42.496 0.512t40.448 0.512q17.408 0 28.16-6.144t16.384-15.36 7.168-20.48 1.536-21.504q0-15.36-0.512-42.496t-1.024-59.904-0.512-68.096-0.512-68.096-1.024-59.392-0.512-40.96q0-21.504 4.608-33.28t25.088-11.776q9.216 0 21.504-0.512t25.088-1.024 25.088-1.024 20.48-0.512zM319.488-19.488l448.512 0 0-129.024-448.512 0 0 129.024z"  horiz-adv-x="1024" />

    
    <glyph glyph-name="zuoshang" unicode="&#58978;" d="M240.64-62.496q-17.408-17.408-36.864-20.48t-36.352 6.656-28.16 30.72-11.264 51.712l0 461.824q0 27.648 9.728 52.736t26.112 43.52 38.912 29.184 48.128 10.752q59.392 0 122.88-0.512t126.976-0.512 124.416-0.512 116.224-0.512q26.624 0 45.056-11.264t27.136-27.648 5.632-36.352-20.48-36.352q-19.456-19.456-50.688-50.176t-70.144-69.12-82.432-81.92-87.552-87.04-86.528-85.504-77.824-77.312-62.464-61.952-40.448-39.936z"  horiz-adv-x="1024" />

    
    <glyph glyph-name="xiangshang1" unicode="&#58979;" d="M896 44l-80.896 0-131.072 0-155.648 0-159.744 0-141.312 0-100.352 0q-24.576 0-39.936 11.264t-20.992 28.672-0.512 38.4 22.528 41.472q37.888 40.96 79.872 86.016t86.016 91.136l86.016 92.16q44.032 46.08 83.968 89.088 18.432 19.456 44.032 28.672t52.736 8.704 53.248-11.776 45.568-31.744q70.656-73.728 147.456-159.744t160.768-184.32q19.456-23.552 26.624-46.592t2.56-40.96-20.48-29.184-40.448-11.264z"  horiz-adv-x="1024" />

    
    <glyph glyph-name="youshang" unicode="&#58980;" d="M707.584-63.52l-58.368 58.368q-40.96 40.96-94.208 93.696t-113.664 112.128-116.224 114.688-102.4 101.376-72.192 71.68q-17.408 16.384-20.992 36.352t5.12 36.352 27.136 27.648 45.056 11.264l475.136 0q62.464 0 99.328-36.352t36.864-93.696l0-465.92q0-30.72-10.752-51.712t-27.136-30.208-35.84-6.144-36.864 20.48z"  horiz-adv-x="1024" />

    
    <glyph glyph-name="zuoxia" unicode="&#58981;" d="M241.664 708.576l39.936-39.936q26.624-26.624 62.464-61.952t77.824-77.312 86.016-85.504 87.552-87.04 82.432-81.408 70.144-68.608 50.688-50.176q17.408-17.408 20.992-36.864t-5.12-36.352-27.136-28.16-45.056-11.264q-122.88 0-241.664-1.024t-239.616-1.024q-30.72 0-55.296 10.752t-41.472 29.184-26.112 43.52-9.216 52.736l0 461.824q0 30.72 10.752 52.224t27.648 30.72 36.864 6.144 37.376-20.48z"  horiz-adv-x="1024" />

    
    <glyph glyph-name="xiangxia" unicode="&#58982;" d="M878.592 561.12q29.696 0 48.128-11.264t24.576-29.696 0-41.472-26.624-45.568q-82.944-92.16-159.744-180.224t-148.48-164.864q-19.456-20.48-45.568-31.744t-53.76-11.776-53.248 8.704-43.008 28.672q-39.936 44.032-82.944 90.112l-88.064 92.16q-43.008 46.08-85.504 90.624t-79.36 86.528q-17.408 19.456-22.528 40.448t1.024 38.4 23.552 28.672 45.056 11.264q35.84 0 98.816 0.512t137.728 0.512l153.6 0 150.528 0 125.952 0 79.872 0z"  horiz-adv-x="1024" />

    
    <glyph glyph-name="youxia" unicode="&#58983;" d="M772.096 568.288q17.408 17.408 39.424 22.528t40.96-2.048 31.744-26.624 12.8-50.176l0-461.824q0-27.648-9.216-52.224t-25.6-43.008-38.912-28.672-49.152-10.24l-490.496 0q-26.624 0-43.52 13.312t-23.04 32.768-1.024 41.472 22.528 39.424q25.6 25.6 70.144 69.12t98.304 96.256 110.592 109.056 107.52 105.984 90.112 88.576 56.832 56.32z"  horiz-adv-x="1024" />

    
    <glyph glyph-name="xiangzuo1" unicode="&#58984;" d="M765.952 687.072l0-81.92 0-129.024 0-156.672 0-159.744q0-76.8 0.512-141.312t0.512-100.352q0-24.576-11.776-40.96t-29.696-22.016-39.424 0-39.936 24.064q-37.888 38.912-81.92 81.408t-90.624 85.504-94.208 86.016-91.648 82.944q-19.456 17.408-29.184 43.008t-8.704 53.248 11.776 54.272 32.256 45.056q39.936 34.816 79.36 70.144t80.896 72.704 87.04 78.336 96.768 87.04q22.528 20.48 45.568 27.136t41.472 2.048 29.696-20.48 11.264-40.448z"  horiz-adv-x="1024" />

    
    <glyph glyph-name="xiangyou1" unicode="&#58985;" d="M256 684q0 24.576 11.264 40.448t29.184 20.48 40.96-2.048 46.592-27.136q98.304-84.992 181.248-159.744t163.84-148.48q20.48-18.432 31.232-44.544t11.264-53.76-8.704-53.248-28.672-44.032q-41.984-40.96-87.552-84.48t-91.648-86.528-91.648-84.992-87.552-79.872q-19.456-17.408-40.448-22.528t-38.912 0.512-28.672 20.992-10.752 39.936l0 100.352 0 141.312q0 76.8-0.512 159.744t-0.512 155.648l0 131.072 0 80.896z"  horiz-adv-x="1024" />

    
    <glyph glyph-name="xinlangweibo" unicode="&#58995;" d="M914.432 293.856q27.648-21.504 38.912-51.712t9.216-62.976-14.336-65.536-31.744-59.392q-34.816-48.128-78.848-81.92t-91.136-56.32-94.72-35.328-89.6-18.944-75.264-7.68-51.712-1.536-49.152 2.56-68.096 10.24-78.336 21.504-79.872 36.352-74.24 55.296-59.904 78.848q-16.384 29.696-22.016 63.488t-5.632 86.016q0 22.528 7.68 51.2t27.136 63.488 53.248 75.776 86.016 90.112q51.2 48.128 105.984 85.504t117.248 57.856q28.672 10.24 63.488 11.264t57.344-11.264q10.24-11.264 19.456-23.04t12.288-29.184q3.072-14.336 0.512-27.648t-5.632-26.624-5.12-25.6 2.048-22.528q17.408-2.048 33.792 1.536t31.744 9.216 31.232 11.776 33.28 9.216q27.648 5.12 54.784 4.608t49.152-7.68 36.352-22.016 17.408-38.4q2.048-14.336-2.048-26.624t-8.704-23.04-7.168-22.016 1.536-23.552q3.072-7.168 14.848-13.312t27.136-12.288 32.256-13.312 29.184-16.384zM656.384-24.608q26.624 16.384 53.76 45.056t44.032 64 18.944 75.776-20.48 81.408q-19.456 33.792-47.616 57.344t-62.976 37.376-74.24 19.968-80.384 6.144q-78.848 0-139.776-16.384t-105.472-43.008-72.192-60.416-38.912-68.608q-11.264-33.792-6.656-67.072t20.992-62.976 42.496-53.248 57.856-37.888q58.368-25.6 119.296-32.256t116.224-0.512 100.864 21.504 74.24 33.792zM522.24 298.976q20.48-8.192 38.912-18.432t32.768-27.648q10.24-12.288 17.92-30.72t10.752-39.424 1.536-42.496-9.728-38.912q-8.192-18.432-19.968-37.376t-28.672-35.328-40.448-29.184-57.344-18.944q-61.44-11.264-117.76 11.264t-88.064 74.752q-12.288 39.936-13.312 70.656t16.384 66.56q13.312 27.648 40.448 51.712t62.464 38.912 75.264 17.408 78.848-12.8zM359.424 47.072q37.888-3.072 57.856 18.432t21.504 48.128-15.36 47.616-52.736 16.896q-27.648-3.072-43.008-23.552t-17.408-43.52 9.728-42.496 39.424-21.504zM778.24 805.856q74.752 0 139.776-19.968t113.664-57.856 76.288-92.16 27.648-122.88q0-33.792-16.384-50.688t-35.328-17.408-35.328 14.336-16.384 45.568q0 40.96-22.528 77.824t-59.392 64.512-84.48 43.52-96.768 15.872q-31.744 0-47.104 15.36t-14.336 34.304 18.944 34.304 51.712 15.36zM778.24 642.016q95.232 0 144.384-48.64t49.152-146.944q0-30.72-10.24-43.52t-22.528-11.264-22.528 14.848-10.24 35.84q0 60.416-34.816 96.256t-93.184 35.84q-19.456 0-28.672 10.752t-9.216 23.04 9.728 23.04 28.16 10.752z"  horiz-adv-x="1138" />

    
    <glyph glyph-name="tengxunweibo" unicode="&#59005;" d="M517.12 806.88q92.16 0 172.544-34.816t140.288-94.72 94.72-140.288 34.816-171.52q0-92.16-34.816-172.544t-94.72-140.288-140.288-94.72-172.544-34.816l-13.312 0q-6.144 0-12.288 1.024l-4.096 0q-15.36 2.048-26.112 13.824t-10.752 28.16q0 17.408 12.288 29.696t29.696 12.288q4.096 0 12.288-2.048l1.024 1.024 11.264 0q73.728 0 139.264 28.16t114.176 76.8 76.8 114.176 28.16 139.264-28.16 139.264-76.8 113.664-114.176 76.288-139.264 28.16-139.264-28.16-113.664-76.288-76.288-113.664-28.16-139.264q0-75.776 29.696-143.36 6.144-9.216 6.144-22.528 0-17.408-12.288-29.696t-29.696-12.288q-11.264 0-19.968 4.608t-14.848 12.8q-20.48 43.008-31.744 90.624t-11.264 99.84q0 91.136 34.816 171.52t94.72 140.288 140.288 94.72 171.52 34.816zM721.92 365.536q0-41.984-15.872-79.36t-43.52-65.024-65.024-44.032-80.384-16.384q-34.816 0-66.048 10.752t-56.832 31.232q-11.264-13.312-28.672-33.28t-36.864-44.544-39.936-51.712-37.888-53.76q-25.6-38.912-47.616-79.36t-38.4-74.24q-19.456-39.936-35.84-77.824l-105.472 4.096q15.36 44.032 37.888 92.16 19.456 40.96 47.616 91.136t67.072 100.352q21.504 27.648 45.056 55.296t46.08 52.224 41.984 44.544 32.768 33.28q-28.672 48.128-28.672 104.448 0 41.984 15.872 79.36t43.52 65.024 65.024 43.52 79.36 15.872q43.008 0 80.384-15.872t65.024-43.52 43.52-65.024 15.872-79.36z"  horiz-adv-x="1024" />

    
    <glyph glyph-name="suoxiao" unicode="&#58996;" d="M445.411299 272.503981q25.974309 2.886034 36.556435-7.696092t8.658103-35.594423q-1.924023-25.974309-5.772069-58.682698t-8.177097-66.859795-8.177097-67.821807-6.73408-62.530744q-2.886034-30.784366-17.316206-38.961464t-31.746378 10.10112q-10.582126 10.582126-26.93632 25.974309t-27.898332 25.974309q-12.506149 12.506149-23.088275 8.658103t-24.050286-17.316206q-14.430172-14.430172-37.999452-38.480458t-49.062584-50.024595-49.543589-50.505601-39.442469-38.961464q-5.772069-6.73408-13.949166-12.506149t-17.316206-8.177097-19.240229 0.481006-21.645258 14.430172q-6.73408 6.73408-11.063132 10.582126t-8.177097 7.696092l-8.658103 8.658103-12.506149 12.506149q-21.164252 21.164252-16.8352 36.556435t25.493303 37.518446q9.620114 9.620114 31.746378 31.265372t46.657555 46.657555 47.619567 48.581578 36.556435 37.037441q19.240229 19.240229 25.974309 33.189395t-6.73408 27.417326q-9.620114 9.620114-24.050286 25.493303t-25.012298 26.455315q-17.316206 17.316206-12.987155 31.265372t31.265372 16.8352 60.606721 7.215086 69.264824 8.177097 70.226836 8.177097 63.492755 7.215086zM1018.770121 758.319761q21.164252-21.164252 18.759223-37.999452t-24.531292-38.961464q-10.582126-10.582126-32.227383-32.708389t-47.138561-47.619567-49.062584-49.543589-37.037441-37.518446q-19.240229-19.240229-23.56928-30.784366t9.139109-25.012298q9.620114-9.620114 22.607269-23.56928t23.56928-24.531292q17.316206-17.316206 12.506149-31.265372t-30.784366-16.8352q-26.93632-2.886034-60.606721-7.215086t-69.74583-8.177097-70.707841-8.177097-62.530744-7.215086q-50.024595-5.772069-46.176549 42.328504 2.886034 25.974309 6.253074 58.682698t7.696092 67.340801 8.177097 68.302813 6.73408 62.530744q2.886034 30.784366 17.316206 38.961464t32.708389-10.10112q4.810057-5.772069 12.506149-12.987155t15.873189-14.911177 15.873189-14.911177 13.46816-12.987155q12.506149-12.506149 20.20224-11.063132t21.164252 14.911177q14.430172 14.430172 38.480458 38.961464t50.505601 50.986607 50.986607 51.467612 39.923475 40.404481q5.772069 5.772069 13.46816 12.025143t16.354195 9.139109 18.278217 0.962011 21.164252-13.46816q6.73408-6.73408 11.063132-10.582126t8.177097-7.696092l8.658103-8.658103z"  horiz-adv-x="1038" />

    
    </font>
</defs>
</svg>
